{
.appVersion = "1352";
copyright = "Copyright 2022 The Noto Project Authors";
customParameters = (
{
name = "Enforce Compatibility Check";
value = 1;
},
{
name = Axes;
value = (
{
Name = Weight;
Tag = wght;
},
{
Name = Width;
Tag = wdth;
}
);
},
{
name = fsType;
value = (
);
},
{
name = codePageRanges;
value = (
874
);
},
{
name = unicodeRanges;
value = (
24
);
},
{
name = license;
value = "This Font Software is licensed under the SIL Open Font License, Version 1.1. This Font Software is distributed on an \"AS IS\" BASIS, WITHOUT WARRANTIES OR CONDITIONS OF ANY KIND, either express or implied. See the SIL Open Font License for the specific language, permissions and limitations governing your use of this Font Software.";
},
{
name = licenseURL;
value = "http://scripts.sil.org/OFL";
},
{
name = vendorID;
value = GOOG;
},
{
name = trademark;
value = "Noto is a trademark of Google LLC.";
},
{
name = versionString;
value = "Version 1.000";
},
{
name = sampleText;
value = "กขฃคฅฆง";
},
{
name = "Family Alignment Zones";
value = (
"{501, 8}",
"{0, -8}"
);
},
{
name = "Get Hints From Master";
value = "9148514D-BEB8-4275-B264-8F51401A425F";
},
{
name = "Use Typo Metrics";
value = 1;
},
{
name = blueScale;
value = 0.05;
},
{
name = blueShift;
value = 7;
},
{
name = blueFuzz;
value = 1;
},
{
name = description;
value = "Design by Cadson Demak Co.,Ltd.";
}
);
date = "2022-10-15 17:17:15 +0000";
designer = "Cadson Demak Team";
designerURL = "https://www.cadsondemak.com/";
familyName = "Noto Sans Thai Looped UI";
featurePrefixes = (
{
automatic = 1;
code = "languagesystem DFLT dflt;\012\012languagesystem thai dflt;\012languagesystem thai MLY;\012languagesystem thai MFA;\012languagesystem thai PAL;\012languagesystem thai SAN;\012";
name = Languagesystems;
}
);
features = (
{
automatic = 1;
code = "feature calt;\012feature locl;\012";
name = aalt;
},
{

glyphs = (
{
glyphname = "koKai-thai";
lastChange = "2022-10-16 03:44:57 +0000";
layers = (
{
anchors = (
{
name = bottom;
position = "{557, 0}";
},
{
name = top;
position = "{547, 514}";
}
);
layerId = "EB3A5D6C-8260-43A6-9EF2-63971FC08D48";
paths = (
{
closed = 1;
nodes = (
"242 0 LINE",
"242 158 LINE SMOOTH",
"242 199 OFFCURVE",
"256 218 OFFCURVE",
"300 226 CURVE",
"310 302 LINE",
"140 379 LINE",
"213 299 LINE",
"213 323 LINE SMOOTH",
"213 365 OFFCURVE",
"241 388 OFFCURVE",
"290 388 CURVE SMOOTH",
"345 388 OFFCURVE",
"371 358 OFFCURVE",
"371 294 CURVE SMOOTH",
"371 0 LINE",
"557 0 LINE",
"557 299 LINE SMOOTH",
"557 457 OFFCURVE",
"475 528 OFFCURVE",
"294 528 CURVE SMOOTH",
"137 528 OFFCURVE",
"37 449 OFFCURVE",
"37 325 CURVE SMOOTH",
"37 310 LINE",
"147 269 LINE",
"147 265 LINE",
"85 242 OFFCURVE",
"56 206 OFFCURVE",
"56 150 CURVE SMOOTH",
"56 0 LINE"
);
}
);
userData = {
com.schriftgestaltung.Glyphs.glyph.rightMetricsKey = "khoKhwai-thai";
};
width = 620;
},
{
anchors = (
{
name = bottom;
position = "{441, 0}";
},
{
name = top;
position = "{431, 501}";
}
);
layerId = "90A34054-68E4-499D-AE50-276C7B026D8B";
paths = (
{
closed = 1;
nodes = (
"113 0 LINE",
"113 185 LINE SMOOTH",
"113 253 OFFCURVE",
"136 279 OFFCURVE",
"209 295 CURVE",
"211 315 LINE",
"76 357 LINE",
"87 342 LINE",
"87 349 LINE SMOOTH",
"87 433 OFFCURVE",
"153 485 OFFCURVE",
"258 485 CURVE SMOOTH",
"364 485 OFFCURVE",
"416 438 OFFCURVE",
"416 342 CURVE SMOOTH",
"416 0 LINE",
"441 0 LINE",
"441 347 LINE SMOOTH",
"441 451 OFFCURVE",
"376 508 OFFCURVE",
"258 508 CURVE SMOOTH",
"139 508 OFFCURVE",
"62 446 OFFCURVE",
"62 349 CURVE SMOOTH",
"62 339 LINE",
"178 307 LINE",
"178 304 LINE",
"113 286 OFFCURVE",
"88 252 OFFCURVE",
"88 185 CURVE SMOOTH",
"88 0 LINE"
);
}
);
width = 527;
},
{
anchors = (
{
name = bottom;
position = "{488, 0}";
},
{
name = top;
position = "{478, 506}";
}
);
hints = (
{
origin = "{0, 15}";
target = "{0, 16}";
type = Stem;
},
{
horizontal = 1;
origin = "{0, 20}";
target = "{0, 11}";
type = Stem;
},
{
horizontal = 1;
origin = "{0, 30}";
target = up;
type = BottomGhost;
},
{
origin = "{0, 30}";
target = "{0, 0}";
type = Stem;
}
);
layerId = "9148514D-BEB8-4275-B264-8F51401A425F";
paths = (
{
closed = 1;
nodes = (
"165 0 LINE",
"165 174 LINE SMOOTH",
"165 230 OFFCURVE",
"185 255 OFFCURVE",
"245 267 CURVE",
"251 318 LINE",
"98 374 LINE",
"134 325 LINE",
"134 339 LINE SMOOTH",
"134 407 OFFCURVE",
"186 448 OFFCURVE",
"269 448 CURVE SMOOTH",
"356 448 OFFCURVE",
"398 407 OFFCURVE",
"398 323 CURVE SMOOTH",
"398 0 LINE",
"488 0 LINE",
"488 324 LINE SMOOTH",
"488 452 OFFCURVE",
"416 516 OFFCURVE",
"271 516 CURVE SMOOTH",
"136 516 OFFCURVE",
"49 447 OFFCURVE",
"49 339 CURVE SMOOTH",
"49 327 LINE",
"165 292 LINE",
"165 288 LINE",
"102 268 OFFCURVE",
"75 233 OFFCURVE",
"75 171 CURVE SMOOTH",
"75 0 LINE"
);
}
);
width = 565;
},
{
anchors = (
{
name = bottom;
position = "{289, 0}";
},
{
name = top;
position = "{283, 501}";
}
);
layerId = "54E3FB14-E6D2-4DF3-BA4A-5621168F9335";
paths = (
{
closed = 1;
nodes = (
"79 0 LINE",
"79 185 LINE SMOOTH",
"79 249 OFFCURVE",
"93 279 OFFCURVE",
"139 295 CURVE",
"141 315 LINE",
"52 357 LINE",
"62 342 LINE",
"62 349 LINE SMOOTH",
"62 436 OFFCURVE",
"99 486 OFFCURVE",
"165 486 CURVE SMOOTH",
"229 486 OFFCURVE",
"264 438 OFFCURVE",
"264 351 CURVE SMOOTH",
"264 0 LINE",
"289 0 LINE",
"289 355 LINE SMOOTH",
"289 453 OFFCURVE",
"244 508 OFFCURVE",
"165 508 CURVE SMOOTH",
"84 508 OFFCURVE",
"38 450 OFFCURVE",
"38 349 CURVE SMOOTH",
"38 339 LINE",
"112 307 LINE",
"112 304 LINE",
"71 286 OFFCURVE",
"54 251 OFFCURVE",
"54 185 CURVE SMOOTH",
"54 0 LINE"
);
}
);
width = 343;
},
{
anchors = (
{
name = bottom;
position = "{435, 0}";
},
{
name = top;
position = "{429, 514}";
}
);
layerId = "E703E12A-5DA7-48FA-B69F-BB282FBD8E56";
paths = (
{
closed = 1;
nodes = (
"195 0 LINE",
"195 158 LINE SMOOTH",
"195 203 OFFCURVE",
"209 219 OFFCURVE",
"236 226 CURVE",
"245 303 LINE",
"113 380 LINE",
"174 299 LINE",
"174 323 LINE SMOOTH",
"174 366 OFFCURVE",
"192 388 OFFCURVE",
"225 388 CURVE SMOOTH",
"262 388 OFFCURVE",
"279 357 OFFCURVE",
"279 293 CURVE SMOOTH",
"279 0 LINE",
"435 0 LINE",
"435 298 LINE SMOOTH",
"435 457 OFFCURVE",
"371 528 OFFCURVE",
"228 528 CURVE SMOOTH",
"105 528 OFFCURVE",
"26 448 OFFCURVE",
"26 325 CURVE SMOOTH",
"26 310 LINE",
"109 269 LINE",
"109 265 LINE",
"62 242 OFFCURVE",
"39 205 OFFCURVE",
"39 150 CURVE SMOOTH",
"39 0 LINE"
);
}
);
userData = {
com.schriftgestaltung.Glyphs.glyph.rightMetricsKey = "khoKhwai-thai";
};
width = 475;
},
{
anchors = (
{
name = bottom;
position = "{346, 0}";
},
{
name = top;
position = "{340, 506}";
}
);
layerId = "94F80E8F-7C96-497F-B870-569C37B7A2A5";
paths = (
{
closed = 1;
nodes = (
"125 0 LINE",
"125 174 LINE SMOOTH",
"125 235 OFFCURVE",
"141 255 OFFCURVE",
"177 268 CURVE",
"182 310 LINE",
"76 366 LINE",
"106 325 LINE",
"106 339 LINE SMOOTH",
"106 409 OFFCURVE",
"136 449 OFFCURVE",
"188 449 CURVE SMOOTH",
"241 449 OFFCURVE",
"269 406 OFFCURVE",
"269 328 CURVE SMOOTH",
"269 0 LINE",
"346 0 LINE",
"346 333 LINE SMOOTH",
"346 454 OFFCURVE",
"294 516 OFFCURVE",
"190 516 CURVE SMOOTH",
"92 516 OFFCURVE",
"33 449 OFFCURVE",
"33 340 CURVE SMOOTH",
"33 328 LINE",
"111 292 LINE",
"111 289 LINE",
"68 268 OFFCURVE",
"48 232 OFFCURVE",
"48 171 CURVE SMOOTH",
"48 0 LINE"
);
}
);
width = 396;
}
);
note = "\012uni0E01\012";
rightKerningGroup = "koKai-thai";
unicode = 0E01;
},
{
glyphname = "khoKhai-thai";
lastChange = "2022-10-16 03:44:57 +0000";
layers = (
{
anchors = (
{
name = bottom;
position = "{379, 0}";
},
{
name = top;
position = "{379, 501}";
}
);
layerId = "90A34054-68E4-499D-AE50-276C7B026D8B";
paths = (
{
closed = 1;
nodes = (
"305 0 LINE SMOOTH",
"356 0 OFFCURVE",
"379 24 OFFCURVE",
"379 74 CURVE SMOOTH",
"379 501 LINE",
"354 501 LINE",
"354 79 LINE SMOOTH",
"354 39 OFFCURVE",
"337 23 OFFCURVE",
"299 23 CURVE SMOOTH",
"133 23 LINE",
"133 193 LINE SMOOTH",
"133 241 OFFCURVE",
"139 269 OFFCURVE",
"160 302 CURVE SMOOTH",
"192 353 OFFCURVE",
"202 383 OFFCURVE",
"202 423 CURVE SMOOTH",
"202 473 OFFCURVE",
"172 504 OFFCURVE",
"125 504 CURVE SMOOTH",
"80 504 OFFCURVE",
"49 475 OFFCURVE",
"49 431 CURVE SMOOTH",
"49 388 OFFCURVE",
"79 359 OFFCURVE",
"123 359 CURVE SMOOTH",
"163 359 OFFCURVE",
"188 386 OFFCURVE",
"188 431 CURVE",
"179 402 LINE",
"181 383 OFFCURVE",
"169 355 OFFCURVE",
"142 316 CURVE SMOOTH",
"117 279 OFFCURVE",
"108 256 OFFCURVE",
"108 194 CURVE SMOOTH",
"108 22 LINE",
"61 18 LINE",
"61 0 LINE"
);
},
{
closed = 1;
nodes = (
"93 379 OFFCURVE",
"72 400 OFFCURVE",
"72 431 CURVE SMOOTH",
"72 462 OFFCURVE",
"93 483 OFFCURVE",
"124 483 CURVE SMOOTH",
"156 483 OFFCURVE",
"177 462 OFFCURVE",
"177 431 CURVE SMOOTH",
"177 400 OFFCURVE",
"156 379 OFFCURVE",
"124 379 CURVE SMOOTH"
);
}
);
width = 470;
},
{
anchors = (
{
name = bottom;
position = "{509, 0}";
},
{
name = top;
position = "{509, 514}";
}
);
layerId = "EB3A5D6C-8260-43A6-9EF2-63971FC08D48";
paths = (
{
closed = 1;
nodes = (
"385 0 LINE SMOOTH",
"464 0 OFFCURVE",
"509 44 OFFCURVE",
"509 123 CURVE SMOOTH",
"509 514 LINE",
"327 514 LINE",
"327 158 LINE SMOOTH",
"327 144 OFFCURVE",
"318 134 OFFCURVE",
"303 134 CURVE SMOOTH",
"259 134 LINE",
"259 223 LINE SMOOTH",
"259 279 OFFCURVE",
"266 303 OFFCURVE",
"274 333 CURVE SMOOTH",
"281 360 OFFCURVE",
"285 385 OFFCURVE",
"285 409 CURVE SMOOTH",
"285 479 OFFCURVE",
"234 521 OFFCURVE",
"152 521 CURVE SMOOTH",
"67 521 OFFCURVE",
"14 480 OFFCURVE",
"14 412 CURVE SMOOTH",
"14 350 OFFCURVE",
"56 312 OFFCURVE",
"122 312 CURVE SMOOTH",
"170 312 OFFCURVE",
"205 342 OFFCURVE",
"205 383 CURVE",
"154 359 LINE",
"171 342 OFFCURVE",
"168 327 OFFCURVE",
"147 315 CURVE SMOOTH",
"95 284 OFFCURVE",
"77 264 OFFCURVE",
"77 204 CURVE SMOOTH",
"77 127 LINE",
"42 103 LINE",
"42 0 LINE"
);
},
{
closed = 1;
nodes = (
"116 377 OFFCURVE",
"101 389 OFFCURVE",
"101 411 CURVE SMOOTH",
"101 433 OFFCURVE",
"115 445 OFFCURVE",
"138 445 CURVE SMOOTH",
"161 445 OFFCURVE",
"175 433 OFFCURVE",
"175 411 CURVE SMOOTH",
"175 389 OFFCURVE",
"161 377 OFFCURVE",
"138 377 CURVE SMOOTH"
);
}
);
userData = {
com.schriftgestaltung.Glyphs.glyph.rightMetricsKey = "boBaimai-thai";
};
width = 574;
},
{
anchors = (
{
name = bottom;
position = "{431, 0}";
},
{
name = top;
position = "{431, 506}";
}
);
hints = (
{
horizontal = 1;
origin = "{0, 5}";
target = down;
type = TopGhost;
},
{
origin = "{0, 6}";
target = "{0, 3}";
type = Stem;
},
{
horizontal = 1;
origin = "{0, 20}";
target = "{1, 5}";
type = Stem;
},
{
origin = "{0, 37}";
target = "{0, 10}";
type = Stem;
},
{
horizontal = 1;
origin = "{0, 39}";
target = "{0, 10}";
type = Stem;
}
);
layerId = "9148514D-BEB8-4275-B264-8F51401A425F";
paths = (
{
closed = 1;
nodes = (
"337 0 LINE SMOOTH",
"399 0 OFFCURVE",
"431 32 OFFCURVE",
"431 94 CURVE SMOOTH",
"431 506 LINE",
"341 506 LINE",
"341 108 LINE SMOOTH",
"341 78 OFFCURVE",
"329 65 OFFCURVE",
"301 65 CURVE SMOOTH",
"185 65 LINE",
"185 205 LINE SMOOTH",
"185 257 OFFCURVE",
"191 286 OFFCURVE",
"212 329 CURVE SMOOTH",
"230 366 OFFCURVE",
"235 390 OFFCURVE",
"235 415 CURVE SMOOTH",
"235 477 OFFCURVE",
"198 511 OFFCURVE",
"134 511 CURVE SMOOTH",
"73 511 OFFCURVE",
"35 477 OFFCURVE",
"35 423 CURVE SMOOTH",
"35 372 OFFCURVE",
"70 340 OFFCURVE",
"123 340 CURVE SMOOTH",
"167 340 OFFCURVE",
"194 369 OFFCURVE",
"194 412 CURVE",
"169 385 LINE",
"171 366 OFFCURVE",
"154 339 OFFCURVE",
"135 315 CURVE SMOOTH",
"103 274 OFFCURVE",
"95 257 OFFCURVE",
"95 215 CURVE SMOOTH",
"95 64 LINE",
"53 51 LINE",
"53 0 LINE"
);
},
{
closed = 1;
nodes = (
"105 383 OFFCURVE",
"90 398 OFFCURVE",
"90 422 CURVE SMOOTH",
"90 446 OFFCURVE",
"105 461 OFFCURVE",
"130 461 CURVE SMOOTH",
"155 461 OFFCURVE",
"170 447 OFFCURVE",
"170 422 CURVE SMOOTH",
"170 398 OFFCURVE",
"155 383 OFFCURVE",
"130 383 CURVE SMOOTH"
);
}
);
width = 511;
},
{
anchors = (
{
name = bottom;
position = "{251, 0}";
},
{
name = top;
position = "{251, 501}";
}
);
layerId = "54E3FB14-E6D2-4DF3-BA4A-5621168F9335";
paths = (
{
closed = 1;
nodes = (
"192 0 LINE SMOOTH",
"233 0 OFFCURVE",
"251 20 OFFCURVE",
"251 66 CURVE SMOOTH",
"251 501 LINE",
"226 501 LINE",
"226 69 LINE SMOOTH",
"226 34 OFFCURVE",
"217 22 OFFCURVE",
"187 22 CURVE SMOOTH",
"93 22 LINE",
"93 193 LINE SMOOTH",
"93 245 OFFCURVE",
"97 271 OFFCURVE",
"109 302 CURVE SMOOTH",
"128 350 OFFCURVE",
"134 374 OFFCURVE",
"134 423 CURVE SMOOTH",
"134 476 OFFCURVE",
"117 504 OFFCURVE",
"82 504 CURVE SMOOTH",
"49 504 OFFCURVE",
"30 478 OFFCURVE",
"30 431 CURVE SMOOTH",
"30 385 OFFCURVE",
"49 359 OFFCURVE",
"80 359 CURVE SMOOTH",
"105 359 OFFCURVE",
"122 386 OFFCURVE",
"122 431 CURVE",
"118 431 LINE",
"120 394 OFFCURVE",
"112 362 OFFCURVE",
"91 316 CURVE SMOOTH",
"73 276 OFFCURVE",
"68 250 OFFCURVE",
"68 193 CURVE SMOOTH",
"68 22 LINE",
"38 18 LINE",
"38 0 LINE"
);
},
{
closed = 1;
nodes = (
"62 379 OFFCURVE",
"52 397 OFFCURVE",
"52 431 CURVE SMOOTH",
"52 465 OFFCURVE",
"62 484 OFFCURVE",
"80 484 CURVE SMOOTH",
"98 484 OFFCURVE",
"108 464 OFFCURVE",
"108 431 CURVE SMOOTH",
"108 398 OFFCURVE",
"98 379 OFFCURVE",
"80 379 CURVE SMOOTH"
);
}
);
width = 307;
},
{
anchors = (
{
name = bottom;
position = "{400, 0}";
},
{
name = top;
position = "{400, 514}";
}
);
layerId = "E703E12A-5DA7-48FA-B69F-BB282FBD8E56";
paths = (
{
closed = 1;
nodes = (
"292 0 LINE SMOOTH",
"363 0 OFFCURVE",
"400 43 OFFCURVE",
"400 124 CURVE SMOOTH",
"400 514 LINE",
"247 514 LINE",
"247 160 LINE SMOOTH",
"247 144 OFFCURVE",
"239 135 OFFCURVE",
"222 135 CURVE SMOOTH",
"209 135 LINE",
"209 223 LINE SMOOTH",
"209 271 OFFCURVE",
"210 296 OFFCURVE",
"218 334 CURVE SMOOTH",
"224 364 OFFCURVE",
"224 385 OFFCURVE",
"224 409 CURVE SMOOTH",
"224 478 OFFCURVE",
"183 521 OFFCURVE",
"119 521 CURVE SMOOTH",
"51 521 OFFCURVE",
"8 480 OFFCURVE",
"8 412 CURVE SMOOTH",
"8 350 OFFCURVE",
"41 312 OFFCURVE",
"94 312 CURVE SMOOTH",
"131 312 OFFCURVE",
"156 340 OFFCURVE",
"156 383 CURVE",
"115 354 LINE",
"132 337 OFFCURVE",
"127 324 OFFCURVE",
"113 314 CURVE SMOOTH",
"74 286 OFFCURVE",
"56 264 OFFCURVE",
"56 206 CURVE SMOOTH",
"56 127 LINE",
"30 103 LINE",
"30 0 LINE"
);
},
{
closed = 1;
nodes = (
"90 377 OFFCURVE",
"78 390 OFFCURVE",
"78 411 CURVE SMOOTH",
"78 432 OFFCURVE",
"90 444 OFFCURVE",
"107 444 CURVE SMOOTH",
"124 444 OFFCURVE",
"135 431 OFFCURVE",
"135 411 CURVE SMOOTH",
"135 391 OFFCURVE",
"124 377 OFFCURVE",
"107 377 CURVE SMOOTH"
);
}
);
userData = {
com.schriftgestaltung.Glyphs.glyph.rightMetricsKey = "boBaimai-thai";
};
width = 442;
},
{
anchors = (
{
name = bottom;
position = "{310, 0}";
},
{
name = top;
position = "{310, 506}";
}
);
layerId = "94F80E8F-7C96-497F-B870-569C37B7A2A5";
paths = (
{
closed = 1;
nodes = (
"234 0 LINE SMOOTH",
"285 0 OFFCURVE",
"310 30 OFFCURVE",
"310 89 CURVE SMOOTH",
"310 506 LINE",
"233 506 LINE",
"233 102 LINE SMOOTH",
"233 75 OFFCURVE",
"225 64 OFFCURVE",
"204 64 CURVE SMOOTH",
"140 64 LINE",
"140 206 LINE SMOOTH",
"140 255 OFFCURVE",
"143 284 OFFCURVE",
"153 316 CURVE SMOOTH",
"165 355 OFFCURVE",
"169 379 OFFCURVE",
"169 418 CURVE SMOOTH",
"169 476 OFFCURVE",
"143 512 OFFCURVE",
"97 512 CURVE SMOOTH",
"50 512 OFFCURVE",
"21 480 OFFCURVE",
"21 425 CURVE SMOOTH",
"21 372 OFFCURVE",
"46 341 OFFCURVE",
"85 341 CURVE SMOOTH",
"116 341 OFFCURVE",
"136 369 OFFCURVE",
"136 413 CURVE",
"124 410 LINE",
"126 375 OFFCURVE",
"122 359 OFFCURVE",
"94 315 CURVE SMOOTH",
"70 277 OFFCURVE",
"63 257 OFFCURVE",
"63 199 CURVE SMOOTH",
"63 63 LINE",
"36 51 LINE",
"36 0 LINE"
);
},
{
closed = 1;
nodes = (
"74 380 OFFCURVE",
"64 396 OFFCURVE",
"64 425 CURVE SMOOTH",
"64 452 OFFCURVE",
"73 469 OFFCURVE",
"90 469 CURVE SMOOTH",
"106 469 OFFCURVE",
"116 453 OFFCURVE",
"116 425 CURVE SMOOTH",
"116 396 OFFCURVE",
"106 380 OFFCURVE",
"90 380 CURVE SMOOTH"
);
}
);
width = 360;
}
);
leftKerningGroup = "khoKhai-thai";
note = "\012uni0E02\012";
rightMetricsKey = "boBaimai-thai";
unicode = 0E02;
},
{
glyphname = "khoKhuat-thai";
lastChange = "2022-10-16 03:44:57 +0000";
layers = (
{
anchors = (
{
name = bottom;
position = "{532, 0}";
},
{
name = top;
position = "{532, 514}";
}
);
layerId = "EB3A5D6C-8260-43A6-9EF2-63971FC08D48";
paths = (
{
closed = 1;
nodes = (
"409 0 LINE SMOOTH",
"488 0 OFFCURVE",
"532 44 OFFCURVE",
"532 123 CURVE SMOOTH",
"532 514 LINE",
"350 514 LINE",
"350 158 LINE SMOOTH",
"350 144 OFFCURVE",
"341 134 OFFCURVE",
"326 134 CURVE SMOOTH",
"266 134 LINE",
"266 199 LINE SMOOTH",
"266 234 OFFCURVE",
"270 256 OFFCURVE",
"279 281 CURVE SMOOTH",
"300 337 OFFCURVE",
"309 378 OFFCURVE",
"309 423 CURVE SMOOTH",
"309 514 LINE",
"226 514 LINE",
"221 468 OFFCURVE",
"212 431 OFFCURVE",
"199 405 CURVE",
"200 390 LINE",
"210 402 OFFCURVE",
"215 418 OFFCURVE",
"215 432 CURVE SMOOTH",
"215 486 OFFCURVE",
"173 523 OFFCURVE",
"112 523 CURVE SMOOTH",
"44 523 OFFCURVE",
"1 485 OFFCURVE",
"1 422 CURVE SMOOTH",
"1 362 OFFCURVE",
"46 321 OFFCURVE",
"113 321 CURVE SMOOTH",
"137 321 OFFCURVE",
"161 330 OFFCURVE",
"179 345 CURVE",
"182 343 LINE",
"176 338 OFFCURVE",
"173 336 OFFCURVE",
"140 313 CURVE SMOOTH",
"102 286 OFFCURVE",
"84 249 OFFCURVE",
"84 192 CURVE SMOOTH",
"84 127 LINE",
"39 103 LINE",
"39 0 LINE"
);
},
{
closed = 1;
nodes = (
"92 388 OFFCURVE",
"77 400 OFFCURVE",
"77 422 CURVE SMOOTH",
"77 444 OFFCURVE",
"91 456 OFFCURVE",
"114 456 CURVE SMOOTH",
"137 456 OFFCURVE",
"152 444 OFFCURVE",
"152 422 CURVE SMOOTH",
"152 400 OFFCURVE",
"137 388 OFFCURVE",
"114 388 CURVE SMOOTH"
);
}
);
userData = {
com.schriftgestaltung.Glyphs.glyph.leftMetricsKey = "soSo-thai";
com.schriftgestaltung.Glyphs.glyph.rightMetricsKey = "boBaimai-thai";
};
width = 597;
},
{
anchors = (
{
name = bottom;
position = "{390, 0}";
},
{
name = top;
position = "{390, 501}";
}
);
layerId = "90A34054-68E4-499D-AE50-276C7B026D8B";
paths = (
{
closed = 1;
nodes = (
"316 0 LINE SMOOTH",
"366 0 OFFCURVE",
"390 24 OFFCURVE",
"390 75 CURVE SMOOTH",
"390 501 LINE",
"365 501 LINE",
"365 79 LINE SMOOTH",
"365 39 OFFCURVE",
"349 23 OFFCURVE",
"310 23 CURVE SMOOTH",
"144 23 LINE",
"144 184 LINE SMOOTH",
"144 248 OFFCURVE",
"151 263 OFFCURVE",
"197 317 CURVE SMOOTH",
"233 360 OFFCURVE",
"244 396 OFFCURVE",
"244 467 CURVE SMOOTH",
"244 501 LINE",
"225 501 LINE",
"216 446 OFFCURVE",
"173 392 OFFCURVE",
"143 389 CURVE",
"143 380 LINE",
"161 393 OFFCURVE",
"171 413 OFFCURVE",
"171 435 CURVE SMOOTH",
"171 476 OFFCURVE",
"141 504 OFFCURVE",
"98 504 CURVE SMOOTH",
"54 504 OFFCURVE",
"24 475 OFFCURVE",
"24 431 CURVE SMOOTH",
"24 389 OFFCURVE",
"55 360 OFFCURVE",
"104 360 CURVE SMOOTH",
"156 360 OFFCURVE",
"205 396 OFFCURVE",
"223 447 CURVE",
"225 447 LINE",
"221 390 OFFCURVE",
"213 371 OFFCURVE",
"179 331 CURVE SMOOTH",
"128 271 OFFCURVE",
"119 248 OFFCURVE",
"119 184 CURVE SMOOTH",
"119 22 LINE",
"72 18 LINE",
"72 0 LINE"
);
},
{
closed = 1;
nodes = (
"67 379 OFFCURVE",
"47 400 OFFCURVE",
"47 431 CURVE SMOOTH",
"47 463 OFFCURVE",
"67 483 OFFCURVE",
"98 483 CURVE SMOOTH",
"130 483 OFFCURVE",
"150 462 OFFCURVE",
"150 431 CURVE SMOOTH",
"150 400 OFFCURVE",
"130 379 OFFCURVE",
"98 379 CURVE SMOOTH"
);
}
);
width = 481;
},
{
anchors = (
{
name = bottom;
position = "{447, 0}";
},
{
name = top;
position = "{447, 506}";
}
);
hints = (
{
horizontal = 1;
origin = "{0, 5}";
target = down;
type = TopGhost;
},
{
origin = "{0, 6}";
target = "{0, 3}";
type = Stem;
},
{
horizontal = 1;
origin = "{0, 29}";
target = "{1, 5}";
type = Stem;
},
{
origin = "{0, 46}";
target = "{0, 10}";
type = Stem;
},
{
horizontal = 1;
origin = "{0, 48}";
target = "{0, 10}";
type = Stem;
}
);
layerId = "9148514D-BEB8-4275-B264-8F51401A425F";
paths = (
{
closed = 1;
nodes = (
"354 0 LINE SMOOTH",
"415 0 OFFCURVE",
"447 32 OFFCURVE",
"447 94 CURVE SMOOTH",
"447 506 LINE",
"357 506 LINE",
"357 108 LINE SMOOTH",
"357 78 OFFCURVE",
"345 65 OFFCURVE",
"316 65 CURVE SMOOTH",
"193 65 LINE",
"193 198 LINE SMOOTH",
"193 233 OFFCURVE",
"201 257 OFFCURVE",
"233 303 CURVE SMOOTH",
"261 344 OFFCURVE",
"270 380 OFFCURVE",
"270 449 CURVE SMOOTH",
"270 506 LINE",
"222 506 LINE",
"216 465 OFFCURVE",
"191 417 OFFCURVE",
"162 395 CURVE",
"166 384 LINE",
"181 396 OFFCURVE",
"189 415 OFFCURVE",
"189 434 CURVE SMOOTH",
"189 480 OFFCURVE",
"154 512 OFFCURVE",
"104 512 CURVE SMOOTH",
"50 512 OFFCURVE",
"15 479 OFFCURVE",
"15 427 CURVE SMOOTH",
"15 377 OFFCURVE",
"51 344 OFFCURVE",
"108 344 CURVE SMOOTH",
"147 344 OFFCURVE",
"186 369 OFFCURVE",
"205 406 CURVE",
"208 405 LINE",
"201 369 OFFCURVE",
"196 361 OFFCURVE",
"164 324 CURVE SMOOTH",
"117 269 OFFCURVE",
"105 243 OFFCURVE",
"105 197 CURVE SMOOTH",
"105 64 LINE",
"59 51 LINE",
"59 0 LINE"
);
},
{
closed = 1;
nodes = (
"79 388 OFFCURVE",
"64 403 OFFCURVE",
"64 427 CURVE SMOOTH",
"64 451 OFFCURVE",
"79 466 OFFCURVE",
"104 466 CURVE SMOOTH",
"129 466 OFFCURVE",
"144 452 OFFCURVE",
"144 427 CURVE SMOOTH",
"144 403 OFFCURVE",
"129 388 OFFCURVE",
"104 388 CURVE SMOOTH"
);
}
);
width = 527;
},
{
anchors = (
{
name = bottom;
position = "{258, 0}";
},
{
name = top;
position = "{258, 501}";
}
);
layerId = "54E3FB14-E6D2-4DF3-BA4A-5621168F9335";
paths = (
{
closed = 1;
nodes = (
"199 0 LINE SMOOTH",
"240 0 OFFCURVE",
"258 21 OFFCURVE",
"258 66 CURVE SMOOTH",
"258 501 LINE",
"233 501 LINE",
"233 69 LINE SMOOTH",
"233 34 OFFCURVE",
"224 22 OFFCURVE",
"194 22 CURVE SMOOTH",
"100 22 LINE",
"100 184 LINE SMOOTH",
"100 239 OFFCURVE",
"105 268 OFFCURVE",
"131 319 CURVE SMOOTH",
"155 367 OFFCURVE",
"159 383 OFFCURVE",
"159 453 CURVE SMOOTH",
"159 501 LINE",
"142 501 LINE",
"137 454 OFFCURVE",
"116 403 OFFCURVE",
"94 389 CURVE",
"95 380 LINE",
"106 393 OFFCURVE",
"112 413 OFFCURVE",
"112 435 CURVE SMOOTH",
"112 479 OFFCURVE",
"95 504 OFFCURVE",
"64 504 CURVE SMOOTH",
"33 504 OFFCURVE",
"14 478 OFFCURVE",
"14 431 CURVE SMOOTH",
"14 386 OFFCURVE",
"33 360 OFFCURVE",
"66 360 CURVE SMOOTH",
"96 360 OFFCURVE",
"128 392 OFFCURVE",
"141 438 CURVE",
"142 438 LINE",
"139 389 OFFCURVE",
"133 369 OFFCURVE",
"113 331 CURVE SMOOTH",
"81 270 OFFCURVE",
"75 242 OFFCURVE",
"75 184 CURVE SMOOTH",
"75 22 LINE",
"44 18 LINE",
"44 0 LINE"
);
},
{
closed = 1;
nodes = (
"46 379 OFFCURVE",
"36 397 OFFCURVE",
"36 431 CURVE SMOOTH",
"36 465 OFFCURVE",
"46 484 OFFCURVE",
"64 484 CURVE SMOOTH",
"82 484 OFFCURVE",
"92 464 OFFCURVE",
"92 431 CURVE SMOOTH",
"92 398 OFFCURVE",
"82 379 OFFCURVE",
"64 379 CURVE SMOOTH"
);
}
);
width = 314;
},
{
anchors = (
{
name = bottom;
position = "{420, 0}";
},
{
name = top;
position = "{420, 514}";
}
);
layerId = "E703E12A-5DA7-48FA-B69F-BB282FBD8E56";
paths = (
{
closed = 1;
nodes = (
"322 0 LINE SMOOTH",
"384 0 OFFCURVE",
"420 45 OFFCURVE",
"420 124 CURVE SMOOTH",
"420 514 LINE",
"267 514 LINE",
"267 160 LINE SMOOTH",
"267 144 OFFCURVE",
"259 135 OFFCURVE",
"242 135 CURVE SMOOTH",
"214 135 LINE",
"214 200 LINE SMOOTH",
"214 233 OFFCURVE",
"216 262 OFFCURVE",
"220 280 CURVE SMOOTH",
"241 369 OFFCURVE",
"242 380 OFFCURVE",
"242 425 CURVE SMOOTH",
"242 514 LINE",
"174 514 LINE",
"169 453 OFFCURVE",
"165 426 OFFCURVE",
"159 404 CURVE",
"159 390 LINE",
"166 402 OFFCURVE",
"169 418 OFFCURVE",
"169 432 CURVE SMOOTH",
"169 485 OFFCURVE",
"135 523 OFFCURVE",
"86 523 CURVE SMOOTH",
"34 523 OFFCURVE",
"0 484 OFFCURVE",
"0 423 CURVE SMOOTH",
"0 364 OFFCURVE",
"33 321 OFFCURVE",
"80 321 CURVE SMOOTH",
"100 321 OFFCURVE",
"119 329 OFFCURVE",
"134 346 CURVE",
"136 344 LINE",
"131 339 OFFCURVE",
"123 331 OFFCURVE",
"105 314 CURVE SMOOTH",
"75 285 OFFCURVE",
"63 247 OFFCURVE",
"63 193 CURVE SMOOTH",
"63 127 LINE",
"28 103 LINE",
"28 0 LINE"
);
},
{
closed = 1;
nodes = (
"72 389 OFFCURVE",
"61 402 OFFCURVE",
"61 422 CURVE SMOOTH",
"61 442 OFFCURVE",
"72 456 OFFCURVE",
"90 456 CURVE SMOOTH",
"107 456 OFFCURVE",
"118 442 OFFCURVE",
"118 422 CURVE SMOOTH",
"118 402 OFFCURVE",
"107 389 OFFCURVE",
"90 389 CURVE SMOOTH"
);
}
);
userData = {
com.schriftgestaltung.Glyphs.glyph.leftMetricsKey = "soSo-thai";
com.schriftgestaltung.Glyphs.glyph.rightMetricsKey = "boBaimai-thai";
};
width = 462;
},
{
anchors = (
{
name = bottom;
position = "{321, 0}";
},
{
name = top;
position = "{321, 506}";
}
);
layerId = "94F80E8F-7C96-497F-B870-569C37B7A2A5";
paths = (
{
closed = 1;
nodes = (
"247 0 LINE SMOOTH",
"297 0 OFFCURVE",
"321 30 OFFCURVE",
"321 89 CURVE SMOOTH",
"321 506 LINE",
"244 506 LINE",
"244 102 LINE SMOOTH",
"244 75 OFFCURVE",
"237 64 OFFCURVE",
"216 64 CURVE SMOOTH",
"147 64 LINE",
"147 191 LINE SMOOTH",
"147 242 OFFCURVE",
"150 266 OFFCURVE",
"166 305 CURVE SMOOTH",
"188 358 OFFCURVE",
"192 388 OFFCURVE",
"192 443 CURVE SMOOTH",
"192 506 LINE",
"155 506 LINE",
"149 458 OFFCURVE",
"137 430 OFFCURVE",
"115 406 CURVE",
"120 384 LINE",
"129 397 OFFCURVE",
"134 415 OFFCURVE",
"134 435 CURVE SMOOTH",
"134 483 OFFCURVE",
"111 512 OFFCURVE",
"72 512 CURVE SMOOTH",
"33 512 OFFCURVE",
"8 481 OFFCURVE",
"8 428 CURVE SMOOTH",
"8 378 OFFCURVE",
"33 346 OFFCURVE",
"75 346 CURVE SMOOTH",
"98 346 OFFCURVE",
"122 368 OFFCURVE",
"138 403 CURVE",
"139 402 LINE",
"135 369 OFFCURVE",
"132 360 OFFCURVE",
"109 325 CURVE SMOOTH",
"82 283 OFFCURVE",
"70 249 OFFCURVE",
"70 189 CURVE SMOOTH",
"70 63 LINE",
"38 51 LINE",
"38 0 LINE"
);
},
{
closed = 1;
nodes = (
"58 384 OFFCURVE",
"49 400 OFFCURVE",
"49 428 CURVE SMOOTH",
"49 456 OFFCURVE",
"58 473 OFFCURVE",
"74 473 CURVE SMOOTH",
"91 473 OFFCURVE",
"100 456 OFFCURVE",
"100 428 CURVE SMOOTH",
"100 400 OFFCURVE",
"91 384 OFFCURVE",
"74 384 CURVE SMOOTH"
);
}
);
width = 371;
}
);
leftKerningGroup = "khoKhai-thai";
rightMetricsKey = "boBaimai-thai";
unicode = 0E03;
},
{
glyphname = "khoKhwai-thai";
lastChange = "2022-10-16 03:44:57 +0000";
layers = (
{
anchors = (
{
name = bottom;
position = "{580, 0}";
},
{
name = top;
position = "{570, 514}";
}
);
layerId = "EB3A5D6C-8260-43A6-9EF2-63971FC08D48";
paths = (
{
closed = 1;
nodes = (
"249 0 LINE",
"249 35 LINE SMOOTH",
"249 90 OFFCURVE",
"252 112 OFFCURVE",
"281 150 CURVE",
"262 222 LINE",
"242 217 OFFCURVE",
"233 202 OFFCURVE",
"233 181 CURVE SMOOTH",
"233 152 OFFCURVE",
"275 127 OFFCURVE",
"321 127 CURVE SMOOTH",
"384 127 OFFCURVE",
"423 165 OFFCURVE",
"423 230 CURVE SMOOTH",
"423 296 OFFCURVE",
"386 332 OFFCURVE",
"320 332 CURVE SMOOTH",
"262 332 OFFCURVE",
"228 299 OFFCURVE",
"203 224 CURVE",
"200 224 LINE",
"204 235 OFFCURVE",
"206 244 OFFCURVE",
"206 289 CURVE SMOOTH",
"206 306 LINE SMOOTH",
"206 358 OFFCURVE",
"242 391 OFFCURVE",
"302 391 CURVE SMOOTH",
"364 391 OFFCURVE",
"399 357 OFFCURVE",
"399 300 CURVE SMOOTH",
"399 0 LINE",
"580 0 LINE",
"580 302 LINE SMOOTH",
"580 449 OFFCURVE",
"488 528 OFFCURVE",
"315 528 CURVE SMOOTH",
"146 528 OFFCURVE",
"44 442 OFFCURVE",
"44 298 CURVE SMOOTH",
"44 206 OFFCURVE",
"71 160 OFFCURVE",
"71 60 CURVE SMOOTH",
"71 0 LINE"
);
},
{
closed = 1;
nodes = (
"298 199 OFFCURVE",
"287 210 OFFCURVE",
"287 230 CURVE SMOOTH",
"287 249 OFFCURVE",
"298 261 OFFCURVE",
"320 261 CURVE SMOOTH",
"341 261 OFFCURVE",
"353 249 OFFCURVE",
"353 230 CURVE SMOOTH",
"353 210 OFFCURVE",
"341 199 OFFCURVE",
"320 199 CURVE SMOOTH"
);
}
);
width = 643;
},
{
anchors = (
{
name = bottom;
position = "{456, 0}";
},
{
name = top;
position = "{446, 501}";
}
);
layerId = "90A34054-68E4-499D-AE50-276C7B026D8B";
paths = (
{
closed = 1;
nodes = (
"117 0 LINE",
"117 79 LINE SMOOTH",
"117 199 OFFCURVE",
"186 283 OFFCURVE",
"218 290 CURVE",
"220 297 LINE",
"204 289 OFFCURVE",
"196 271 OFFCURVE",
"196 252 CURVE SMOOTH",
"196 211 OFFCURVE",
"224 180 OFFCURVE",
"268 180 CURVE SMOOTH",
"313 180 OFFCURVE",
"342 213 OFFCURVE",
"342 254 CURVE SMOOTH",
"342 295 OFFCURVE",
"312 327 OFFCURVE",
"267 327 CURVE SMOOTH",
"200 327 OFFCURVE",
"125 255 OFFCURVE",
"107 155 CURVE",
"105 155 LINE",
"105 193 OFFCURVE",
"93 227 OFFCURVE",
"93 299 CURVE SMOOTH",
"93 311 LINE SMOOTH",
"93 423 OFFCURVE",
"160 485 OFFCURVE",
"267 485 CURVE SMOOTH",
"369 485 OFFCURVE",
"431 431 OFFCURVE",
"431 328 CURVE SMOOTH",
"431 0 LINE",
"456 0 LINE",
"456 332 LINE SMOOTH",
"456 443 OFFCURVE",
"387 508 OFFCURVE",
"267 508 CURVE SMOOTH",
"136 508 OFFCURVE",
"68 433 OFFCURVE",
"68 304 CURVE SMOOTH",
"68 213 OFFCURVE",
"92 155 OFFCURVE",
"92 70 CURVE SMOOTH",
"92 0 LINE"
);
},
{
closed = 1;
nodes = (
"237 201 OFFCURVE",
"216 222 OFFCURVE",
"216 254 CURVE SMOOTH",
"216 285 OFFCURVE",
"236 306 OFFCURVE",
"268 306 CURVE SMOOTH",
"299 306 OFFCURVE",
"319 285 OFFCURVE",
"319 254 CURVE SMOOTH",
"319 222 OFFCURVE",
"299 201 OFFCURVE",
"268 201 CURVE SMOOTH"
);
}
);
width = 542;
},
{
anchors = (
{
name = bottom;
position = "{506, 0}";
},
{
name = top;
position = "{496, 506}";
}
);
hints = (
{
origin = "{0, 32}";
target = "{0, 33}";
type = Stem;
},
{
horizontal = 1;
origin = "{0, 37}";
target = "{0, 28}";
type = Stem;
},
{
origin = "{0, 40}";
target = "{0, 24}";
type = Stem;
},
{
horizontal = 1;
origin = "{0, 44}";
target = up;
type = BottomGhost;
}
);
layerId = "9148514D-BEB8-4275-B264-8F51401A425F";
paths = (
{
closed = 1;
nodes = (
"170 0 LINE",
"170 61 LINE SMOOTH",
"170 135 OFFCURVE",
"201 206 OFFCURVE",
"243 234 CURVE",
"237 267 LINE",
"222 261 OFFCURVE",
"210 246 OFFCURVE",
"210 223 CURVE SMOOTH",
"210 188 OFFCURVE",
"245 159 OFFCURVE",
"290 159 CURVE SMOOTH",
"345 159 OFFCURVE",
"382 193 OFFCURVE",
"382 244 CURVE SMOOTH",
"382 296 OFFCURVE",
"345 329 OFFCURVE",
"288 329 CURVE SMOOTH",
"219 329 OFFCURVE",
"167 275 OFFCURVE",
"146 183 CURVE",
"143 183 LINE",
"143 221 OFFCURVE",
"137 260 OFFCURVE",
"137 299 CURVE SMOOTH",
"137 307 LINE SMOOTH",
"137 395 OFFCURVE",
"192 448 OFFCURVE",
"282 448 CURVE SMOOTH",
"367 448 OFFCURVE",
"416 401 OFFCURVE",
"416 310 CURVE SMOOTH",
"416 0 LINE",
"506 0 LINE",
"506 311 LINE SMOOTH",
"506 444 OFFCURVE",
"425 516 OFFCURVE",
"283 516 CURVE SMOOTH",
"136 516 OFFCURVE",
"53 436 OFFCURVE",
"53 302 CURVE SMOOTH",
"53 210 OFFCURVE",
"84 157 OFFCURVE",
"84 66 CURVE SMOOTH",
"84 0 LINE"
);
},
{
closed = 1;
nodes = (
"264 205 OFFCURVE",
"249 220 OFFCURVE",
"249 244 CURVE SMOOTH",
"249 267 OFFCURVE",
"263 282 OFFCURVE",
"288 282 CURVE SMOOTH",
"313 282 OFFCURVE",
"328 268 OFFCURVE",
"328 244 CURVE SMOOTH",
"328 220 OFFCURVE",
"314 205 OFFCURVE",
"289 205 CURVE SMOOTH"
);
}
);
width = 583;
},
{
anchors = (
{
name = bottom;
position = "{299, 0}";
},
{
name = top;
position = "{293, 501}";
}
);
layerId = "54E3FB14-E6D2-4DF3-BA4A-5621168F9335";
paths = (
{
closed = 1;
nodes = (
"82 0 LINE",
"82 79 LINE SMOOTH",
"82 166 OFFCURVE",
"108 256 OFFCURVE",
"143 289 CURVE",
"144 297 LINE",
"134 289 OFFCURVE",
"128 272 OFFCURVE",
"128 252 CURVE SMOOTH",
"128 207 OFFCURVE",
"145 180 OFFCURVE",
"175 180 CURVE SMOOTH",
"206 180 OFFCURVE",
"225 207 OFFCURVE",
"225 254 CURVE SMOOTH",
"225 301 OFFCURVE",
"206 327 OFFCURVE",
"174 327 CURVE SMOOTH",
"130 327 OFFCURVE",
"89 264 OFFCURVE",
"73 155 CURVE",
"72 155 LINE",
"72 193 OFFCURVE",
"65 228 OFFCURVE",
"65 299 CURVE SMOOTH",
"65 311 LINE SMOOTH",
"65 421 OFFCURVE",
"100 486 OFFCURVE",
"173 486 CURVE SMOOTH",
"245 486 OFFCURVE",
"274 431 OFFCURVE",
"274 331 CURVE SMOOTH",
"274 0 LINE",
"299 0 LINE",
"299 331 LINE SMOOTH",
"299 443 OFFCURVE",
"264 508 OFFCURVE",
"173 508 CURVE SMOOTH",
"80 508 OFFCURVE",
"42 433 OFFCURVE",
"42 304 CURVE SMOOTH",
"42 213 OFFCURVE",
"58 155 OFFCURVE",
"58 70 CURVE SMOOTH",
"58 0 LINE"
);
},
{
closed = 1;
nodes = (
"157 201 OFFCURVE",
"147 220 OFFCURVE",
"147 254 CURVE SMOOTH",
"147 287 OFFCURVE",
"157 306 OFFCURVE",
"175 306 CURVE SMOOTH",
"193 306 OFFCURVE",
"203 287 OFFCURVE",
"203 254 CURVE SMOOTH",
"203 220 OFFCURVE",
"193 201 OFFCURVE",
"175 201 CURVE SMOOTH"
);
}
);
width = 353;
},
{
anchors = (
{
name = bottom;
position = "{454, 0}";
},
{
name = top;
position = "{448, 514}";
}
);
layerId = "E703E12A-5DA7-48FA-B69F-BB282FBD8E56";
paths = (
{
closed = 1;
nodes = (
"202 0 LINE",
"202 35 LINE SMOOTH",
"202 107 OFFCURVE",
"203 120 OFFCURVE",
"221 149 CURVE",
"205 221 LINE",
"190 217 OFFCURVE",
"181 203 OFFCURVE",
"181 181 CURVE SMOOTH",
"181 154 OFFCURVE",
"214 127 OFFCURVE",
"250 127 CURVE SMOOTH",
"299 127 OFFCURVE",
"330 166 OFFCURVE",
"330 230 CURVE SMOOTH",
"330 295 OFFCURVE",
"301 332 OFFCURVE",
"249 332 CURVE SMOOTH",
"200 332 OFFCURVE",
"176 300 OFFCURVE",
"164 224 CURVE",
"158 224 LINE",
"163 238 OFFCURVE",
"164 258 OFFCURVE",
"164 289 CURVE SMOOTH",
"164 306 LINE SMOOTH",
"164 356 OFFCURVE",
"193 390 OFFCURVE",
"234 390 CURVE SMOOTH",
"276 390 OFFCURVE",
"303 356 OFFCURVE",
"303 299 CURVE SMOOTH",
"303 0 LINE",
"454 0 LINE",
"454 301 LINE SMOOTH",
"454 448 OFFCURVE",
"379 528 OFFCURVE",
"244 528 CURVE SMOOTH",
"113 528 OFFCURVE",
"33 441 OFFCURVE",
"33 298 CURVE SMOOTH",
"33 206 OFFCURVE",
"53 160 OFFCURVE",
"53 60 CURVE SMOOTH",
"53 0 LINE"
);
},
{
closed = 1;
nodes = (
"233 199 OFFCURVE",
"224 210 OFFCURVE",
"224 230 CURVE SMOOTH",
"224 249 OFFCURVE",
"233 260 OFFCURVE",
"249 260 CURVE SMOOTH",
"264 260 OFFCURVE",
"274 249 OFFCURVE",
"274 230 CURVE SMOOTH",
"274 210 OFFCURVE",
"264 199 OFFCURVE",
"249 199 CURVE SMOOTH"
);
}
);
width = 494;
},
{
anchors = (
{
name = bottom;
position = "{360, 0}";
},
{
name = top;
position = "{354, 506}";
}
);
layerId = "94F80E8F-7C96-497F-B870-569C37B7A2A5";
paths = (
{
closed = 1;
nodes = (
"129 0 LINE",
"129 62 LINE SMOOTH",
"129 140 OFFCURVE",
"145 213 OFFCURVE",
"169 243 CURVE",
"168 267 LINE",
"156 261 OFFCURVE",
"148 246 OFFCURVE",
"148 224 CURVE SMOOTH",
"148 187 OFFCURVE",
"172 160 OFFCURVE",
"205 160 CURVE SMOOTH",
"243 160 OFFCURVE",
"266 191 OFFCURVE",
"266 244 CURVE SMOOTH",
"266 300 OFFCURVE",
"244 330 OFFCURVE",
"204 330 CURVE SMOOTH",
"161 330 OFFCURVE",
"125 275 OFFCURVE",
"109 182 CURVE",
"106 182 LINE",
"108 227 OFFCURVE",
"105 250 OFFCURVE",
"105 295 CURVE SMOOTH",
"105 309 LINE SMOOTH",
"105 399 OFFCURVE",
"139 449 OFFCURVE",
"197 449 CURVE SMOOTH",
"255 449 OFFCURVE",
"284 405 OFFCURVE",
"284 318 CURVE SMOOTH",
"284 0 LINE",
"360 0 LINE",
"360 319 LINE SMOOTH",
"360 449 OFFCURVE",
"306 516 OFFCURVE",
"202 516 CURVE SMOOTH",
"92 516 OFFCURVE",
"38 445 OFFCURVE",
"38 302 CURVE SMOOTH",
"38 210 OFFCURVE",
"56 157 OFFCURVE",
"56 66 CURVE SMOOTH",
"56 0 LINE"
);
},
{
closed = 1;
nodes = (
"188 199 OFFCURVE",
"179 215 OFFCURVE",
"179 244 CURVE SMOOTH",
"179 272 OFFCURVE",
"188 288 OFFCURVE",
"204 288 CURVE SMOOTH",
"220 288 OFFCURVE",
"230 272 OFFCURVE",
"230 244 CURVE SMOOTH",
"230 215 OFFCURVE",
"220 199 OFFCURVE",
"204 199 CURVE SMOOTH"
);
}
);
width = 410;
}
);
leftKerningGroup = "khoKhwai-thai";
note = "\012uni0E04\012";
rightKerningGroup = "koKai-thai";
rightMetricsKey = "koKai-thai";
unicode = 0E04;
},
{
glyphname = "khoKhon-thai";
lastChange = "2022-10-16 03:44:57 +0000";
layers = (
{
anchors = (
{
name = bottom;
position = "{581, 0}";
},
{
name = top;
position = "{571, 514}";
}
);
layerId = "EB3A5D6C-8260-43A6-9EF2-63971FC08D48";
paths = (
{
closed = 1;
nodes = (
"249 0 LINE",
"249 35 LINE SMOOTH",
"249 86 OFFCURVE",
"253 106 OFFCURVE",
"281 143 CURVE",
"257 200 LINE",
"243 197 OFFCURVE",
"233 189 OFFCURVE",
"233 174 CURVE SMOOTH",
"233 144 OFFCURVE",
"273 120 OFFCURVE",
"321 120 CURVE SMOOTH",
"385 120 OFFCURVE",
"424 159 OFFCURVE",
"424 222 CURVE SMOOTH",
"424 288 OFFCURVE",
"387 325 OFFCURVE",
"320 325 CURVE SMOOTH",
"264 325 OFFCURVE",
"228 291 OFFCURVE",
"204 216 CURVE",
"200 216 LINE",
"204 230 OFFCURVE",
"207 244 OFFCURVE",
"207 281 CURVE SMOOTH",
"207 304 LINE SMOOTH",
"207 354 OFFCURVE",
"222 382 OFFCURVE",
"249 382 CURVE",
"304 345 LINE",
"313 345 LINE",
"366 382 LINE",
"386 382 OFFCURVE",
"399 364 OFFCURVE",
"399 342 CURVE SMOOTH",
"399 0 LINE",
"581 0 LINE",
"581 319 LINE SMOOTH",
"581 441 OFFCURVE",
"500 523 OFFCURVE",
"385 523 CURVE",
"307 468 LINE",
"230 523 LINE",
"122 523 OFFCURVE",
"44 433 OFFCURVE",
"44 305 CURVE SMOOTH",
"44 205 OFFCURVE",
"72 159 OFFCURVE",
"72 60 CURVE SMOOTH",
"72 0 LINE"
);
},
{
closed = 1;
nodes = (
"298 191 OFFCURVE",
"287 203 OFFCURVE",
"287 222 CURVE SMOOTH",
"287 242 OFFCURVE",
"298 253 OFFCURVE",
"320 253 CURVE SMOOTH",
"341 253 OFFCURVE",
"353 242 OFFCURVE",
"353 222 CURVE SMOOTH",
"353 203 OFFCURVE",
"341 191 OFFCURVE",
"320 191 CURVE SMOOTH"
);
}
);
userData = {
com.schriftgestaltung.Glyphs.glyph.leftMetricsKey = "khoKhwai-thai";
com.schriftgestaltung.Glyphs.glyph.rightMetricsKey = "khoKhwai-thai";
};
width = 644;
},
{
anchors = (
{
name = bottom;
position = "{458, 0}";
},
{
name = top;
position = "{448, 501}";
}
);
layerId = "90A34054-68E4-499D-AE50-276C7B026D8B";
paths = (
{
closed = 1;
nodes = (
"117 0 LINE",
"117 79 LINE SMOOTH",
"117 195 OFFCURVE",
"187 279 OFFCURVE",
"219 287 CURVE",
"221 294 LINE",
"207 287 OFFCURVE",
"196 270 OFFCURVE",
"196 248 CURVE SMOOTH",
"196 208 OFFCURVE",
"224 177 OFFCURVE",
"268 177 CURVE SMOOTH",
"313 177 OFFCURVE",
"343 209 OFFCURVE",
"343 250 CURVE SMOOTH",
"343 291 OFFCURVE",
"313 323 OFFCURVE",
"268 323 CURVE SMOOTH",
"199 323 OFFCURVE",
"125 250 OFFCURVE",
"107 155 CURVE",
"105 155 LINE",
"104 198 OFFCURVE",
"93 237 OFFCURVE",
"93 316 CURVE SMOOTH",
"93 331 LINE SMOOTH",
"93 406 OFFCURVE",
"123 456 OFFCURVE",
"181 481 CURVE",
"261 408 LINE",
"265 408 LINE",
"347 481 LINE",
"403 466 OFFCURVE",
"433 424 OFFCURVE",
"433 334 CURVE SMOOTH",
"433 0 LINE",
"458 0 LINE",
"458 334 LINE SMOOTH",
"458 429 OFFCURVE",
"428 486 OFFCURVE",
"341 505 CURVE",
"263 435 LINE",
"185 505 LINE",
"106 481 OFFCURVE",
"68 422 OFFCURVE",
"68 321 CURVE SMOOTH",
"68 224 OFFCURVE",
"92 161 OFFCURVE",
"92 70 CURVE SMOOTH",
"92 0 LINE"
);
},
{
closed = 1;
nodes = (
"237 198 OFFCURVE",
"217 219 OFFCURVE",
"217 250 CURVE SMOOTH",
"217 281 OFFCURVE",
"237 302 OFFCURVE",
"268 302 CURVE SMOOTH",
"300 302 OFFCURVE",
"320 281 OFFCURVE",
"320 250 CURVE SMOOTH",
"320 219 OFFCURVE",
"300 198 OFFCURVE",
"268 198 CURVE SMOOTH"
);
}
);
width = 544;
},
{
anchors = (
{
name = bottom;
position = "{502, 0}";
},
{
name = top;
position = "{492, 506}";
}
);
hints = (
{
origin = "{0, 35}";
target = "{0, 36}";
type = Stem;
},
{
horizontal = 1;
origin = "{0, 42}";
target = down;
type = TopGhost;
},
{
origin = "{0, 45}";
target = "{0, 24}";
type = Stem;
},
{
horizontal = 1;
origin = "{0, 49}";
target = up;
type = BottomGhost;
}
);
layerId = "9148514D-BEB8-4275-B264-8F51401A425F";
paths = (
{
closed = 1;
nodes = (
"165 0 LINE",
"165 61 LINE SMOOTH",
"165 134 OFFCURVE",
"196 206 OFFCURVE",
"238 233 CURVE",
"231 265 LINE",
"215 259 OFFCURVE",
"205 242 OFFCURVE",
"205 223 CURVE SMOOTH",
"205 187 OFFCURVE",
"240 159 OFFCURVE",
"285 159 CURVE SMOOTH",
"340 159 OFFCURVE",
"377 192 OFFCURVE",
"377 243 CURVE SMOOTH",
"377 295 OFFCURVE",
"340 328 OFFCURVE",
"283 328 CURVE SMOOTH",
"214 328 OFFCURVE",
"162 274 OFFCURVE",
"141 182 CURVE",
"138 182 LINE",
"138 221 OFFCURVE",
"133 260 OFFCURVE",
"133 298 CURVE SMOOTH",
"133 315 LINE SMOOTH",
"133 385 OFFCURVE",
"159 429 OFFCURVE",
"192 439 CURVE",
"271 381 LINE",
"280 381 LINE",
"359 439 LINE",
"391 433 OFFCURVE",
"412 406 OFFCURVE",
"412 346 CURVE SMOOTH",
"412 0 LINE",
"502 0 LINE",
"502 345 LINE SMOOTH",
"502 445 OFFCURVE",
"451 505 OFFCURVE",
"355 512 CURVE",
"275 453 LINE",
"194 512 LINE",
"108 499 OFFCURVE",
"53 427 OFFCURVE",
"53 315 CURVE SMOOTH",
"53 216 OFFCURVE",
"79 160 OFFCURVE",
"79 66 CURVE SMOOTH",
"79 0 LINE"
);
},
{
closed = 1;
nodes = (
"259 205 OFFCURVE",
"244 219 OFFCURVE",
"244 243 CURVE SMOOTH",
"244 267 OFFCURVE",
"258 282 OFFCURVE",
"283 282 CURVE SMOOTH",
"308 282 OFFCURVE",
"323 267 OFFCURVE",
"323 243 CURVE SMOOTH",
"323 219 OFFCURVE",
"309 205 OFFCURVE",
"284 205 CURVE SMOOTH"
);
}
);
width = 579;
},
{
anchors = (
{
name = bottom;
position = "{300, 0}";
},
{
name = top;
position = "{294, 501}";
}
);
layerId = "54E3FB14-E6D2-4DF3-BA4A-5621168F9335";
paths = (
{
closed = 1;
nodes = (
"82 0 LINE",
"82 79 LINE SMOOTH",
"82 166 OFFCURVE",
"108 256 OFFCURVE",
"143 289 CURVE",
"144 297 LINE",
"134 289 OFFCURVE",
"128 272 OFFCURVE",
"128 252 CURVE SMOOTH",
"128 207 OFFCURVE",
"145 180 OFFCURVE",
"175 180 CURVE SMOOTH",
"206 180 OFFCURVE",
"225 207 OFFCURVE",
"225 254 CURVE SMOOTH",
"225 301 OFFCURVE",
"206 327 OFFCURVE",
"174 327 CURVE SMOOTH",
"129 327 OFFCURVE",
"88 259 OFFCURVE",
"74 155 CURVE",
"72 155 LINE",
"72 193 OFFCURVE",
"65 228 OFFCURVE",
"65 299 CURVE SMOOTH",
"65 311 LINE SMOOTH",
"65 408 OFFCURVE",
"86 457 OFFCURVE",
"122 478 CURVE",
"174 404 LINE",
"177 404 LINE",
"229 477 LINE",
"260 459 OFFCURVE",
"275 426 OFFCURVE",
"275 342 CURVE SMOOTH",
"275 0 LINE",
"300 0 LINE",
"300 342 LINE SMOOTH",
"300 444 OFFCURVE",
"276 483 OFFCURVE",
"226 505 CURVE",
"176 435 LINE",
"127 505 LINE",
"71 481 OFFCURVE",
"42 424 OFFCURVE",
"42 304 CURVE SMOOTH",
"42 213 OFFCURVE",
"58 155 OFFCURVE",
"58 70 CURVE SMOOTH",
"58 0 LINE"
);
},
{
closed = 1;
nodes = (
"157 201 OFFCURVE",
"147 221 OFFCURVE",
"147 254 CURVE SMOOTH",
"147 287 OFFCURVE",
"157 306 OFFCURVE",
"175 306 CURVE SMOOTH",
"193 306 OFFCURVE",
"203 287 OFFCURVE",
"203 254 CURVE SMOOTH",
"203 220 OFFCURVE",
"193 201 OFFCURVE",
"175 201 CURVE SMOOTH"
);
}
);
width = 354;
},
{
anchors = (
{
name = bottom;
position = "{455, 0}";
},
{
name = top;
position = "{450, 514}";
}
);
layerId = "E703E12A-5DA7-48FA-B69F-BB282FBD8E56";
paths = (
{
closed = 1;
nodes = (
"203 0 LINE",
"203 35 LINE SMOOTH",
"203 94 OFFCURVE",
"206 114 OFFCURVE",
"222 142 CURVE",
"200 199 LINE",
"189 196 OFFCURVE",
"182 188 OFFCURVE",
"182 174 CURVE SMOOTH",
"182 144 OFFCURVE",
"214 120 OFFCURVE",
"251 120 CURVE SMOOTH",
"300 120 OFFCURVE",
"331 159 OFFCURVE",
"331 222 CURVE SMOOTH",
"331 288 OFFCURVE",
"302 324 OFFCURVE",
"250 324 CURVE SMOOTH",
"199 324 OFFCURVE",
"175 287 OFFCURVE",
"165 216 CURVE",
"159 216 LINE",
"164 230 OFFCURVE",
"166 243 OFFCURVE",
"166 282 CURVE SMOOTH",
"166 306 LINE SMOOTH",
"166 354 OFFCURVE",
"178 382 OFFCURVE",
"198 382 CURVE",
"237 345 LINE",
"244 345 LINE",
"280 382 LINE",
"291 382 OFFCURVE",
"303 370 OFFCURVE",
"303 342 CURVE SMOOTH",
"303 0 LINE",
"455 0 LINE",
"455 320 LINE SMOOTH",
"455 439 OFFCURVE",
"388 523 OFFCURVE",
"298 523 CURVE",
"239 469 LINE",
"181 523 LINE",
"96 523 OFFCURVE",
"33 433 OFFCURVE",
"33 307 CURVE SMOOTH",
"33 206 OFFCURVE",
"54 160 OFFCURVE",
"54 60 CURVE SMOOTH",
"54 0 LINE"
);
},
{
closed = 1;
nodes = (
"234 192 OFFCURVE",
"225 203 OFFCURVE",
"225 222 CURVE SMOOTH",
"225 242 OFFCURVE",
"234 253 OFFCURVE",
"250 253 CURVE SMOOTH",
"265 253 OFFCURVE",
"275 242 OFFCURVE",
"275 222 CURVE SMOOTH",
"275 203 OFFCURVE",
"265 192 OFFCURVE",
"250 192 CURVE SMOOTH"
);
}
);
userData = {
com.schriftgestaltung.Glyphs.glyph.leftMetricsKey = "khoKhwai-thai";
com.schriftgestaltung.Glyphs.glyph.rightMetricsKey = "khoKhwai-thai";
};
width = 495;
},
{
anchors = (
{
name = bottom;
position = "{361, 0}";
},
{
name = top;
position = "{355, 506}";
}
);
layerId = "94F80E8F-7C96-497F-B870-569C37B7A2A5";
paths = (
{
closed = 1;
nodes = (
"130 0 LINE",
"130 62 LINE SMOOTH",
"130 138 OFFCURVE",
"146 213 OFFCURVE",
"170 243 CURVE",
"168 266 LINE",
"155 259 OFFCURVE",
"149 241 OFFCURVE",
"149 223 CURVE SMOOTH",
"149 186 OFFCURVE",
"173 160 OFFCURVE",
"206 160 CURVE SMOOTH",
"244 160 OFFCURVE",
"267 191 OFFCURVE",
"267 244 CURVE SMOOTH",
"267 299 OFFCURVE",
"245 329 OFFCURVE",
"205 329 CURVE SMOOTH",
"161 329 OFFCURVE",
"126 274 OFFCURVE",
"110 181 CURVE",
"107 181 LINE",
"109 227 OFFCURVE",
"105 249 OFFCURVE",
"105 295 CURVE SMOOTH",
"105 309 LINE SMOOTH",
"105 384 OFFCURVE",
"121 429 OFFCURVE",
"151 440 CURVE",
"199 381 LINE",
"203 381 LINE",
"249 440 LINE",
"272 430 OFFCURVE",
"285 404 OFFCURVE",
"285 342 CURVE SMOOTH",
"285 0 LINE",
"361 0 LINE",
"361 333 LINE SMOOTH",
"361 436 OFFCURVE",
"324 498 OFFCURVE",
"254 512 CURVE",
"201 448 LINE",
"148 512 LINE",
"78 498 OFFCURVE",
"38 423 OFFCURVE",
"38 305 CURVE SMOOTH",
"38 210 OFFCURVE",
"56 157 OFFCURVE",
"56 66 CURVE SMOOTH",
"56 0 LINE"
);
},
{
closed = 1;
nodes = (
"189 199 OFFCURVE",
"179 214 OFFCURVE",
"179 243 CURVE SMOOTH",
"179 272 OFFCURVE",
"189 287 OFFCURVE",
"205 287 CURVE SMOOTH",
"221 287 OFFCURVE",
"230 272 OFFCURVE",
"230 243 CURVE SMOOTH",
"230 215 OFFCURVE",
"221 199 OFFCURVE",
"205 199 CURVE SMOOTH"
);
}
);
width = 411;
}
);
leftKerningGroup = "khoKhwai-thai";
leftMetricsKey = "khoKhwai-thai";
rightMetricsKey = "koKai-thai";
unicode = 0E05;
},
{
glyphname = "khoRakhang-thai";
lastChange = "2022-10-16 07:37:48 +0000";
layers = (
{
anchors = (
{
name = bottom;
position = "{554, 0}";
},
{
name = top;
position = "{554, 514}";
}
);
layerId = "EB3A5D6C-8260-43A6-9EF2-63971FC08D48";
paths = (
{
closed = 1;
nodes = (
"554 0 LINE",
"554 514 LINE",
"368 514 LINE",
"368 233 LINE SMOOTH",
"368 207 OFFCURVE",
"370 176 OFFCURVE",
"373 145 CURVE",
"369 145 LINE",
"329 185 OFFCURVE",
"285 211 OFFCURVE",
"231 222 CURVE",
"280 187 LINE",
"280 236 LINE SMOOTH",
"280 254 OFFCURVE",
"283 272 OFFCURVE",
"290 302 CURVE SMOOTH",
"301 349 OFFCURVE",
"307 383 OFFCURVE",
"307 423 CURVE SMOOTH",
"307 514 LINE",
"224 514 LINE",
"219 468 OFFCURVE",
"210 431 OFFCURVE",
"197 405 CURVE",
"198 390 LINE",
"208 402 OFFCURVE",
"213 418 OFFCURVE",
"213 432 CURVE SMOOTH",
"213 486 OFFCURVE",
"171 523 OFFCURVE",
"110 523 CURVE SMOOTH",
"42 523 OFFCURVE",
"-1 485 OFFCURVE",
"-1 422 CURVE SMOOTH",
"-1 362 OFFCURVE",
"44 321 OFFCURVE",
"111 321 CURVE SMOOTH",
"132 321 OFFCURVE",
"154 329 OFFCURVE",
"173 345 CURVE",
"176 343 LINE",
"168 337 OFFCURVE",
"164 334 OFFCURVE",
"139 314 CURVE SMOOTH",
"110 291 OFFCURVE",
"95 268 OFFCURVE",
"95 243 CURVE SMOOTH",
"95 237 LINE SMOOTH",
"95 217 OFFCURVE",
"99 199 OFFCURVE",
"106 183 CURVE",
"219 136 LINE",
"289 90 OFFCURVE",
"331 51 OFFCURVE",
"373 0 CURVE"
);
},
{
closed = 1;
nodes = (
"90 388 OFFCURVE",
"75 400 OFFCURVE",
"75 422 CURVE SMOOTH",
"75 444 OFFCURVE",
"89 456 OFFCURVE",
"112 456 CURVE SMOOTH",
"135 456 OFFCURVE",
"150 444 OFFCURVE",
"150 422 CURVE SMOOTH",
"150 400 OFFCURVE",
"135 388 OFFCURVE",
"112 388 CURVE SMOOTH"
);
},
{
closed = 1;
nodes = (
"231 -10 OFFCURVE",
"282 34 OFFCURVE",
"282 102 CURVE SMOOTH",
"282 171 OFFCURVE",
"231 215 OFFCURVE",
"151 215 CURVE SMOOTH",
"70 215 OFFCURVE",
"20 171 OFFCURVE",
"20 102 CURVE SMOOTH",
"20 33 OFFCURVE",
"72 -10 OFFCURVE",
"151 -10 CURVE SMOOTH"
);
},
{
closed = 1;
nodes = (
"120 69 OFFCURVE",
"106 81 OFFCURVE",
"106 103 CURVE SMOOTH",
"106 125 OFFCURVE",
"121 137 OFFCURVE",
"143 137 CURVE SMOOTH",
"166 137 OFFCURVE",
"181 125 OFFCURVE",
"181 103 CURVE SMOOTH",
"181 81 OFFCURVE",
"167 69 OFFCURVE",
"143 69 CURVE SMOOTH"
);
}
);
userData = {
com.schriftgestaltung.Glyphs.glyph.rightMetricsKey = "boBaimai-thai";
};
width = 619;
},
{
anchors = (
{
name = bottom;
position = "{458, 0}";
},
{
name = top;
position = "{458, 501}";
}
);
layerId = "90A34054-68E4-499D-AE50-276C7B026D8B";
paths = (
{
closed = 1;
nodes = (
"458 0 LINE",
"458 501 LINE",
"433 501 LINE",
"433 215 LINE SMOOTH",
"433 122 OFFCURVE",
"433 72 OFFCURVE",
"434 27 CURVE",
"431 27 LINE",
"366 65 OFFCURVE",
"256 105 OFFCURVE",
"169 126 CURVE",
"180 111 LINE",
"180 211 LINE SMOOTH",
"180 256 OFFCURVE",
"184 271 OFFCURVE",
"215 322 CURVE SMOOTH",
"242 367 OFFCURVE",
"250 399 OFFCURVE",
"250 467 CURVE SMOOTH",
"250 501 LINE",
"231 501 LINE",
"222 446 OFFCURVE",
"179 392 OFFCURVE",
"149 389 CURVE",
"149 380 LINE",
"167 393 OFFCURVE",
"177 413 OFFCURVE",
"177 435 CURVE SMOOTH",
"177 476 OFFCURVE",
"147 504 OFFCURVE",
"104 504 CURVE SMOOTH",
"60 504 OFFCURVE",
"30 475 OFFCURVE",
"30 431 CURVE SMOOTH",
"30 389 OFFCURVE",
"61 360 OFFCURVE",
"110 360 CURVE SMOOTH",
"162 360 OFFCURVE",
"211 396 OFFCURVE",
"229 447 CURVE",
"231 447 LINE",
"227 397 OFFCURVE",
"221 376 OFFCURVE",
"194 331 CURVE SMOOTH",
"162 278 OFFCURVE",
"155 253 OFFCURVE",
"155 211 CURVE SMOOTH",
"155 191 LINE SMOOTH",
"155 167 OFFCURVE",
"155 143 OFFCURVE",
"155 119 CURVE",
"179 102 LINE",
"249 85 OFFCURVE",
"366 44 OFFCURVE",
"433 0 CURVE"
);
},
{
closed = 1;
nodes = (
"73 379 OFFCURVE",
"53 400 OFFCURVE",
"53 431 CURVE SMOOTH",
"53 463 OFFCURVE",
"73 483 OFFCURVE",
"104 483 CURVE SMOOTH",
"136 483 OFFCURVE",
"156 462 OFFCURVE",
"156 431 CURVE SMOOTH",
"156 400 OFFCURVE",
"136 379 OFFCURVE",
"104 379 CURVE SMOOTH"
);
},
{
closed = 1;
nodes = (
"162 -5 OFFCURVE",
"193 27 OFFCURVE",
"193 71 CURVE SMOOTH",
"193 114 OFFCURVE",
"162 145 OFFCURVE",
"116 145 CURVE SMOOTH",
"70 145 OFFCURVE",
"39 114 OFFCURVE",
"39 71 CURVE SMOOTH",
"39 27 OFFCURVE",
"70 -5 OFFCURVE",
"116 -5 CURVE SMOOTH"
);
},
{
closed = 1;
nodes = (
"84 17 OFFCURVE",
"62 38 OFFCURVE",
"62 71 CURVE SMOOTH",
"62 102 OFFCURVE",
"84 124 OFFCURVE",
"116 124 CURVE SMOOTH",
"148 124 OFFCURVE",
"170 102 OFFCURVE",
"170 71 CURVE SMOOTH",
"170 38 OFFCURVE",
"148 17 OFFCURVE",
"116 17 CURVE SMOOTH"
);
}
);
width = 549;
},
{
anchors = (
{
name = bottom;
position = "{497, 0}";
},
{
name = top;
position = "{497, 506}";
}
);
hints = (
{
horizontal = 1;
origin = "{0, 2}";
target = down;
type = TopGhost;
},
{
origin = "{0, 3}";
target = "{0, 0}";
type = Stem;
},
{
horizontal = 1;
origin = "{0, 30}";
target = "{1, 5}";
type = Stem;
},
{
origin = "{0, 47}";
target = "{0, 12}";
type = Stem;
},
{
horizontal = 1;
origin = "{0, 54}";
target = up;
type = BottomGhost;
},
{
horizontal = 1;
origin = "{2, 11}";
target = "{3, 11}";
type = Stem;
}
);
layerId = "9148514D-BEB8-4275-B264-8F51401A425F";
paths = (
{
closed = 1;
nodes = (
"497 0 LINE",
"497 506 LINE",
"407 506 LINE",
"407 222 LINE SMOOTH",
"407 150 OFFCURVE",
"408 110 OFFCURVE",
"409 75 CURVE",
"406 75 LINE",
"354 110 OFFCURVE",
"277 145 OFFCURVE",
"194 165 CURVE",
"220 142 LINE",
"220 201 LINE SMOOTH",
"220 253 OFFCURVE",
"225 269 OFFCURVE",
"249 306 CURVE SMOOTH",
"275 345 OFFCURVE",
"284 383 OFFCURVE",
"284 449 CURVE SMOOTH",
"284 506 LINE",
"236 506 LINE",
"230 465 OFFCURVE",
"205 417 OFFCURVE",
"176 395 CURVE",
"180 384 LINE",
"195 396 OFFCURVE",
"203 415 OFFCURVE",
"203 434 CURVE SMOOTH",
"203 480 OFFCURVE",
"168 512 OFFCURVE",
"118 512 CURVE SMOOTH",
"64 512 OFFCURVE",
"29 479 OFFCURVE",
"29 427 CURVE SMOOTH",
"29 377 OFFCURVE",
"65 344 OFFCURVE",
"122 344 CURVE SMOOTH",
"160 344 OFFCURVE",
"200 369 OFFCURVE",
"219 406 CURVE",
"222 405 LINE",
"216 372 OFFCURVE",
"208 358 OFFCURVE",
"179 325 CURVE SMOOTH",
"144 285 OFFCURVE",
"131 250 OFFCURVE",
"131 205 CURVE SMOOTH",
"131 201 LINE SMOOTH",
"131 176 OFFCURVE",
"133 160 OFFCURVE",
"136 145 CURVE",
"195 116 LINE",
"287 79 OFFCURVE",
"363 38 OFFCURVE",
"409 0 CURVE"
);
},
{
closed = 1;
nodes = (
"93 388 OFFCURVE",
"78 403 OFFCURVE",
"78 427 CURVE SMOOTH",
"78 451 OFFCURVE",
"93 466 OFFCURVE",
"118 466 CURVE SMOOTH",
"143 466 OFFCURVE",
"158 452 OFFCURVE",
"158 427 CURVE SMOOTH",
"158 403 OFFCURVE",
"143 388 OFFCURVE",
"118 388 CURVE SMOOTH"
);
},
{
closed = 1;
nodes = (
"189 -7 OFFCURVE",
"228 30 OFFCURVE",
"228 83 CURVE SMOOTH",
"228 137 OFFCURVE",
"189 173 OFFCURVE",
"129 173 CURVE SMOOTH",
"70 173 OFFCURVE",
"32 137 OFFCURVE",
"32 83 CURVE SMOOTH",
"32 30 OFFCURVE",
"70 -7 OFFCURVE",
"129 -7 CURVE SMOOTH"
);
},
{
closed = 1;
nodes = (
"102 44 OFFCURVE",
"87 58 OFFCURVE",
"87 83 CURVE SMOOTH",
"87 107 OFFCURVE",
"102 121 OFFCURVE",
"127 121 CURVE SMOOTH",
"152 121 OFFCURVE",
"166 107 OFFCURVE",
"166 83 CURVE SMOOTH",
"166 59 OFFCURVE",
"152 44 OFFCURVE",
"127 44 CURVE SMOOTH"
);
}
);
width = 577;
},
{
anchors = (
{
name = bottom;
position = "{298, 0}";
},
{
name = top;
position = "{298, 501}";
}
);
layerId = "54E3FB14-E6D2-4DF3-BA4A-5621168F9335";
paths = (
{
closed = 1;
nodes = (
"298 0 LINE",
"298 501 LINE",
"273 501 LINE",
"273 215 LINE SMOOTH",
"273 151 OFFCURVE",
"273 87 OFFCURVE",
"274 27 CURVE",
"272 27 LINE",
"231 65 OFFCURVE",
"168 104 OFFCURVE",
"111 126 CURVE",
"121 111 LINE",
"121 185 LINE SMOOTH",
"121 240 OFFCURVE",
"125 266 OFFCURVE",
"152 319 CURVE SMOOTH",
"175 364 OFFCURVE",
"180 387 OFFCURVE",
"180 453 CURVE SMOOTH",
"180 501 LINE",
"163 501 LINE",
"157 448 OFFCURVE",
"135 402 OFFCURVE",
"115 389 CURVE",
"116 380 LINE",
"127 393 OFFCURVE",
"132 415 OFFCURVE",
"132 435 CURVE SMOOTH",
"132 480 OFFCURVE",
"115 504 OFFCURVE",
"84 504 CURVE SMOOTH",
"53 504 OFFCURVE",
"35 477 OFFCURVE",
"35 431 CURVE SMOOTH",
"35 386 OFFCURVE",
"54 360 OFFCURVE",
"87 360 CURVE SMOOTH",
"121 360 OFFCURVE",
"149 396 OFFCURVE",
"161 438 CURVE",
"162 438 LINE",
"159 384 OFFCURVE",
"154 370 OFFCURVE",
"133 330 CURVE SMOOTH",
"107 280 OFFCURVE",
"96 251 OFFCURVE",
"96 185 CURVE SMOOTH",
"96 174 LINE SMOOTH",
"96 148 OFFCURVE",
"96 141 OFFCURVE",
"96 119 CURVE",
"116 102 LINE",
"169 82 OFFCURVE",
"237 40 OFFCURVE",
"275 0 CURVE"
);
},
{
closed = 1;
nodes = (
"66 379 OFFCURVE",
"56 399 OFFCURVE",
"56 431 CURVE SMOOTH",
"56 465 OFFCURVE",
"67 484 OFFCURVE",
"85 484 CURVE SMOOTH",
"103 484 OFFCURVE",
"113 464 OFFCURVE",
"113 431 CURVE SMOOTH",
"113 399 OFFCURVE",
"103 379 OFFCURVE",
"85 379 CURVE SMOOTH"
);
},
{
closed = 1;
nodes = (
"109 -5 OFFCURVE",
"127 22 OFFCURVE",
"127 69 CURVE SMOOTH",
"127 115 OFFCURVE",
"109 142 OFFCURVE",
"80 142 CURVE SMOOTH",
"46 142 OFFCURVE",
"27 114 OFFCURVE",
"27 69 CURVE SMOOTH",
"27 22 OFFCURVE",
"46 -5 OFFCURVE",
"78 -5 CURVE SMOOTH"
);
},
{
closed = 1;
nodes = (
"59 16 OFFCURVE",
"49 35 OFFCURVE",
"49 69 CURVE SMOOTH",
"49 102 OFFCURVE",
"59 121 OFFCURVE",
"77 121 CURVE SMOOTH",
"95 121 OFFCURVE",
"105 102 OFFCURVE",
"105 69 CURVE SMOOTH",
"105 36 OFFCURVE",
"95 16 OFFCURVE",
"77 16 CURVE SMOOTH"
);
}
);
width = 354;
},
{
anchors = (
{
name = bottom;
position = "{439, 0}";
},
{
name = top;
position = "{439, 514}";
}
);
layerId = "E703E12A-5DA7-48FA-B69F-BB282FBD8E56";
paths = (
{
closed = 1;
nodes = (
"439 0 LINE",
"439 514 LINE",
"283 514 LINE",
"283 233 LINE SMOOTH",
"283 204 OFFCURVE",
"284 178 OFFCURVE",
"287 145 CURVE",
"284 145 LINE",
"254 188 OFFCURVE",
"225 212 OFFCURVE",
"189 222 CURVE",
"230 187 LINE",
"230 237 LINE SMOOTH",
"230 258 OFFCURVE",
"232 277 OFFCURVE",
"235 303 CURVE SMOOTH",
"240 354 OFFCURVE",
"243 417 OFFCURVE",
"243 425 CURVE SMOOTH",
"243 514 LINE",
"175 514 LINE",
"171 461 OFFCURVE",
"166 426 OFFCURVE",
"160 404 CURVE",
"160 390 LINE",
"167 402 OFFCURVE",
"170 417 OFFCURVE",
"170 432 CURVE SMOOTH",
"170 486 OFFCURVE",
"138 523 OFFCURVE",
"89 523 CURVE SMOOTH",
"37 523 OFFCURVE",
"1 483 OFFCURVE",
"1 423 CURVE SMOOTH",
"1 364 OFFCURVE",
"34 321 OFFCURVE",
"81 321 CURVE SMOOTH",
"100 321 OFFCURVE",
"120 333 OFFCURVE",
"132 346 CURVE",
"134 344 LINE",
"126 337 OFFCURVE",
"120 331 OFFCURVE",
"107 315 CURVE SMOOTH",
"85 288 OFFCURVE",
"75 266 OFFCURVE",
"75 245 CURVE SMOOTH",
"75 238 LINE SMOOTH",
"75 220 OFFCURVE",
"78 198 OFFCURVE",
"85 183 CURVE",
"178 136 LINE",
"220 100 OFFCURVE",
"249 64 OFFCURVE",
"287 0 CURVE"
);
},
{
closed = 1;
nodes = (
"73 389 OFFCURVE",
"62 402 OFFCURVE",
"62 422 CURVE SMOOTH",
"62 442 OFFCURVE",
"73 456 OFFCURVE",
"91 456 CURVE SMOOTH",
"108 456 OFFCURVE",
"119 442 OFFCURVE",
"119 422 CURVE SMOOTH",
"119 402 OFFCURVE",
"108 389 OFFCURVE",
"91 389 CURVE SMOOTH"
);
},
{
closed = 1;
nodes = (
"189 -10 OFFCURVE",
"231 35 OFFCURVE",
"231 103 CURVE SMOOTH",
"231 172 OFFCURVE",
"189 215 OFFCURVE",
"125 215 CURVE SMOOTH",
"60 215 OFFCURVE",
"17 170 OFFCURVE",
"17 103 CURVE SMOOTH",
"17 35 OFFCURVE",
"60 -10 OFFCURVE",
"125 -10 CURVE SMOOTH"
);
},
{
closed = 1;
nodes = (
"103 69 OFFCURVE",
"92 82 OFFCURVE",
"92 103 CURVE SMOOTH",
"92 123 OFFCURVE",
"103 136 OFFCURVE",
"120 136 CURVE SMOOTH",
"137 136 OFFCURVE",
"148 123 OFFCURVE",
"148 103 CURVE SMOOTH",
"148 82 OFFCURVE",
"137 69 OFFCURVE",
"120 69 CURVE SMOOTH"
);
}
);
userData = {
com.schriftgestaltung.Glyphs.glyph.rightMetricsKey = "boBaimai-thai";
};
width = 481;
},
{
anchors = (
{
name = bottom;
position = "{354, 0}";
},
{
name = top;
position = "{354, 506}";
}
);
layerId = "94F80E8F-7C96-497F-B870-569C37B7A2A5";
paths = (
{
closed = 1;
nodes = (
"354 0 LINE",
"354 506 LINE",
"277 506 LINE",
"277 222 LINE SMOOTH",
"277 149 OFFCURVE",
"277 112 OFFCURVE",
"278 73 CURVE",
"276 73 LINE",
"240 113 OFFCURVE",
"191 146 OFFCURVE",
"142 164 CURVE",
"165 141 LINE",
"165 206 LINE SMOOTH",
"165 248 OFFCURVE",
"168 272 OFFCURVE",
"184 314 CURVE SMOOTH",
"201 358 OFFCURVE",
"205 387 OFFCURVE",
"205 443 CURVE SMOOTH",
"205 506 LINE",
"168 506 LINE",
"163 460 OFFCURVE",
"150 429 OFFCURVE",
"128 406 CURVE",
"133 384 LINE",
"142 397 OFFCURVE",
"148 415 OFFCURVE",
"148 435 CURVE SMOOTH",
"148 482 OFFCURVE",
"125 512 OFFCURVE",
"87 512 CURVE SMOOTH",
"47 512 OFFCURVE",
"22 481 OFFCURVE",
"22 428 CURVE SMOOTH",
"22 378 OFFCURVE",
"47 346 OFFCURVE",
"88 346 CURVE SMOOTH",
"111 346 OFFCURVE",
"133 367 OFFCURVE",
"149 403 CURVE",
"151 402 LINE",
"147 372 OFFCURVE",
"144 360 OFFCURVE",
"123 325 CURVE SMOOTH",
"96 279 OFFCURVE",
"88 256 OFFCURVE",
"88 209 CURVE SMOOTH",
"88 199 LINE SMOOTH",
"88 179 OFFCURVE",
"89 167 OFFCURVE",
"92 144 CURVE",
"141 115 LINE",
"196 84 OFFCURVE",
"248 41 OFFCURVE",
"280 0 CURVE"
);
},
{
closed = 1;
nodes = (
"72 384 OFFCURVE",
"63 400 OFFCURVE",
"63 428 CURVE SMOOTH",
"63 456 OFFCURVE",
"72 473 OFFCURVE",
"88 473 CURVE SMOOTH",
"105 473 OFFCURVE",
"114 456 OFFCURVE",
"114 428 CURVE SMOOTH",
"114 400 OFFCURVE",
"105 384 OFFCURVE",
"88 384 CURVE SMOOTH"
);
},
{
closed = 1;
nodes = (
"141 -7 OFFCURVE",
"169 27 OFFCURVE",
"169 82 CURVE SMOOTH",
"169 137 OFFCURVE",
"141 171 OFFCURVE",
"98 171 CURVE SMOOTH",
"54 171 OFFCURVE",
"26 136 OFFCURVE",
"26 82 CURVE SMOOTH",
"26 26 OFFCURVE",
"53 -7 OFFCURVE",
"97 -7 CURVE SMOOTH"
);
},
{
closed = 1;
nodes = (
"79 37 OFFCURVE",
"69 53 OFFCURVE",
"69 82 CURVE SMOOTH",
"69 109 OFFCURVE",
"78 126 OFFCURVE",
"95 126 CURVE SMOOTH",
"111 126 OFFCURVE",
"121 110 OFFCURVE",
"121 82 CURVE SMOOTH",
"121 53 OFFCURVE",
"111 37 OFFCURVE",
"95 37 CURVE SMOOTH"
);
}
);
width = 404;
}
);
leftKerningGroup = "khoRakhang-thai";
rightMetricsKey = "boBaimai-thai";
unicode = 0E06;
},
{
glyphname = "khoRakhang_macronbelowcomb-thai";
lastChange = "2022-10-16 03:44:57 +0000";
layers = (
{
anchors = (
{
name = bottom;
position = "{458, -93}";
}
);
components = (
{
name = "khoRakhang-thai";
}
);
layerId = "90A34054-68E4-499D-AE50-276C7B026D8B";
paths = (
{
closed = 1;
nodes = (
"458 -93 LINE",
"458 -70 LINE",
"56 -70 LINE",
"56 -93 LINE"
);
}
);
width = 549;
},
{
anchors = (
{
name = bottom;
position = "{554, -212}";
}
);
components = (
{
name = "khoRakhang-thai";
}
);
layerId = "EB3A5D6C-8260-43A6-9EF2-63971FC08D48";
paths = (
{
closed = 1;
nodes = (
"554 -212 LINE",
"554 -70 LINE",
"38 -70 LINE",
"38 -212 LINE"
);
}
);
width = 619;
},
{
anchors = (
{
name = bottom;
position = "{497, -140}";
}
);
components = (
{
alignment = -1;
name = "khoRakhang-thai";
}
);
hints = (
{
horizontal = 1;
origin = "{0, 3}";
target = "{0, 2}";
type = Stem;
}
);
layerId = "9148514D-BEB8-4275-B264-8F51401A425F";
paths = (
{
closed = 1;
nodes = (
"497 -140 LINE",
"497 -69 LINE",
"49 -69 LINE",
"49 -140 LINE"
);
}
);
width = 577;
},
{
anchors = (
{
name = bottom;
position = "{298, -93}";
}
);
components = (
{
name = "khoRakhang-thai";
}
);
layerId = "54E3FB14-E6D2-4DF3-BA4A-5621168F9335";
paths = (
{
closed = 1;
nodes = (
"298 -93 LINE",
"298 -70 LINE",
"35 -70 LINE",
"35 -93 LINE"
);
}
);
width = 354;
},
{
anchors = (
{
name = bottom;
position = "{438, -212}";
}
);
components = (
{
name = "khoRakhang-thai";
}
);
layerId = "E703E12A-5DA7-48FA-B69F-BB282FBD8E56";
paths = (
{
closed = 1;
nodes = (
"438 -212 LINE",
"438 -70 LINE",
"27 -70 LINE",
"27 -212 LINE"
);
}
);
width = 481;
},
{
anchors = (
{
name = bottom;
position = "{354, -140}";
}
);
components = (
{
alignment = -1;
name = "khoRakhang-thai";
}
);
layerId = "94F80E8F-7C96-497F-B870-569C37B7A2A5";
paths = (
{
closed = 1;
nodes = (
"354 -140 LINE",
"354 -70 LINE",
"34 -70 LINE",
"34 -140 LINE"
);
}
);
width = 404;
}
);
leftKerningGroup = "khoRakhang-thai";
leftMetricsKey = "khoRakhang-thai";
rightMetricsKey = "boBaimai-thai";
script = thai;
category = Letter;
subCategory = Other;
},
{
glyphname = "ngoNgu-thai";
lastChange = "2022-10-16 03:44:57 +0000";
layers = (
{
anchors = (
{
name = bottom;
position = "{472, 0}";
},
{
name = top;
position = "{471, 514}";
}
);
layerId = "EB3A5D6C-8260-43A6-9EF2-63971FC08D48";
paths = (
{
closed = 1;
nodes = (
"329 0 LINE SMOOTH",
"412 0 OFFCURVE",
"472 65 OFFCURVE",
"472 154 CURVE SMOOTH",
"472 411 LINE SMOOTH",
"472 481 OFFCURVE",
"424 523 OFFCURVE",
"344 523 CURVE SMOOTH",
"264 523 OFFCURVE",
"213 480 OFFCURVE",
"213 411 CURVE SMOOTH",
"213 345 OFFCURVE",
"261 299 OFFCURVE",
"329 299 CURVE SMOOTH",
"389 299 OFFCURVE",
"426 332 OFFCURVE",
"426 388 CURVE",
"408 388 LINE",
"405 342 OFFCURVE",
"366 317 OFFCURVE",
"298 318 CURVE",
"288 286 OFFCURVE",
"286 270 OFFCURVE",
"286 251 CURVE SMOOTH",
"286 163 LINE SMOOTH",
"286 138 OFFCURVE",
"280 129 OFFCURVE",
"259 129 CURVE SMOOTH",
"205 129 LINE",
"261 101 LINE",
"191 372 LINE",
"5 372 LINE",
"109 0 LINE"
);
},
{
closed = 1;
nodes = (
"314 377 OFFCURVE",
"300 389 OFFCURVE",
"300 411 CURVE SMOOTH",
"300 433 OFFCURVE",
"314 445 OFFCURVE",
"337 445 CURVE SMOOTH",
"360 445 OFFCURVE",
"374 433 OFFCURVE",
"374 411 CURVE SMOOTH",
"374 389 OFFCURVE",
"360 377 OFFCURVE",
"337 377 CURVE SMOOTH"
);
}
);
width = 533;
},
{
anchors = (
{
name = bottom;
position = "{356, 0}";
},
{
name = top;
position = "{355, 501}";
}
);
layerId = "90A34054-68E4-499D-AE50-276C7B026D8B";
paths = (
{
closed = 1;
nodes = (
"251 0 LINE SMOOTH",
"322 0 OFFCURVE",
"356 33 OFFCURVE",
"356 105 CURVE SMOOTH",
"356 431 LINE SMOOTH",
"356 475 OFFCURVE",
"326 504 OFFCURVE",
"281 504 CURVE SMOOTH",
"236 504 OFFCURVE",
"207 475 OFFCURVE",
"207 431 CURVE SMOOTH",
"207 387 OFFCURVE",
"236 358 OFFCURVE",
"281 358 CURVE SMOOTH",
"321 358 OFFCURVE",
"344 384 OFFCURVE",
"344 431 CURVE",
"340 431 LINE",
"340 419 OFFCURVE",
"339 405 OFFCURVE",
"333 397 CURVE",
"331 383 OFFCURVE",
"331 356 OFFCURVE",
"331 347 CURVE SMOOTH",
"331 106 LINE SMOOTH",
"331 49 OFFCURVE",
"306 23 OFFCURVE",
"253 23 CURVE SMOOTH",
"182 23 LINE",
"196 12 LINE",
"62 372 LINE",
"35 372 LINE",
"175 0 LINE"
);
},
{
closed = 1;
nodes = (
"249 379 OFFCURVE",
"230 400 OFFCURVE",
"230 431 CURVE SMOOTH",
"230 463 OFFCURVE",
"250 483 OFFCURVE",
"281 483 CURVE SMOOTH",
"313 483 OFFCURVE",
"332 462 OFFCURVE",
"332 431 CURVE SMOOTH",
"332 400 OFFCURVE",
"313 379 OFFCURVE",
"281 379 CURVE SMOOTH"
);
}
);
width = 439;
},
{
anchors = (
{
name = bottom;
position = "{402, 0}";
},
{
name = top;
position = "{401, 506}";
}
);
hints = (
{
horizontal = 1;
origin = "{0, 7}";
target = "{1, 5}";
type = Stem;
},
{
origin = "{0, 24}";
target = "{0, 3}";
type = Stem;
},
{
horizontal = 1;
origin = "{0, 32}";
target = "{0, 27}";
type = Stem;
}
);
layerId = "9148514D-BEB8-4275-B264-8F51401A425F";
paths = (
{
closed = 1;
nodes = (
"282 0 LINE SMOOTH",
"358 0 OFFCURVE",
"402 46 OFFCURVE",
"402 125 CURVE SMOOTH",
"402 423 LINE SMOOTH",
"402 477 OFFCURVE",
"365 512 OFFCURVE",
"306 512 CURVE SMOOTH",
"247 512 OFFCURVE",
"209 477 OFFCURVE",
"209 423 CURVE SMOOTH",
"209 370 OFFCURVE",
"246 334 OFFCURVE",
"300 334 CURVE SMOOTH",
"348 334 OFFCURVE",
"377 364 OFFCURVE",
"377 414 CURVE",
"367 414 LINE",
"366 386 OFFCURVE",
"350 369 OFFCURVE",
"319 365 CURVE",
"314 342 OFFCURVE",
"312 325 OFFCURVE",
"312 308 CURVE SMOOTH",
"312 129 LINE SMOOTH",
"312 84 OFFCURVE",
"295 65 OFFCURVE",
"255 65 CURVE SMOOTH",
"191 65 LINE",
"221 48 LINE",
"112 372 LINE",
"23 372 LINE",
"148 0 LINE"
);
},
{
closed = 1;
nodes = (
"279 384 OFFCURVE",
"264 399 OFFCURVE",
"264 423 CURVE SMOOTH",
"264 447 OFFCURVE",
"278 462 OFFCURVE",
"304 462 CURVE SMOOTH",
"329 462 OFFCURVE",
"344 447 OFFCURVE",
"344 423 CURVE SMOOTH",
"344 399 OFFCURVE",
"329 384 OFFCURVE",
"304 384 CURVE SMOOTH"
);
}
);
width = 476;
},
{
anchors = (
{
name = bottom;
position = "{234, 0}";
},
{
name = top;
position = "{234, 501}";
}
);
layerId = "54E3FB14-E6D2-4DF3-BA4A-5621168F9335";
paths = (
{
closed = 1;
nodes = (
"165 0 LINE SMOOTH",
"215 0 OFFCURVE",
"234 31 OFFCURVE",
"234 105 CURVE SMOOTH",
"234 431 LINE SMOOTH",
"234 477 OFFCURVE",
"216 504 OFFCURVE",
"184 504 CURVE SMOOTH",
"152 504 OFFCURVE",
"133 478 OFFCURVE",
"133 431 CURVE SMOOTH",
"133 387 OFFCURVE",
"151 358 OFFCURVE",
"181 358 CURVE SMOOTH",
"207 358 OFFCURVE",
"222 383 OFFCURVE",
"222 431 CURVE",
"219 431 LINE",
"219 418 OFFCURVE",
"217 403 OFFCURVE",
"213 396 CURVE",
"210 383 OFFCURVE",
"209 370 OFFCURVE",
"209 347 CURVE SMOOTH",
"209 106 LINE SMOOTH",
"209 44 OFFCURVE",
"198 22 OFFCURVE",
"163 22 CURVE SMOOTH",
"118 22 LINE",
"130 12 LINE",
"47 372 LINE",
"21 372 LINE",
"108 0 LINE"
);
},
{
closed = 1;
nodes = (
"164 379 OFFCURVE",
"154 399 OFFCURVE",
"154 431 CURVE SMOOTH",
"154 465 OFFCURVE",
"165 484 OFFCURVE",
"183 484 CURVE SMOOTH",
"201 484 OFFCURVE",
"211 464 OFFCURVE",
"211 431 CURVE SMOOTH",
"211 399 OFFCURVE",
"201 379 OFFCURVE",
"183 379 CURVE SMOOTH"
);
}
);
width = 287;
},
{
anchors = (
{
name = bottom;
position = "{371, 0}";
},
{
name = top;
position = "{371, 514}";
}
);
layerId = "E703E12A-5DA7-48FA-B69F-BB282FBD8E56";
paths = (
{
closed = 1;
nodes = (
"227 0 LINE SMOOTH",
"316 0 OFFCURVE",
"371 55 OFFCURVE",
"371 144 CURVE SMOOTH",
"371 411 LINE SMOOTH",
"371 479 OFFCURVE",
"332 523 OFFCURVE",
"269 523 CURVE SMOOTH",
"206 523 OFFCURVE",
"164 479 OFFCURVE",
"164 411 CURVE SMOOTH",
"164 346 OFFCURVE",
"203 299 OFFCURVE",
"256 299 CURVE SMOOTH",
"303 299 OFFCURVE",
"333 333 OFFCURVE",
"333 388 CURVE",
"318 388 LINE",
"315 342 OFFCURVE",
"283 319 OFFCURVE",
"225 319 CURVE",
"217 289 OFFCURVE",
"215 269 OFFCURVE",
"215 251 CURVE SMOOTH",
"215 163 LINE SMOOTH",
"215 136 OFFCURVE",
"210 129 OFFCURVE",
"188 129 CURVE SMOOTH",
"159 129 LINE",
"205 101 LINE",
"157 372 LINE",
"2 372 LINE",
"78 0 LINE"
);
},
{
closed = 1;
nodes = (
"245 377 OFFCURVE",
"234 391 OFFCURVE",
"234 411 CURVE SMOOTH",
"234 431 OFFCURVE",
"245 445 OFFCURVE",
"263 445 CURVE SMOOTH",
"280 445 OFFCURVE",
"291 431 OFFCURVE",
"291 411 CURVE SMOOTH",
"291 391 OFFCURVE",
"280 377 OFFCURVE",
"263 377 CURVE SMOOTH"
);
}
);
width = 408;
},
{
anchors = (
{
name = bottom;
position = "{288, 0}";
},
{
name = top;
position = "{287, 506}";
}
);
layerId = "94F80E8F-7C96-497F-B870-569C37B7A2A5";
paths = (
{
closed = 1;
nodes = (
"200 0 LINE SMOOTH",
"256 0 OFFCURVE",
"288 44 OFFCURVE",
"288 124 CURVE SMOOTH",
"288 424 LINE SMOOTH",
"288 479 OFFCURVE",
"262 512 OFFCURVE",
"217 512 CURVE SMOOTH",
"173 512 OFFCURVE",
"145 479 OFFCURVE",
"145 424 CURVE SMOOTH",
"145 372 OFFCURVE",
"171 336 OFFCURVE",
"211 336 CURVE SMOOTH",
"245 336 OFFCURVE",
"266 365 OFFCURVE",
"266 415 CURVE",
"258 415 LINE",
"257 384 OFFCURVE",
"241 355 OFFCURVE",
"218 349 CURVE",
"213 338 OFFCURVE",
"211 330 OFFCURVE",
"211 310 CURVE SMOOTH",
"211 128 LINE SMOOTH",
"211 80 OFFCURVE",
"203 64 OFFCURVE",
"176 64 CURVE SMOOTH",
"134 64 LINE",
"160 47 LINE",
"90 372 LINE",
"14 372 LINE",
"96 0 LINE"
);
},
{
closed = 1;
nodes = (
"198 379 OFFCURVE",
"189 396 OFFCURVE",
"189 424 CURVE SMOOTH",
"189 452 OFFCURVE",
"198 469 OFFCURVE",
"215 469 CURVE SMOOTH",
"231 469 OFFCURVE",
"240 452 OFFCURVE",
"240 424 CURVE SMOOTH",
"240 396 OFFCURVE",
"231 379 OFFCURVE",
"215 379 CURVE SMOOTH"
);
}
);
width = 335;
}
);
leftKerningGroup = "ngoNgu-thai";
note = "\012uni0E07\012";
rightKerningGroup = "ngoNgu-thai";
unicode = 0E07;
},
{
glyphname = "ngoNgu_macronbelowcomb-thai";
lastChange = "2022-10-16 03:44:57 +0000";
layers = (
{
anchors = (
{
name = bottom;
position = "{356, -93}";
}
);
components = (
{
name = "ngoNgu-thai";
}
);
layerId = "90A34054-68E4-499D-AE50-276C7B026D8B";
paths = (
{
closed = 1;
nodes = (
"356 -93 LINE",
"356 -70 LINE",
"85 -70 LINE",
"85 -93 LINE"
);
}
);
width = 439;
},
{
anchors = (
{
name = bottom;
position = "{472, -212}";
}
);
components = (
{
name = "ngoNgu-thai";
}
);
layerId = "EB3A5D6C-8260-43A6-9EF2-63971FC08D48";
paths = (
{
closed = 1;
nodes = (
"472 -212 LINE",
"472 -70 LINE",
"57 -70 LINE",
"57 -212 LINE"
);
}
);
width = 533;
},
{
anchors = (
{
name = bottom;
position = "{402, -140}";
}
);
components = (
{
alignment = -1;
name = "ngoNgu-thai";
}
);
hints = (
{
horizontal = 1;
origin = "{0, 3}";
target = "{0, 2}";
type = Stem;
}
);
layerId = "9148514D-BEB8-4275-B264-8F51401A425F";
paths = (
{
closed = 1;
nodes = (
"402 -140 LINE",
"402 -69 LINE",
"74 -69 LINE",
"74 -140 LINE"
);
}
);
width = 476;
},
{
anchors = (
{
name = bottom;
position = "{234, -93}";
}
);
components = (
{
name = "ngoNgu-thai";
}
);
layerId = "54E3FB14-E6D2-4DF3-BA4A-5621168F9335";
paths = (
{
closed = 1;
nodes = (
"234 -93 LINE",
"234 -70 LINE",
"53 -70 LINE",
"53 -93 LINE"
);
}
);
width = 287;
},
{
anchors = (
{
name = bottom;
position = "{371, -212}";
}
);
components = (
{
name = "ngoNgu-thai";
}
);
layerId = "E703E12A-5DA7-48FA-B69F-BB282FBD8E56";
paths = (
{
closed = 1;
nodes = (
"371 -212 LINE",
"371 -70 LINE",
"42 -70 LINE",
"42 -212 LINE"
);
}
);
width = 408;
},
{
anchors = (
{
name = bottom;
position = "{288, -140}";
}
);
components = (
{
alignment = -1;
name = "ngoNgu-thai";
}
);
layerId = "94F80E8F-7C96-497F-B870-569C37B7A2A5";
paths = (
{
closed = 1;
nodes = (
"288 -140 LINE",
"288 -70 LINE",
"48 -70 LINE",
"48 -140 LINE"
);
}
);
width = 335;
}
);
leftKerningGroup = "ngoNgu-thai";
leftMetricsKey = "ngoNgu-thai";
rightKerningGroup = "ngoNgu-thai";
rightMetricsKey = "ngoNgu-thai";
script = thai;
category = Letter;
subCategory = Other;
},
{
glyphname = "choChan-thai";
lastChange = "2022-10-16 03:44:57 +0000";
layers = (
{
anchors = (
{
name = bottom;
position = "{490, 0}";
},
{
name = top;
position = "{489, 514}";
}
);
layerId = "EB3A5D6C-8260-43A6-9EF2-63971FC08D48";
paths = (
{
closed = 1;
nodes = (
"276 0 LINE SMOOTH",
"430 0 OFFCURVE",
"509 87 OFFCURVE",
"509 259 CURVE SMOOTH",
"509 430 OFFCURVE",
"409 528 OFFCURVE",
"235 528 CURVE SMOOTH",
"172 528 OFFCURVE",
"87 511 OFFCURVE",
"28 487 CURVE",
"28 346 LINE",
"95 377 OFFCURVE",
"147 390 OFFCURVE",
"196 390 CURVE SMOOTH",
"283 390 OFFCURVE",
"323 348 OFFCURVE",
"323 259 CURVE SMOOTH",
"323 147 OFFCURVE",
"316 122 OFFCURVE",
"268 122 CURVE SMOOTH",
"243 122 LINE",
"277 91 LINE",
"277 219 LINE SMOOTH",
"277 306 OFFCURVE",
"231 353 OFFCURVE",
"148 353 CURVE SMOOTH",
"76 353 OFFCURVE",
"26 313 OFFCURVE",
"26 254 CURVE SMOOTH",
"26 195 OFFCURVE",
"64 156 OFFCURVE",
"124 156 CURVE SMOOTH",
"182 156 OFFCURVE",
"212 170 OFFCURVE",
"231 233 CURVE",
"206 256 LINE",
"206 217 OFFCURVE",
"169 188 OFFCURVE",
"121 189 CURVE",
"114 171 OFFCURVE",
"111 145 OFFCURVE",
"111 101 CURVE SMOOTH",
"111 0 LINE"
);
},
{
closed = 1;
nodes = (
"120 221 OFFCURVE",
"106 233 OFFCURVE",
"106 253 CURVE SMOOTH",
"106 273 OFFCURVE",
"120 285 OFFCURVE",
"141 285 CURVE SMOOTH",
"163 285 OFFCURVE",
"176 273 OFFCURVE",
"176 253 CURVE SMOOTH",
"176 233 OFFCURVE",
"163 221 OFFCURVE",
"141 221 CURVE SMOOTH"
);
}
);
width = 547;
},
{
anchors = (
{
name = bottom;
position = "{390, 0}";
},
{
name = top;
position = "{389, 501}";
}
);
layerId = "90A34054-68E4-499D-AE50-276C7B026D8B";
paths = (
{
closed = 1;
nodes = (
"216 0 LINE SMOOTH",
"326 0 OFFCURVE",
"399 98 OFFCURVE",
"399 248 CURVE SMOOTH",
"399 416 OFFCURVE",
"321 508 OFFCURVE",
"178 508 CURVE SMOOTH",
"120 508 OFFCURVE",
"67 495 OFFCURVE",
"29 473 CURVE",
"29 447 LINE",
"73 473 OFFCURVE",
"126 485 OFFCURVE",
"177 485 CURVE SMOOTH",
"303 485 OFFCURVE",
"374 401 OFFCURVE",
"374 248 CURVE SMOOTH",
"374 115 OFFCURVE",
"309 22 OFFCURVE",
"218 22 CURVE SMOOTH",
"188 22 LINE",
"198 9 LINE",
"198 260 LINE SMOOTH",
"198 304 OFFCURVE",
"168 333 OFFCURVE",
"123 333 CURVE SMOOTH",
"78 333 OFFCURVE",
"49 304 OFFCURVE",
"49 260 CURVE SMOOTH",
"49 217 OFFCURVE",
"78 187 OFFCURVE",
"123 187 CURVE SMOOTH",
"163 187 OFFCURVE",
"186 214 OFFCURVE",
"186 260 CURVE",
"182 260 LINE",
"182 245 OFFCURVE",
"181 233 OFFCURVE",
"176 226 CURVE",
"174 214 OFFCURVE",
"173 205 OFFCURVE",
"173 176 CURVE SMOOTH",
"173 0 LINE"
);
},
{
closed = 1;
nodes = (
"91 208 OFFCURVE",
"72 229 OFFCURVE",
"72 260 CURVE SMOOTH",
"72 292 OFFCURVE",
"92 312 OFFCURVE",
"123 312 CURVE SMOOTH",
"154 312 OFFCURVE",
"174 292 OFFCURVE",
"174 260 CURVE SMOOTH",
"174 229 OFFCURVE",
"155 208 OFFCURVE",
"123 208 CURVE SMOOTH"
);
}
);
width = 456;
},
{
anchors = (
{
name = bottom;
position = "{428, 0}";
},
{
name = top;
position = "{427, 506}";
}
);
hints = (
{
horizontal = 1;
origin = "{0, 6}";
target = "{0, 13}";
type = Stem;
},
{
origin = "{0, 16}";
target = "{0, 3}";
type = Stem;
},
{
horizontal = 1;
origin = "{0, 42}";
target = "{0, 19}";
type = Stem;
},
{
origin = "{0, 42}";
target = "{0, 22}";
type = Stem;
}
);
layerId = "9148514D-BEB8-4275-B264-8F51401A425F";
paths = (
{
closed = 1;
nodes = (
"239 0 LINE SMOOTH",
"368 0 OFFCURVE",
"443 94 OFFCURVE",
"443 253 CURVE SMOOTH",
"443 421 OFFCURVE",
"354 516 OFFCURVE",
"196 516 CURVE SMOOTH",
"139 516 OFFCURVE",
"76 502 OFFCURVE",
"29 478 CURVE",
"29 406 LINE",
"83 434 OFFCURVE",
"133 448 OFFCURVE",
"185 448 CURVE SMOOTH",
"295 448 OFFCURVE",
"353 379 OFFCURVE",
"353 252 CURVE SMOOTH",
"353 129 OFFCURVE",
"312 62 OFFCURVE",
"238 62 CURVE SMOOTH",
"210 62 LINE",
"229 42 LINE",
"229 250 LINE SMOOTH",
"229 307 OFFCURVE",
"193 341 OFFCURVE",
"133 341 CURVE SMOOTH",
"78 341 OFFCURVE",
"40 308 OFFCURVE",
"40 258 CURVE SMOOTH",
"40 207 OFFCURVE",
"74 174 OFFCURVE",
"125 174 CURVE SMOOTH",
"171 174 OFFCURVE",
"203 203 OFFCURVE",
"204 249 CURVE",
"191 258 LINE",
"190 226 OFFCURVE",
"176 209 OFFCURVE",
"154 203 CURVE",
"150 186 OFFCURVE",
"148 173 OFFCURVE",
"148 147 CURVE SMOOTH",
"148 0 LINE"
);
},
{
closed = 1;
nodes = (
"105 219 OFFCURVE",
"90 233 OFFCURVE",
"90 258 CURVE SMOOTH",
"90 281 OFFCURVE",
"105 296 OFFCURVE",
"130 296 CURVE SMOOTH",
"155 296 OFFCURVE",
"170 281 OFFCURVE",
"170 257 CURVE SMOOTH",
"170 233 OFFCURVE",
"155 219 OFFCURVE",
"130 219 CURVE SMOOTH"
);
}
);
width = 493;
},
{
anchors = (
{
name = bottom;
position = "{254, 0}";
},
{
name = top;
position = "{254, 501}";
}
);
layerId = "54E3FB14-E6D2-4DF3-BA4A-5621168F9335";
paths = (
{
closed = 1;
nodes = (
"141 0 LINE SMOOTH",
"214 0 OFFCURVE",
"261 96 OFFCURVE",
"261 248 CURVE SMOOTH",
"261 431 OFFCURVE",
"219 508 OFFCURVE",
"116 508 CURVE SMOOTH",
"79 508 OFFCURVE",
"44 498 OFFCURVE",
"18 483 CURVE",
"18 456 LINE",
"46 474 OFFCURVE",
"79 486 OFFCURVE",
"114 486 CURVE SMOOTH",
"202 486 OFFCURVE",
"236 417 OFFCURVE",
"236 248 CURVE SMOOTH",
"236 115 OFFCURVE",
"198 21 OFFCURVE",
"142 21 CURVE SMOOTH",
"123 21 LINE",
"131 9 LINE",
"131 260 LINE SMOOTH",
"131 306 OFFCURVE",
"112 333 OFFCURVE",
"79 333 CURVE SMOOTH",
"48 333 OFFCURVE",
"29 307 OFFCURVE",
"29 260 CURVE SMOOTH",
"29 216 OFFCURVE",
"47 187 OFFCURVE",
"76 187 CURVE SMOOTH",
"103 187 OFFCURVE",
"118 212 OFFCURVE",
"118 260 CURVE",
"115 260 LINE",
"115 246 OFFCURVE",
"113 233 OFFCURVE",
"109 225 CURVE",
"107 212 OFFCURVE",
"106 200 OFFCURVE",
"106 176 CURVE SMOOTH",
"106 0 LINE"
);
},
{
closed = 1;
nodes = (
"60 208 OFFCURVE",
"50 228 OFFCURVE",
"50 260 CURVE SMOOTH",
"50 293 OFFCURVE",
"60 313 OFFCURVE",
"78 313 CURVE SMOOTH",
"96 313 OFFCURVE",
"107 294 OFFCURVE",
"107 260 CURVE SMOOTH",
"107 228 OFFCURVE",
"97 208 OFFCURVE",
"78 208 CURVE SMOOTH"
);
}
);
width = 296;
},
{
anchors = (
{
name = bottom;
position = "{381, 0}";
},
{
name = top;
position = "{381, 514}";
}
);
layerId = "E703E12A-5DA7-48FA-B69F-BB282FBD8E56";
paths = (
{
closed = 1;
nodes = (
"215 0 LINE SMOOTH",
"338 0 OFFCURVE",
"398 86 OFFCURVE",
"398 259 CURVE SMOOTH",
"398 428 OFFCURVE",
"319 528 OFFCURVE",
"185 528 CURVE SMOOTH",
"121 528 OFFCURVE",
"57 512 OFFCURVE",
"21 490 CURVE",
"21 351 LINE",
"65 377 OFFCURVE",
"103 390 OFFCURVE",
"142 390 CURVE SMOOTH",
"209 390 OFFCURVE",
"242 348 OFFCURVE",
"242 259 CURVE SMOOTH",
"242 138 OFFCURVE",
"237 122 OFFCURVE",
"199 122 CURVE SMOOTH",
"191 122 LINE",
"217 91 LINE",
"217 233 LINE SMOOTH",
"217 315 OFFCURVE",
"185 353 OFFCURVE",
"116 353 CURVE SMOOTH",
"59 353 OFFCURVE",
"18 313 OFFCURVE",
"18 254 CURVE SMOOTH",
"18 194 OFFCURVE",
"48 156 OFFCURVE",
"95 156 CURVE SMOOTH",
"144 156 OFFCURVE",
"164 173 OFFCURVE",
"181 233 CURVE",
"159 257 LINE",
"159 217 OFFCURVE",
"125 179 OFFCURVE",
"88 180 CURVE",
"82 162 OFFCURVE",
"80 143 OFFCURVE",
"80 101 CURVE SMOOTH",
"80 0 LINE"
);
},
{
closed = 1;
nodes = (
"94 222 OFFCURVE",
"82 234 OFFCURVE",
"82 253 CURVE SMOOTH",
"82 273 OFFCURVE",
"94 285 OFFCURVE",
"110 285 CURVE SMOOTH",
"126 285 OFFCURVE",
"137 272 OFFCURVE",
"137 253 CURVE SMOOTH",
"137 234 OFFCURVE",
"126 222 OFFCURVE",
"110 222 CURVE SMOOTH"
);
}
);
width = 415;
},
{
anchors = (
{
name = bottom;
position = "{304, 0}";
},
{
name = top;
position = "{303, 506}";
}
);
layerId = "94F80E8F-7C96-497F-B870-569C37B7A2A5";
paths = (
{
closed = 1;
nodes = (
"170 0 LINE SMOOTH",
"263 0 OFFCURVE",
"315 91 OFFCURVE",
"315 252 CURVE SMOOTH",
"315 430 OFFCURVE",
"258 516 OFFCURVE",
"143 516 CURVE SMOOTH",
"101 516 OFFCURVE",
"53 504 OFFCURVE",
"19 485 CURVE",
"19 414 LINE",
"58 438 OFFCURVE",
"93 449 OFFCURVE",
"128 449 CURVE SMOOTH",
"205 449 OFFCURVE",
"238 389 OFFCURVE",
"238 252 CURVE SMOOTH",
"238 127 OFFCURVE",
"215 61 OFFCURVE",
"167 61 CURVE SMOOTH",
"150 61 LINE",
"167 41 LINE",
"167 245 LINE SMOOTH",
"167 306 OFFCURVE",
"141 341 OFFCURVE",
"94 341 CURVE SMOOTH",
"52 341 OFFCURVE",
"25 308 OFFCURVE",
"25 258 CURVE SMOOTH",
"25 208 OFFCURVE",
"47 175 OFFCURVE",
"83 175 CURVE SMOOTH",
"117 175 OFFCURVE",
"136 193 OFFCURVE",
"143 249 CURVE",
"135 253 LINE",
"132 221 OFFCURVE",
"120 197 OFFCURVE",
"99 190 CURVE",
"97 180 OFFCURVE",
"96 172 OFFCURVE",
"96 147 CURVE SMOOTH",
"96 0 LINE"
);
},
{
closed = 1;
nodes = (
"74 213 OFFCURVE",
"65 229 OFFCURVE",
"65 257 CURVE SMOOTH",
"65 285 OFFCURVE",
"74 302 OFFCURVE",
"90 302 CURVE SMOOTH",
"107 302 OFFCURVE",
"116 285 OFFCURVE",
"116 257 CURVE SMOOTH",
"116 229 OFFCURVE",
"107 213 OFFCURVE",
"90 213 CURVE SMOOTH"
);
}
);
width = 343;
}
);
leftKerningGroup = "choChan-thai";
rightKerningGroup = "choChan-thai";
unicode = 0E08;
},
{
glyphname = "choChan_macronbelowcomb-thai";
lastChange = "2022-10-16 03:44:57 +0000";
layers = (
{
anchors = (
{
name = bottom;
position = "{399, -93}";
}
);
components = (
{
name = "choChan-thai";
}
);
layerId = "90A34054-68E4-499D-AE50-276C7B026D8B";
paths = (
{
closed = 1;
nodes = (
"399 -93 LINE",
"399 -70 LINE",
"81 -70 LINE",
"81 -93 LINE"
);
}
);
width = 456;
},
{
anchors = (
{
name = bottom;
position = "{481, -212}";
}
);
components = (
{
name = "choChan-thai";
}
);
layerId = "EB3A5D6C-8260-43A6-9EF2-63971FC08D48";
paths = (
{
closed = 1;
nodes = (
"481 -212 LINE",
"481 -70 LINE",
"37 -70 LINE",
"37 -212 LINE"
);
}
);
width = 547;
},
{
anchors = (
{
name = bottom;
position = "{432, -140}";
}
);
components = (
{
alignment = -1;
name = "choChan-thai";
}
);
hints = (
{
horizontal = 1;
origin = "{0, 3}";
target = "{0, 2}";
type = Stem;
}
);
layerId = "9148514D-BEB8-4275-B264-8F51401A425F";
paths = (
{
closed = 1;
nodes = (
"432 -140 LINE",
"432 -69 LINE",
"63 -69 LINE",
"63 -140 LINE"
);
}
);
width = 493;
},
{
anchors = (
{
name = bottom;
position = "{261, -93}";
}
);
components = (
{
name = "choChan-thai";
}
);
layerId = "54E3FB14-E6D2-4DF3-BA4A-5621168F9335";
paths = (
{
closed = 1;
nodes = (
"261 -93 LINE",
"261 -70 LINE",
"50 -70 LINE",
"50 -93 LINE"
);
}
);
width = 296;
},
{
anchors = (
{
name = bottom;
position = "{374, -212}";
}
);
components = (
{
name = "choChan-thai";
}
);
layerId = "E703E12A-5DA7-48FA-B69F-BB282FBD8E56";
paths = (
{
closed = 1;
nodes = (
"374 -212 LINE",
"374 -70 LINE",
"25 -70 LINE",
"25 -212 LINE"
);
}
);
width = 415;
},
{
anchors = (
{
name = bottom;
position = "{309, -140}";
}
);
components = (
{
alignment = -1;
name = "choChan-thai";
}
);
layerId = "94F80E8F-7C96-497F-B870-569C37B7A2A5";
paths = (
{
closed = 1;
nodes = (
"309 -140 LINE",
"309 -70 LINE",
"40 -70 LINE",
"40 -140 LINE"
);
}
);
width = 343;
}
);
leftKerningGroup = "choChan-thai";
leftMetricsKey = "choChan-thai";
rightKerningGroup = "choChan-thai";
rightMetricsKey = "choChan-thai";
script = thai;
category = Letter;
subCategory = Other;
},
{
glyphname = "choChing-thai";
lastChange = "2022-10-16 03:44:57 +0000";
layers = (
{
anchors = (
{
name = bottom;
position = "{551, 0}";
},
{
name = top;
position = "{541, 514}";
}
);
layerId = "EB3A5D6C-8260-43A6-9EF2-63971FC08D48";
paths = (
{
closed = 1;
nodes = (
"284 0 LINE",
"301 60 OFFCURVE",
"332 88 OFFCURVE",
"429 147 CURVE",
"446 162 LINE",
"532 208 OFFCURVE",
"551 231 OFFCURVE",
"551 280 CURVE SMOOTH",
"551 346 LINE SMOOTH",
"551 460 OFFCURVE",
"448 528 OFFCURVE",
"279 528 CURVE SMOOTH",
"198 528 OFFCURVE",
"104 512 OFFCURVE",
"43 490 CURVE",
"43 349 LINE",
"129 380 OFFCURVE",
"186 391 OFFCURVE",
"242 391 CURVE SMOOTH",
"330 391 OFFCURVE",
"365 371 OFFCURVE",
"365 322 CURVE SMOOTH",
"365 261 LINE SMOOTH",
"365 230 OFFCURVE",
"363 222 OFFCURVE",
"343 210 CURVE SMOOTH",
"312 192 OFFCURVE",
"301 175 OFFCURVE",
"292 157 CURVE",
"288 157 LINE",
"291 184 OFFCURVE",
"292 209 OFFCURVE",
"292 229 CURVE SMOOTH",
"292 234 LINE SMOOTH",
"292 305 OFFCURVE",
"243 347 OFFCURVE",
"163 347 CURVE SMOOTH",
"83 347 OFFCURVE",
"32 303 OFFCURVE",
"32 234 CURVE SMOOTH",
"32 169 OFFCURVE",
"80 122 OFFCURVE",
"148 122 CURVE SMOOTH",
"208 122 OFFCURVE",
"245 155 OFFCURVE",
"245 211 CURVE",
"228 211 LINE",
"225 165 OFFCURVE",
"184 140 OFFCURVE",
"118 141 CURVE",
"108 110 OFFCURVE",
"106 100 OFFCURVE",
"106 75 CURVE SMOOTH",
"106 0 LINE"
);
},
{
closed = 1;
nodes = (
"133 200 OFFCURVE",
"119 213 OFFCURVE",
"119 234 CURVE SMOOTH",
"119 256 OFFCURVE",
"133 269 OFFCURVE",
"156 269 CURVE SMOOTH",
"179 269 OFFCURVE",
"194 257 OFFCURVE",
"194 234 CURVE SMOOTH",
"194 212 OFFCURVE",
"179 200 OFFCURVE",
"156 200 CURVE SMOOTH"
);
},
{
closed = 1;
nodes = (
"533 -10 OFFCURVE",
"583 36 OFFCURVE",
"583 102 CURVE SMOOTH",
"583 167 OFFCURVE",
"533 213 OFFCURVE",
"460 213 CURVE SMOOTH",
"387 213 OFFCURVE",
"337 167 OFFCURVE",
"337 102 CURVE SMOOTH",
"337 36 OFFCURVE",
"387 -10 OFFCURVE",
"460 -10 CURVE SMOOTH"
);
},
{
closed = 1;
nodes = (
"437 69 OFFCURVE",
"423 81 OFFCURVE",
"423 103 CURVE SMOOTH",
"423 124 OFFCURVE",
"437 137 OFFCURVE",
"460 137 CURVE SMOOTH",
"483 137 OFFCURVE",
"497 124 OFFCURVE",
"497 103 CURVE SMOOTH",
"497 81 OFFCURVE",
"483 69 OFFCURVE",
"460 69 CURVE SMOOTH"
);
}
);
userData = {
com.schriftgestaltung.Glyphs.glyph.rightMetricsKey = "khoKhwai-thai";
};
width = 620;
},
{
anchors = (
{
name = bottom;
position = "{445, 0}";
},
{
name = top;
position = "{435, 501}";
}
);
layerId = "90A34054-68E4-499D-AE50-276C7B026D8B";
paths = (
{
closed = 1;
nodes = (
"182 0 LINE",
"223 40 OFFCURVE",
"283 75 OFFCURVE",
"366 115 CURVE",
"376 129 LINE",
"431 147 OFFCURVE",
"445 160 OFFCURVE",
"445 221 CURVE SMOOTH",
"445 339 LINE SMOOTH",
"445 450 OFFCURVE",
"380 508 OFFCURVE",
"254 508 CURVE SMOOTH",
"181 508 OFFCURVE",
"108 488 OFFCURVE",
"54 453 CURVE",
"54 426 LINE",
"111 463 OFFCURVE",
"180 485 OFFCURVE",
"252 485 CURVE SMOOTH",
"364 485 OFFCURVE",
"420 435 OFFCURVE",
"420 334 CURVE SMOOTH",
"420 221 LINE SMOOTH",
"420 173 OFFCURVE",
"411 155 OFFCURVE",
"344 127 CURVE SMOOTH",
"285 102 OFFCURVE",
"215 59 OFFCURVE",
"188 33 CURVE",
"185 33 LINE",
"185 80 OFFCURVE",
"185 121 OFFCURVE",
"185 177 CURVE SMOOTH",
"185 249 LINE SMOOTH",
"185 287 OFFCURVE",
"161 322 OFFCURVE",
"111 322 CURVE SMOOTH",
"66 322 OFFCURVE",
"36 293 OFFCURVE",
"36 249 CURVE SMOOTH",
"36 205 OFFCURVE",
"65 175 OFFCURVE",
"110 175 CURVE SMOOTH",
"157 175 OFFCURVE",
"174 210 OFFCURVE",
"174 248 CURVE",
"170 248 LINE",
"170 232 OFFCURVE",
"167 220 OFFCURVE",
"163 214 CURVE",
"160 198 OFFCURVE",
"160 181 OFFCURVE",
"160 165 CURVE SMOOTH",
"160 0 LINE"
);
},
{
closed = 1;
nodes = (
"80 196 OFFCURVE",
"59 218 OFFCURVE",
"59 249 CURVE SMOOTH",
"59 279 OFFCURVE",
"80 301 OFFCURVE",
"110 301 CURVE SMOOTH",
"141 301 OFFCURVE",
"162 279 OFFCURVE",
"162 249 CURVE SMOOTH",
"162 218 OFFCURVE",
"141 196 OFFCURVE",
"110 196 CURVE SMOOTH"
);
},
{
closed = 1;
nodes = (
"453 -5 OFFCURVE",
"484 26 OFFCURVE",
"484 70 CURVE SMOOTH",
"484 113 OFFCURVE",
"454 142 OFFCURVE",
"410 142 CURVE SMOOTH",
"363 142 OFFCURVE",
"330 112 OFFCURVE",
"330 70 CURVE SMOOTH",
"330 26 OFFCURVE",
"361 -5 OFFCURVE",
"407 -5 CURVE SMOOTH"
);
},
{
closed = 1;
nodes = (
"376 17 OFFCURVE",
"353 39 OFFCURVE",
"353 71 CURVE SMOOTH",
"353 102 OFFCURVE",
"376 124 OFFCURVE",
"407 124 CURVE SMOOTH",
"439 124 OFFCURVE",
"461 102 OFFCURVE",
"461 71 CURVE SMOOTH",
"461 39 OFFCURVE",
"439 17 OFFCURVE",
"407 17 CURVE SMOOTH"
);
}
);
width = 537;
},
{
anchors = (
{
name = bottom;
position = "{488, 0}";
},
{
name = top;
position = "{478, 506}";
}
);
hints = (
{
horizontal = 1;
origin = "{0, 11}";
target = "{0, 18}";
type = Stem;
},
{
origin = "{0, 22}";
target = "{0, 7}";
type = Stem;
},
{
horizontal = 1;
origin = "{0, 53}";
target = up;
type = BottomGhost;
},
{
origin = "{0, 53}";
target = "{0, 32}";
type = Stem;
},
{
horizontal = 1;
origin = "{2, 11}";
target = "{3, 11}";
type = Stem;
}
);
layerId = "9148514D-BEB8-4275-B264-8F51401A425F";
paths = (
{
closed = 1;
nodes = (
"223 0 LINE",
"255 46 OFFCURVE",
"296 77 OFFCURVE",
"391 128 CURVE",
"404 142 LINE",
"474 172 OFFCURVE",
"488 191 OFFCURVE",
"488 245 CURVE SMOOTH",
"488 342 LINE SMOOTH",
"488 453 OFFCURVE",
"408 516 OFFCURVE",
"264 516 CURVE SMOOTH",
"187 516 OFFCURVE",
"105 498 OFFCURVE",
"50 468 CURVE",
"50 395 LINE",
"119 431 OFFCURVE",
"185 448 OFFCURVE",
"248 448 CURVE SMOOTH",
"350 448 OFFCURVE",
"398 409 OFFCURVE",
"398 329 CURVE SMOOTH",
"398 237 LINE SMOOTH",
"398 191 OFFCURVE",
"391 183 OFFCURVE",
"344 161 CURVE SMOOTH",
"300 141 OFFCURVE",
"246 103 OFFCURVE",
"229 82 CURVE",
"227 82 LINE",
"228 108 OFFCURVE",
"228 122 OFFCURVE",
"228 206 CURVE SMOOTH",
"228 252 LINE SMOOTH",
"228 306 OFFCURVE",
"190 340 OFFCURVE",
"131 340 CURVE SMOOTH",
"72 340 OFFCURVE",
"34 305 OFFCURVE",
"34 252 CURVE SMOOTH",
"34 199 OFFCURVE",
"71 162 OFFCURVE",
"125 162 CURVE SMOOTH",
"173 162 OFFCURVE",
"202 192 OFFCURVE",
"202 241 CURVE",
"193 241 LINE",
"191 212 OFFCURVE",
"174 197 OFFCURVE",
"147 193 CURVE",
"143 175 OFFCURVE",
"141 160 OFFCURVE",
"141 137 CURVE SMOOTH",
"141 0 LINE"
);
},
{
closed = 1;
nodes = (
"104 212 OFFCURVE",
"89 227 OFFCURVE",
"89 252 CURVE SMOOTH",
"89 275 OFFCURVE",
"104 289 OFFCURVE",
"129 289 CURVE SMOOTH",
"154 289 OFFCURVE",
"169 275 OFFCURVE",
"169 251 CURVE SMOOTH",
"169 226 OFFCURVE",
"154 212 OFFCURVE",
"129 212 CURVE SMOOTH"
);
},
{
closed = 1;
nodes = (
"486 -7 OFFCURVE",
"524 29 OFFCURVE",
"524 83 CURVE SMOOTH",
"524 136 OFFCURVE",
"487 171 OFFCURVE",
"430 171 CURVE SMOOTH",
"371 171 OFFCURVE",
"334 136 OFFCURVE",
"334 83 CURVE SMOOTH",
"334 29 OFFCURVE",
"371 -7 OFFCURVE",
"428 -7 CURVE SMOOTH"
);
},
{
closed = 1;
nodes = (
"404 44 OFFCURVE",
"389 58 OFFCURVE",
"389 83 CURVE SMOOTH",
"389 107 OFFCURVE",
"404 121 OFFCURVE",
"429 121 CURVE SMOOTH",
"454 121 OFFCURVE",
"469 107 OFFCURVE",
"469 83 CURVE SMOOTH",
"469 58 OFFCURVE",
"454 44 OFFCURVE",
"429 44 CURVE SMOOTH"
);
}
);
width = 571;
},
{
anchors = (
{
name = bottom;
position = "{292, 0}";
},
{
name = top;
position = "{286, 501}";
}
);
layerId = "54E3FB14-E6D2-4DF3-BA4A-5621168F9335";
paths = (
{
closed = 1;
nodes = (
"123 0 LINE",
"146 34 OFFCURVE",
"173 61 OFFCURVE",
"238 111 CURVE",
"245 124 LINE",
"283 143 OFFCURVE",
"292 159 OFFCURVE",
"292 217 CURVE SMOOTH",
"292 365 LINE SMOOTH",
"292 460 OFFCURVE",
"249 508 OFFCURVE",
"165 508 CURVE SMOOTH",
"118 508 OFFCURVE",
"70 494 OFFCURVE",
"35 464 CURVE",
"35 435 LINE",
"75 469 OFFCURVE",
"117 486 OFFCURVE",
"163 486 CURVE SMOOTH",
"232 486 OFFCURVE",
"267 445 OFFCURVE",
"267 361 CURVE SMOOTH",
"267 216 LINE SMOOTH",
"267 165 OFFCURVE",
"260 148 OFFCURVE",
"219 121 CURVE SMOOTH",
"182 96 OFFCURVE",
"146 62 OFFCURVE",
"126 36 CURVE",
"125 36 LINE",
"125 88 OFFCURVE",
"125 140 OFFCURVE",
"125 195 CURVE SMOOTH",
"125 260 LINE SMOOTH",
"125 306 OFFCURVE",
"106 333 OFFCURVE",
"74 333 CURVE SMOOTH",
"42 333 OFFCURVE",
"23 307 OFFCURVE",
"23 260 CURVE SMOOTH",
"23 213 OFFCURVE",
"43 187 OFFCURVE",
"71 187 CURVE SMOOTH",
"99 187 OFFCURVE",
"112 214 OFFCURVE",
"112 260 CURVE",
"110 260 LINE",
"109 245 OFFCURVE",
"108 234 OFFCURVE",
"104 225 CURVE",
"101 209 OFFCURVE",
"100 193 OFFCURVE",
"100 176 CURVE SMOOTH",
"100 0 LINE"
);
},
{
closed = 1;
nodes = (
"55 207 OFFCURVE",
"45 226 OFFCURVE",
"45 260 CURVE SMOOTH",
"45 294 OFFCURVE",
"55 312 OFFCURVE",
"73 312 CURVE SMOOTH",
"91 312 OFFCURVE",
"101 293 OFFCURVE",
"101 260 CURVE SMOOTH",
"101 227 OFFCURVE",
"91 207 OFFCURVE",
"73 207 CURVE SMOOTH"
);
},
{
closed = 1;
nodes = (
"296 -5 OFFCURVE",
"314 23 OFFCURVE",
"314 69 CURVE SMOOTH",
"314 115 OFFCURVE",
"297 142 OFFCURVE",
"266 142 CURVE SMOOTH",
"236 142 OFFCURVE",
"215 115 OFFCURVE",
"215 69 CURVE SMOOTH",
"215 23 OFFCURVE",
"232 -5 OFFCURVE",
"265 -5 CURVE SMOOTH"
);
},
{
closed = 1;
nodes = (
"247 16 OFFCURVE",
"236 35 OFFCURVE",
"236 69 CURVE SMOOTH",
"236 101 OFFCURVE",
"246 121 OFFCURVE",
"265 121 CURVE SMOOTH",
"283 121 OFFCURVE",
"293 101 OFFCURVE",
"293 69 CURVE SMOOTH",
"293 36 OFFCURVE",
"283 16 OFFCURVE",
"265 16 CURVE SMOOTH"
);
}
);
width = 349;
},
{
anchors = (
{
name = bottom;
position = "{431, 0}";
},
{
name = top;
position = "{425, 514}";
}
);
layerId = "E703E12A-5DA7-48FA-B69F-BB282FBD8E56";
paths = (
{
closed = 1;
nodes = (
"227 0 LINE",
"237 61 OFFCURVE",
"258 90 OFFCURVE",
"334 148 CURVE",
"348 162 LINE",
"415 209 OFFCURVE",
"431 231 OFFCURVE",
"431 281 CURVE SMOOTH",
"431 342 LINE SMOOTH",
"431 457 OFFCURVE",
"349 528 OFFCURVE",
"216 528 CURVE SMOOTH",
"150 528 OFFCURVE",
"75 512 OFFCURVE",
"33 491 CURVE",
"33 348 LINE",
"93 379 OFFCURVE",
"143 390 OFFCURVE",
"188 390 CURVE SMOOTH",
"249 390 OFFCURVE",
"275 370 OFFCURVE",
"275 319 CURVE SMOOTH",
"275 261 LINE SMOOTH",
"275 235 OFFCURVE",
"273 228 OFFCURVE",
"257 206 CURVE SMOOTH",
"242 185 OFFCURVE",
"235 173 OFFCURVE",
"232 156 CURVE",
"230 156 LINE",
"232 193 OFFCURVE",
"233 214 OFFCURVE",
"233 227 CURVE SMOOTH",
"233 242 LINE SMOOTH",
"233 309 OFFCURVE",
"196 346 OFFCURVE",
"131 346 CURVE SMOOTH",
"67 346 OFFCURVE",
"25 302 OFFCURVE",
"25 234 CURVE SMOOTH",
"25 169 OFFCURVE",
"64 122 OFFCURVE",
"118 122 CURVE SMOOTH",
"164 122 OFFCURVE",
"194 156 OFFCURVE",
"194 211 CURVE",
"179 211 LINE",
"177 167 OFFCURVE",
"146 142 OFFCURVE",
"86 142 CURVE",
"79 110 OFFCURVE",
"77 97 OFFCURVE",
"77 74 CURVE SMOOTH",
"77 0 LINE"
);
},
{
closed = 1;
nodes = (
"107 200 OFFCURVE",
"95 213 OFFCURVE",
"95 234 CURVE SMOOTH",
"95 255 OFFCURVE",
"107 268 OFFCURVE",
"124 268 CURVE SMOOTH",
"141 268 OFFCURVE",
"152 254 OFFCURVE",
"152 234 CURVE SMOOTH",
"152 214 OFFCURVE",
"141 200 OFFCURVE",
"124 200 CURVE SMOOTH"
);
},
{
closed = 1;
nodes = (
"414 -10 OFFCURVE",
"454 37 OFFCURVE",
"454 102 CURVE SMOOTH",
"454 167 OFFCURVE",
"414 213 OFFCURVE",
"356 213 CURVE SMOOTH",
"299 213 OFFCURVE",
"259 167 OFFCURVE",
"259 102 CURVE SMOOTH",
"259 36 OFFCURVE",
"300 -10 OFFCURVE",
"357 -10 CURVE SMOOTH"
);
},
{
closed = 1;
nodes = (
"340 67 OFFCURVE",
"328 80 OFFCURVE",
"328 101 CURVE SMOOTH",
"328 121 OFFCURVE",
"339 134 OFFCURVE",
"357 134 CURVE SMOOTH",
"374 134 OFFCURVE",
"385 121 OFFCURVE",
"385 101 CURVE SMOOTH",
"385 81 OFFCURVE",
"374 67 OFFCURVE",
"357 67 CURVE SMOOTH"
);
}
);
userData = {
com.schriftgestaltung.Glyphs.glyph.rightMetricsKey = "khoKhwai-thai";
};
width = 475;
},
{
anchors = (
{
name = bottom;
position = "{346, 0}";
},
{
name = top;
position = "{340, 506}";
}
);
layerId = "94F80E8F-7C96-497F-B870-569C37B7A2A5";
paths = (
{
closed = 1;
nodes = (
"164 0 LINE",
"183 45 OFFCURVE",
"209 74 OFFCURVE",
"276 126 CURVE",
"286 139 LINE",
"334 169 OFFCURVE",
"346 187 OFFCURVE",
"346 242 CURVE SMOOTH",
"346 356 LINE SMOOTH",
"346 459 OFFCURVE",
"289 516 OFFCURVE",
"185 516 CURVE SMOOTH",
"130 516 OFFCURVE",
"73 500 OFFCURVE",
"34 474 CURVE",
"34 401 LINE",
"87 435 OFFCURVE",
"128 449 OFFCURVE",
"172 449 CURVE SMOOTH",
"239 449 OFFCURVE",
"269 417 OFFCURVE",
"269 344 CURVE SMOOTH",
"269 234 LINE SMOOTH",
"269 191 OFFCURVE",
"265 178 OFFCURVE",
"236 156 CURVE SMOOTH",
"208 135 OFFCURVE",
"183 110 OFFCURVE",
"168 83 CURVE",
"166 83 LINE",
"168 117 OFFCURVE",
"168 145 OFFCURVE",
"168 208 CURVE SMOOTH",
"168 251 LINE SMOOTH",
"168 305 OFFCURVE",
"140 338 OFFCURVE",
"96 338 CURVE SMOOTH",
"52 338 OFFCURVE",
"24 305 OFFCURVE",
"24 250 CURVE SMOOTH",
"24 196 OFFCURVE",
"51 161 OFFCURVE",
"90 161 CURVE SMOOTH",
"124 161 OFFCURVE",
"144 190 OFFCURVE",
"144 241 CURVE",
"137 241 LINE",
"136 209 OFFCURVE",
"116 178 OFFCURVE",
"97 176 CURVE",
"92 164 OFFCURVE",
"91 154 OFFCURVE",
"91 136 CURVE SMOOTH",
"91 0 LINE"
);
},
{
closed = 1;
nodes = (
"76 204 OFFCURVE",
"67 222 OFFCURVE",
"67 249 CURVE SMOOTH",
"67 278 OFFCURVE",
"77 294 OFFCURVE",
"93 294 CURVE SMOOTH",
"109 294 OFFCURVE",
"119 278 OFFCURVE",
"119 249 CURVE SMOOTH",
"119 220 OFFCURVE",
"109 204 OFFCURVE",
"93 204 CURVE SMOOTH"
);
},
{
closed = 1;
nodes = (
"343 -7 OFFCURVE",
"369 29 OFFCURVE",
"369 82 CURVE SMOOTH",
"369 135 OFFCURVE",
"343 170 OFFCURVE",
"301 170 CURVE SMOOTH",
"260 170 OFFCURVE",
"232 134 OFFCURVE",
"232 82 CURVE SMOOTH",
"232 28 OFFCURVE",
"259 -7 OFFCURVE",
"301 -7 CURVE SMOOTH"
);
},
{
closed = 1;
nodes = (
"284 37 OFFCURVE",
"275 54 OFFCURVE",
"275 82 CURVE SMOOTH",
"275 110 OFFCURVE",
"284 126 OFFCURVE",
"301 126 CURVE SMOOTH",
"317 126 OFFCURVE",
"326 110 OFFCURVE",
"326 82 CURVE SMOOTH",
"326 54 OFFCURVE",
"317 37 OFFCURVE",
"301 37 CURVE SMOOTH"
);
}
);
width = 399;
}
);
leftKerningGroup = "boBaimai-thai";
unicode = 0E09;
},
{
glyphname = "choChang-thai";
lastChange = "2022-10-16 03:44:57 +0000";
layers = (
{
anchors = (
{
name = bottom;
position = "{518, 0}";
},
{
name = top;
position = "{537, 514}";
}
);
layerId = "EB3A5D6C-8260-43A6-9EF2-63971FC08D48";
paths = (
{
closed = 1;
nodes = (
"395 0 LINE SMOOTH",
"474 0 OFFCURVE",
"518 44 OFFCURVE",
"518 122 CURVE SMOOTH",
"518 246 LINE SMOOTH",
"518 295 OFFCURVE",
"493 323 OFFCURVE",
"439 339 CURVE",
"439 342 LINE",
"507 358 OFFCURVE",
"537 405 OFFCURVE",
"537 490 CURVE SMOOTH",
"537 514 LINE",
"366 514 LINE",
"366 490 LINE SMOOTH",
"366 429 OFFCURVE",
"349 403 OFFCURVE",
"310 395 CURVE",
"310 298 LINE",
"325 295 OFFCURVE",
"336 280 OFFCURVE",
"336 254 CURVE SMOOTH",
"336 158 LINE SMOOTH",
"336 144 OFFCURVE",
"327 134 OFFCURVE",
"312 134 CURVE SMOOTH",
"264 134 LINE",
"264 223 LINE SMOOTH",
"264 269 OFFCURVE",
"265 300 OFFCURVE",
"274 333 CURVE SMOOTH",
"281 360 OFFCURVE",
"285 385 OFFCURVE",
"285 409 CURVE SMOOTH",
"285 479 OFFCURVE",
"234 521 OFFCURVE",
"152 521 CURVE SMOOTH",
"67 521 OFFCURVE",
"14 480 OFFCURVE",
"14 412 CURVE SMOOTH",
"14 350 OFFCURVE",
"56 312 OFFCURVE",
"122 312 CURVE SMOOTH",
"170 312 OFFCURVE",
"205 342 OFFCURVE",
"205 383 CURVE",
"154 359 LINE",
"171 342 OFFCURVE",
"168 327 OFFCURVE",
"147 315 CURVE SMOOTH",
"95 284 OFFCURVE",
"82 264 OFFCURVE",
"82 204 CURVE SMOOTH",
"82 127 LINE",
"47 103 LINE",
"47 0 LINE"
);
},
{
closed = 1;
nodes = (
"116 377 OFFCURVE",
"101 389 OFFCURVE",
"101 411 CURVE SMOOTH",
"101 433 OFFCURVE",
"115 445 OFFCURVE",
"138 445 CURVE SMOOTH",
"161 445 OFFCURVE",
"175 433 OFFCURVE",
"175 411 CURVE SMOOTH",
"175 389 OFFCURVE",
"161 377 OFFCURVE",
"138 377 CURVE SMOOTH"
);
}
);
userData = {
com.schriftgestaltung.Glyphs.glyph.leftMetricsKey = "khoKhai-thai";
};
width = 568;
},
{
anchors = (
{
name = bottom;
position = "{388, 0}";
},
{
name = top;
position = "{397, 501}";
}
);
layerId = "90A34054-68E4-499D-AE50-276C7B026D8B";
paths = (
{
closed = 1;
nodes = (
"314 0 LINE SMOOTH",
"364 0 OFFCURVE",
"388 24 OFFCURVE",
"388 76 CURVE SMOOTH",
"388 249 LINE SMOOTH",
"388 305 OFFCURVE",
"363 336 OFFCURVE",
"315 347 CURVE",
"315 348 LINE",
"370 364 OFFCURVE",
"397 409 OFFCURVE",
"397 481 CURVE SMOOTH",
"397 501 LINE",
"372 501 LINE",
"372 481 LINE SMOOTH",
"372 401 OFFCURVE",
"337 360 OFFCURVE",
"266 357 CURVE",
"266 338 LINE",
"331 336 OFFCURVE",
"363 308 OFFCURVE",
"363 249 CURVE SMOOTH",
"363 79 LINE SMOOTH",
"363 39 OFFCURVE",
"346 23 OFFCURVE",
"308 23 CURVE SMOOTH",
"133 23 LINE",
"133 193 LINE SMOOTH",
"133 241 OFFCURVE",
"139 269 OFFCURVE",
"160 302 CURVE SMOOTH",
"192 353 OFFCURVE",
"202 383 OFFCURVE",
"202 423 CURVE SMOOTH",
"202 473 OFFCURVE",
"172 504 OFFCURVE",
"125 504 CURVE SMOOTH",
"80 504 OFFCURVE",
"49 475 OFFCURVE",
"49 431 CURVE SMOOTH",
"49 388 OFFCURVE",
"79 359 OFFCURVE",
"123 359 CURVE SMOOTH",
"163 359 OFFCURVE",
"188 386 OFFCURVE",
"188 431 CURVE",
"179 402 LINE",
"181 383 OFFCURVE",
"169 355 OFFCURVE",
"142 316 CURVE SMOOTH",
"117 279 OFFCURVE",
"108 256 OFFCURVE",
"108 194 CURVE SMOOTH",
"108 22 LINE",
"61 18 LINE",
"61 0 LINE"
);
},
{
closed = 1;
nodes = (
"93 379 OFFCURVE",
"72 400 OFFCURVE",
"72 431 CURVE SMOOTH",
"72 462 OFFCURVE",
"93 483 OFFCURVE",
"124 483 CURVE SMOOTH",
"156 483 OFFCURVE",
"177 462 OFFCURVE",
"177 431 CURVE SMOOTH",
"177 400 OFFCURVE",
"156 379 OFFCURVE",
"124 379 CURVE SMOOTH"
);
}
);
width = 475;
},
{
anchors = (
{
name = bottom;
position = "{438, 0}";
},
{
name = top;
position = "{452, 506}";
}
);
hints = (
{
horizontal = 1;
origin = "{0, 13}";
target = down;
type = TopGhost;
},
{
origin = "{0, 22}";
target = "{0, 3}";
type = Stem;
},
{
horizontal = 1;
origin = "{0, 36}";
target = "{1, 5}";
type = Stem;
},
{
origin = "{0, 53}";
target = "{0, 26}";
type = Stem;
},
{
horizontal = 1;
origin = "{0, 55}";
target = "{0, 26}";
type = Stem;
}
);
layerId = "9148514D-BEB8-4275-B264-8F51401A425F";
paths = (
{
closed = 1;
nodes = (
"345 0 LINE SMOOTH",
"408 0 OFFCURVE",
"438 34 OFFCURVE",
"438 103 CURVE SMOOTH",
"438 250 LINE SMOOTH",
"438 301 OFFCURVE",
"413 331 OFFCURVE",
"363 344 CURVE",
"363 346 LINE",
"423 362 OFFCURVE",
"452 407 OFFCURVE",
"452 485 CURVE SMOOTH",
"452 506 LINE",
"368 506 LINE",
"368 485 LINE SMOOTH",
"368 413 OFFCURVE",
"339 377 OFFCURVE",
"277 372 CURVE",
"277 322 LINE",
"327 317 OFFCURVE",
"348 297 OFFCURVE",
"348 259 CURVE SMOOTH",
"348 108 LINE SMOOTH",
"348 79 OFFCURVE",
"335 65 OFFCURVE",
"307 65 CURVE SMOOTH",
"185 65 LINE",
"185 205 LINE SMOOTH",
"185 257 OFFCURVE",
"191 286 OFFCURVE",
"212 329 CURVE SMOOTH",
"230 366 OFFCURVE",
"235 390 OFFCURVE",
"235 415 CURVE SMOOTH",
"235 477 OFFCURVE",
"198 511 OFFCURVE",
"134 511 CURVE SMOOTH",
"73 511 OFFCURVE",
"35 477 OFFCURVE",
"35 423 CURVE SMOOTH",
"35 372 OFFCURVE",
"70 340 OFFCURVE",
"123 340 CURVE SMOOTH",
"167 340 OFFCURVE",
"194 369 OFFCURVE",
"194 412 CURVE",
"169 385 LINE",
"171 366 OFFCURVE",
"154 339 OFFCURVE",
"135 315 CURVE SMOOTH",
"103 274 OFFCURVE",
"95 257 OFFCURVE",
"95 215 CURVE SMOOTH",
"95 64 LINE",
"53 51 LINE",
"53 0 LINE"
);
},
{
closed = 1;
nodes = (
"105 383 OFFCURVE",
"90 398 OFFCURVE",
"90 422 CURVE SMOOTH",
"90 446 OFFCURVE",
"105 461 OFFCURVE",
"130 461 CURVE SMOOTH",
"155 461 OFFCURVE",
"170 447 OFFCURVE",
"170 422 CURVE SMOOTH",
"170 398 OFFCURVE",
"155 383 OFFCURVE",
"130 383 CURVE SMOOTH"
);
}
);
width = 511;
},
{
anchors = (
{
name = bottom;
position = "{256, 0}";
},
{
name = top;
position = "{263, 501}";
}
);
layerId = "54E3FB14-E6D2-4DF3-BA4A-5621168F9335";
paths = (
{
closed = 1;
nodes = (
"198 0 LINE SMOOTH",
"239 0 OFFCURVE",
"256 21 OFFCURVE",
"256 66 CURVE SMOOTH",
"256 249 LINE SMOOTH",
"256 305 OFFCURVE",
"240 336 OFFCURVE",
"209 347 CURVE",
"209 348 LINE",
"243 364 OFFCURVE",
"263 406 OFFCURVE",
"263 481 CURVE SMOOTH",
"263 501 LINE",
"238 501 LINE",
"238 481 LINE SMOOTH",
"238 403 OFFCURVE",
"217 360 OFFCURVE",
"172 357 CURVE",
"172 338 LINE",
"213 336 OFFCURVE",
"231 307 OFFCURVE",
"231 249 CURVE SMOOTH",
"231 69 LINE SMOOTH",
"231 33 OFFCURVE",
"222 22 OFFCURVE",
"193 22 CURVE SMOOTH",
"93 22 LINE",
"93 193 LINE SMOOTH",
"93 246 OFFCURVE",
"97 271 OFFCURVE",
"109 302 CURVE SMOOTH",
"128 350 OFFCURVE",
"134 375 OFFCURVE",
"134 423 CURVE SMOOTH",
"134 476 OFFCURVE",
"117 504 OFFCURVE",
"82 504 CURVE SMOOTH",
"49 504 OFFCURVE",
"30 478 OFFCURVE",
"30 431 CURVE SMOOTH",
"30 385 OFFCURVE",
"49 359 OFFCURVE",
"80 359 CURVE SMOOTH",
"105 359 OFFCURVE",
"122 386 OFFCURVE",
"122 431 CURVE",
"118 431 LINE",
"120 394 OFFCURVE",
"112 363 OFFCURVE",
"90 314 CURVE SMOOTH",
"73 277 OFFCURVE",
"68 251 OFFCURVE",
"68 193 CURVE SMOOTH",
"68 22 LINE",
"38 18 LINE",
"38 0 LINE"
);
},
{
closed = 1;
nodes = (
"62 379 OFFCURVE",
"52 397 OFFCURVE",
"52 431 CURVE SMOOTH",
"52 465 OFFCURVE",
"62 484 OFFCURVE",
"80 484 CURVE SMOOTH",
"98 484 OFFCURVE",
"108 464 OFFCURVE",
"108 431 CURVE SMOOTH",
"108 398 OFFCURVE",
"98 379 OFFCURVE",
"80 379 CURVE SMOOTH"
);
}
);
width = 310;
},
{
anchors = (
{
name = bottom;
position = "{408, 0}";
},
{
name = top;
position = "{423, 514}";
}
);
layerId = "E703E12A-5DA7-48FA-B69F-BB282FBD8E56";
paths = (
{
closed = 1;
nodes = (
"300 0 LINE SMOOTH",
"373 0 OFFCURVE",
"408 43 OFFCURVE",
"408 124 CURVE SMOOTH",
"408 246 LINE SMOOTH",
"408 293 OFFCURVE",
"390 323 OFFCURVE",
"347 339 CURVE",
"347 342 LINE",
"400 358 OFFCURVE",
"423 404 OFFCURVE",
"423 490 CURVE SMOOTH",
"423 514 LINE",
"280 514 LINE",
"280 490 LINE SMOOTH",
"280 431 OFFCURVE",
"269 403 OFFCURVE",
"242 395 CURVE",
"242 298 LINE",
"249 294 OFFCURVE",
"255 275 OFFCURVE",
"255 255 CURVE SMOOTH",
"255 160 LINE SMOOTH",
"255 144 OFFCURVE",
"247 135 OFFCURVE",
"230 135 CURVE SMOOTH",
"213 135 LINE",
"213 223 LINE SMOOTH",
"213 268 OFFCURVE",
"213 300 OFFCURVE",
"218 333 CURVE SMOOTH",
"223 363 OFFCURVE",
"224 388 OFFCURVE",
"224 409 CURVE SMOOTH",
"224 478 OFFCURVE",
"183 521 OFFCURVE",
"119 521 CURVE SMOOTH",
"51 521 OFFCURVE",
"8 480 OFFCURVE",
"8 412 CURVE SMOOTH",
"8 350 OFFCURVE",
"41 312 OFFCURVE",
"94 312 CURVE SMOOTH",
"131 312 OFFCURVE",
"156 340 OFFCURVE",
"156 383 CURVE",
"115 354 LINE",
"132 337 OFFCURVE",
"127 324 OFFCURVE",
"113 314 CURVE SMOOTH",
"72 285 OFFCURVE",
"62 261 OFFCURVE",
"62 206 CURVE SMOOTH",
"62 127 LINE",
"35 103 LINE",
"35 0 LINE"
);
},
{
closed = 1;
nodes = (
"90 377 OFFCURVE",
"78 390 OFFCURVE",
"78 411 CURVE SMOOTH",
"78 432 OFFCURVE",
"90 444 OFFCURVE",
"107 444 CURVE SMOOTH",
"124 444 OFFCURVE",
"135 431 OFFCURVE",
"135 411 CURVE SMOOTH",
"135 391 OFFCURVE",
"124 377 OFFCURVE",
"107 377 CURVE SMOOTH"
);
}
);
userData = {
com.schriftgestaltung.Glyphs.glyph.leftMetricsKey = "khoKhai-thai";
};
width = 442;
},
{
anchors = (
{
name = bottom;
position = "{314, 0}";
},
{
name = top;
position = "{325, 506}";
}
);
layerId = "94F80E8F-7C96-497F-B870-569C37B7A2A5";
paths = (
{
closed = 1;
nodes = (
"240 0 LINE SMOOTH",
"290 0 OFFCURVE",
"314 30 OFFCURVE",
"314 89 CURVE SMOOTH",
"314 248 LINE SMOOTH",
"314 299 OFFCURVE",
"297 331 OFFCURVE",
"260 344 CURVE",
"260 346 LINE",
"304 362 OFFCURVE",
"325 409 OFFCURVE",
"325 485 CURVE SMOOTH",
"325 506 LINE",
"252 506 LINE",
"252 485 LINE SMOOTH",
"252 413 OFFCURVE",
"234 377 OFFCURVE",
"197 372 CURVE",
"197 322 LINE",
"224 320 OFFCURVE",
"237 296 OFFCURVE",
"237 251 CURVE SMOOTH",
"237 102 LINE SMOOTH",
"237 75 OFFCURVE",
"230 64 OFFCURVE",
"208 64 CURVE SMOOTH",
"141 64 LINE",
"141 206 LINE SMOOTH",
"141 259 OFFCURVE",
"142 283 OFFCURVE",
"152 315 CURVE SMOOTH",
"165 357 OFFCURVE",
"169 383 OFFCURVE",
"169 418 CURVE SMOOTH",
"169 476 OFFCURVE",
"143 512 OFFCURVE",
"97 512 CURVE SMOOTH",
"50 512 OFFCURVE",
"21 480 OFFCURVE",
"21 425 CURVE SMOOTH",
"21 372 OFFCURVE",
"46 341 OFFCURVE",
"85 341 CURVE SMOOTH",
"116 341 OFFCURVE",
"136 369 OFFCURVE",
"136 413 CURVE",
"124 410 LINE",
"126 375 OFFCURVE",
"122 359 OFFCURVE",
"94 315 CURVE SMOOTH",
"70 277 OFFCURVE",
"64 257 OFFCURVE",
"64 199 CURVE SMOOTH",
"64 63 LINE",
"37 51 LINE",
"37 0 LINE"
);
},
{
closed = 1;
nodes = (
"74 380 OFFCURVE",
"64 396 OFFCURVE",
"64 425 CURVE SMOOTH",
"64 452 OFFCURVE",
"73 469 OFFCURVE",
"90 469 CURVE SMOOTH",
"106 469 OFFCURVE",
"116 453 OFFCURVE",
"116 425 CURVE SMOOTH",
"116 396 OFFCURVE",
"106 380 OFFCURVE",
"90 380 CURVE SMOOTH"
);
}
);
width = 361;
}
);
leftKerningGroup = "khoKhai-thai";
leftMetricsKey = "khoKhai-thai";
unicode = 0E0A;
},
{
glyphname = "soSo-thai";
lastChange = "2022-10-16 03:44:57 +0000";
layers = (
{
anchors = (
{
name = bottom;
position = "{532, 0}";
},
{
name = top;
position = "{551, 514}";
}
);
layerId = "EB3A5D6C-8260-43A6-9EF2-63971FC08D48";
paths = (
{
closed = 1;
nodes = (
"409 0 LINE SMOOTH",
"488 0 OFFCURVE",
"532 44 OFFCURVE",
"532 122 CURVE SMOOTH",
"532 230 LINE SMOOTH",
"532 287 OFFCURVE",
"501 324 OFFCURVE",
"453 339 CURVE",
"453 342 LINE",
"521 358 OFFCURVE",
"551 405 OFFCURVE",
"551 490 CURVE SMOOTH",
"551 514 LINE",
"380 514 LINE",
"380 490 LINE SMOOTH",
"380 433 OFFCURVE",
"365 403 OFFCURVE",
"332 395 CURVE",
"332 298 LINE",
"346 294 OFFCURVE",
"350 286 OFFCURVE",
"350 254 CURVE SMOOTH",
"350 158 LINE SMOOTH",
"350 144 OFFCURVE",
"341 134 OFFCURVE",
"326 134 CURVE SMOOTH",
"270 134 LINE",
"270 199 LINE SMOOTH",
"270 237 OFFCURVE",
"274 264 OFFCURVE",
"287 302 CURVE SMOOTH",
"302 346 OFFCURVE",
"309 384 OFFCURVE",
"309 423 CURVE SMOOTH",
"309 514 LINE",
"226 514 LINE",
"221 468 OFFCURVE",
"212 431 OFFCURVE",
"199 405 CURVE",
"200 390 LINE",
"210 402 OFFCURVE",
"215 418 OFFCURVE",
"215 432 CURVE SMOOTH",
"215 486 OFFCURVE",
"173 523 OFFCURVE",
"112 523 CURVE SMOOTH",
"44 523 OFFCURVE",
"1 485 OFFCURVE",
"1 422 CURVE SMOOTH",
"1 362 OFFCURVE",
"46 321 OFFCURVE",
"113 321 CURVE SMOOTH",
"137 321 OFFCURVE",
"161 330 OFFCURVE",
"179 345 CURVE",
"182 343 LINE",
"174 336 OFFCURVE",
"158 326 OFFCURVE",
"141 314 CURVE SMOOTH",
"107 290 OFFCURVE",
"88 248 OFFCURVE",
"88 192 CURVE SMOOTH",
"88 127 LINE",
"43 103 LINE",
"43 0 LINE"
);
},
{
closed = 1;
nodes = (
"92 388 OFFCURVE",
"77 400 OFFCURVE",
"77 422 CURVE SMOOTH",
"77 444 OFFCURVE",
"91 456 OFFCURVE",
"114 456 CURVE SMOOTH",
"137 456 OFFCURVE",
"152 444 OFFCURVE",
"152 422 CURVE SMOOTH",
"152 400 OFFCURVE",
"137 388 OFFCURVE",
"114 388 CURVE SMOOTH"
);
}
);
userData = {
com.schriftgestaltung.Glyphs.glyph.rightMetricsKey = "choChang-thai";
};
width = 582;
},
{
anchors = (
{
name = bottom;
position = "{399, 0}";
},
{
name = top;
position = "{409, 501}";
}
);
layerId = "90A34054-68E4-499D-AE50-276C7B026D8B";
paths = (
{
closed = 1;
nodes = (
"325 0 LINE SMOOTH",
"375 0 OFFCURVE",
"399 24 OFFCURVE",
"399 76 CURVE SMOOTH",
"399 249 LINE SMOOTH",
"399 307 OFFCURVE",
"373 336 OFFCURVE",
"327 347 CURVE",
"327 348 LINE",
"381 364 OFFCURVE",
"409 407 OFFCURVE",
"409 481 CURVE SMOOTH",
"409 501 LINE",
"384 501 LINE",
"384 481 LINE SMOOTH",
"384 405 OFFCURVE",
"351 360 OFFCURVE",
"293 357 CURVE",
"293 338 LINE",
"347 336 OFFCURVE",
"374 306 OFFCURVE",
"374 249 CURVE SMOOTH",
"374 79 LINE SMOOTH",
"374 39 OFFCURVE",
"358 23 OFFCURVE",
"319 23 CURVE SMOOTH",
"144 23 LINE",
"144 184 LINE SMOOTH",
"144 248 OFFCURVE",
"151 263 OFFCURVE",
"197 317 CURVE SMOOTH",
"233 360 OFFCURVE",
"244 396 OFFCURVE",
"244 467 CURVE SMOOTH",
"244 501 LINE",
"225 501 LINE",
"216 446 OFFCURVE",
"173 392 OFFCURVE",
"143 389 CURVE",
"143 380 LINE",
"161 393 OFFCURVE",
"171 413 OFFCURVE",
"171 435 CURVE SMOOTH",
"171 476 OFFCURVE",
"141 504 OFFCURVE",
"98 504 CURVE SMOOTH",
"54 504 OFFCURVE",
"24 475 OFFCURVE",
"24 431 CURVE SMOOTH",
"24 389 OFFCURVE",
"55 360 OFFCURVE",
"104 360 CURVE SMOOTH",
"156 360 OFFCURVE",
"205 396 OFFCURVE",
"223 447 CURVE",
"225 447 LINE",
"221 390 OFFCURVE",
"213 371 OFFCURVE",
"179 331 CURVE SMOOTH",
"128 271 OFFCURVE",
"119 248 OFFCURVE",
"119 184 CURVE SMOOTH",
"119 22 LINE",
"72 18 LINE",
"72 0 LINE"
);
},
{
closed = 1;
nodes = (
"67 379 OFFCURVE",
"47 400 OFFCURVE",
"47 431 CURVE SMOOTH",
"47 463 OFFCURVE",
"67 483 OFFCURVE",
"98 483 CURVE SMOOTH",
"130 483 OFFCURVE",
"150 462 OFFCURVE",
"150 431 CURVE SMOOTH",
"150 400 OFFCURVE",
"130 379 OFFCURVE",
"98 379 CURVE SMOOTH"
);
}
);
width = 487;
},
{
anchors = (
{
name = bottom;
position = "{454, 0}";
},
{
name = top;
position = "{468, 506}";
}
);
hints = (
{
horizontal = 1;
origin = "{0, 13}";
target = down;
type = TopGhost;
},
{
origin = "{0, 22}";
target = "{0, 3}";
type = Stem;
},
{
horizontal = 1;
origin = "{0, 45}";
target = "{1, 5}";
type = Stem;
},
{
origin = "{0, 62}";
target = "{0, 26}";
type = Stem;
},
{
horizontal = 1;
origin = "{0, 64}";
target = "{0, 26}";
type = Stem;
}
);
layerId = "9148514D-BEB8-4275-B264-8F51401A425F";
paths = (
{
closed = 1;
nodes = (
"360 0 LINE SMOOTH",
"424 0 OFFCURVE",
"454 34 OFFCURVE",
"454 103 CURVE SMOOTH",
"454 249 LINE SMOOTH",
"454 299 OFFCURVE",
"429 331 OFFCURVE",
"379 344 CURVE",
"379 346 LINE",
"439 362 OFFCURVE",
"468 407 OFFCURVE",
"468 485 CURVE SMOOTH",
"468 506 LINE",
"383 506 LINE",
"383 485 LINE SMOOTH",
"383 417 OFFCURVE",
"358 377 OFFCURVE",
"309 372 CURVE",
"309 322 LINE",
"344 317 OFFCURVE",
"364 299 OFFCURVE",
"364 259 CURVE SMOOTH",
"364 108 LINE SMOOTH",
"364 79 OFFCURVE",
"351 65 OFFCURVE",
"322 65 CURVE SMOOTH",
"193 65 LINE",
"193 198 LINE SMOOTH",
"193 236 OFFCURVE",
"201 257 OFFCURVE",
"235 306 CURVE SMOOTH",
"261 344 OFFCURVE",
"270 384 OFFCURVE",
"270 449 CURVE SMOOTH",
"270 506 LINE",
"222 506 LINE",
"216 465 OFFCURVE",
"191 417 OFFCURVE",
"162 395 CURVE",
"166 384 LINE",
"181 396 OFFCURVE",
"189 415 OFFCURVE",
"189 434 CURVE SMOOTH",
"189 480 OFFCURVE",
"154 512 OFFCURVE",
"104 512 CURVE SMOOTH",
"50 512 OFFCURVE",
"15 479 OFFCURVE",
"15 427 CURVE SMOOTH",
"15 377 OFFCURVE",
"51 344 OFFCURVE",
"108 344 CURVE SMOOTH",
"147 344 OFFCURVE",
"186 369 OFFCURVE",
"205 406 CURVE",
"208 405 LINE",
"202 371 OFFCURVE",
"196 361 OFFCURVE",
"164 324 CURVE SMOOTH",
"119 272 OFFCURVE",
"105 243 OFFCURVE",
"105 197 CURVE SMOOTH",
"105 64 LINE",
"59 51 LINE",
"59 0 LINE"
);
},
{
closed = 1;
nodes = (
"79 388 OFFCURVE",
"64 403 OFFCURVE",
"64 427 CURVE SMOOTH",
"64 451 OFFCURVE",
"79 466 OFFCURVE",
"104 466 CURVE SMOOTH",
"129 466 OFFCURVE",
"144 452 OFFCURVE",
"144 427 CURVE SMOOTH",
"144 403 OFFCURVE",
"129 388 OFFCURVE",
"104 388 CURVE SMOOTH"
);
}
);
width = 527;
},
{
anchors = (
{
name = bottom;
position = "{263, 0}";
},
{
name = top;
position = "{270, 501}";
}
);
layerId = "54E3FB14-E6D2-4DF3-BA4A-5621168F9335";
paths = (
{
closed = 1;
nodes = (
"204 0 LINE SMOOTH",
"245 0 OFFCURVE",
"263 20 OFFCURVE",
"263 66 CURVE SMOOTH",
"263 249 LINE SMOOTH",
"263 301 OFFCURVE",
"249 335 OFFCURVE",
"215 347 CURVE",
"215 348 LINE",
"251 365 OFFCURVE",
"270 408 OFFCURVE",
"270 481 CURVE SMOOTH",
"270 501 LINE",
"245 501 LINE",
"245 481 LINE SMOOTH",
"245 402 OFFCURVE",
"223 360 OFFCURVE",
"179 357 CURVE",
"179 338 LINE",
"221 336 OFFCURVE",
"238 305 OFFCURVE",
"238 249 CURVE SMOOTH",
"238 69 LINE SMOOTH",
"238 33 OFFCURVE",
"229 22 OFFCURVE",
"200 22 CURVE SMOOTH",
"100 22 LINE",
"100 184 LINE SMOOTH",
"100 239 OFFCURVE",
"105 268 OFFCURVE",
"131 319 CURVE SMOOTH",
"155 367 OFFCURVE",
"159 383 OFFCURVE",
"159 453 CURVE SMOOTH",
"159 501 LINE",
"142 501 LINE",
"137 454 OFFCURVE",
"116 403 OFFCURVE",
"94 389 CURVE",
"95 380 LINE",
"106 393 OFFCURVE",
"112 413 OFFCURVE",
"112 435 CURVE SMOOTH",
"112 479 OFFCURVE",
"95 504 OFFCURVE",
"64 504 CURVE SMOOTH",
"33 504 OFFCURVE",
"14 478 OFFCURVE",
"14 431 CURVE SMOOTH",
"14 386 OFFCURVE",
"33 360 OFFCURVE",
"66 360 CURVE SMOOTH",
"96 360 OFFCURVE",
"128 392 OFFCURVE",
"141 438 CURVE",
"142 438 LINE",
"139 389 OFFCURVE",
"133 369 OFFCURVE",
"113 331 CURVE SMOOTH",
"81 270 OFFCURVE",
"75 242 OFFCURVE",
"75 184 CURVE SMOOTH",
"75 22 LINE",
"44 18 LINE",
"44 0 LINE"
);
},
{
closed = 1;
nodes = (
"46 379 OFFCURVE",
"36 397 OFFCURVE",
"36 431 CURVE SMOOTH",
"36 465 OFFCURVE",
"46 484 OFFCURVE",
"64 484 CURVE SMOOTH",
"82 484 OFFCURVE",
"92 464 OFFCURVE",
"92 431 CURVE SMOOTH",
"92 398 OFFCURVE",
"82 379 OFFCURVE",
"64 379 CURVE SMOOTH"
);
}
);
width = 317;
},
{
anchors = (
{
name = bottom;
position = "{420, 0}";
},
{
name = top;
position = "{436, 514}";
}
);
layerId = "E703E12A-5DA7-48FA-B69F-BB282FBD8E56";
paths = (
{
closed = 1;
nodes = (
"313 0 LINE SMOOTH",
"385 0 OFFCURVE",
"420 42 OFFCURVE",
"420 124 CURVE SMOOTH",
"420 231 LINE SMOOTH",
"420 285 OFFCURVE",
"398 323 OFFCURVE",
"360 339 CURVE",
"360 342 LINE",
"411 358 OFFCURVE",
"436 404 OFFCURVE",
"436 490 CURVE SMOOTH",
"436 514 LINE",
"290 514 LINE",
"290 490 LINE SMOOTH",
"290 434 OFFCURVE",
"281 403 OFFCURVE",
"259 395 CURVE",
"259 298 LINE",
"265 295 OFFCURVE",
"267 282 OFFCURVE",
"267 255 CURVE SMOOTH",
"267 160 LINE SMOOTH",
"267 144 OFFCURVE",
"259 135 OFFCURVE",
"241 135 CURVE SMOOTH",
"219 135 LINE",
"219 200 LINE SMOOTH",
"219 248 OFFCURVE",
"221 265 OFFCURVE",
"227 298 CURVE SMOOTH",
"238 355 OFFCURVE",
"242 393 OFFCURVE",
"242 425 CURVE SMOOTH",
"242 514 LINE",
"174 514 LINE",
"169 453 OFFCURVE",
"165 426 OFFCURVE",
"159 404 CURVE",
"159 390 LINE",
"166 402 OFFCURVE",
"169 418 OFFCURVE",
"169 432 CURVE SMOOTH",
"169 485 OFFCURVE",
"135 523 OFFCURVE",
"86 523 CURVE SMOOTH",
"34 523 OFFCURVE",
"0 484 OFFCURVE",
"0 423 CURVE SMOOTH",
"0 364 OFFCURVE",
"33 321 OFFCURVE",
"80 321 CURVE SMOOTH",
"100 321 OFFCURVE",
"119 329 OFFCURVE",
"134 346 CURVE",
"136 344 LINE",
"132 340 OFFCURVE",
"114 322 OFFCURVE",
"107 314 CURVE SMOOTH",
"81 284 OFFCURVE",
"66 244 OFFCURVE",
"66 193 CURVE SMOOTH",
"66 127 LINE",
"32 103 LINE",
"32 0 LINE"
);
},
{
closed = 1;
nodes = (
"72 389 OFFCURVE",
"61 402 OFFCURVE",
"61 422 CURVE SMOOTH",
"61 442 OFFCURVE",
"72 456 OFFCURVE",
"90 456 CURVE SMOOTH",
"107 456 OFFCURVE",
"118 442 OFFCURVE",
"118 422 CURVE SMOOTH",
"118 402 OFFCURVE",
"107 389 OFFCURVE",
"90 389 CURVE SMOOTH"
);
}
);
userData = {
com.schriftgestaltung.Glyphs.glyph.rightMetricsKey = "choChang-thai";
};
width = 455;
},
{
anchors = (
{
name = bottom;
position = "{323, 0}";
},
{
name = top;
position = "{333, 506}";
}
);
layerId = "94F80E8F-7C96-497F-B870-569C37B7A2A5";
paths = (
{
closed = 1;
nodes = (
"248 0 LINE SMOOTH",
"298 0 OFFCURVE",
"323 29 OFFCURVE",
"323 89 CURVE SMOOTH",
"323 242 LINE SMOOTH",
"323 293 OFFCURVE",
"306 329 OFFCURVE",
"269 344 CURVE",
"269 346 LINE",
"311 362 OFFCURVE",
"333 407 OFFCURVE",
"333 485 CURVE SMOOTH",
"333 506 LINE",
"260 506 LINE",
"260 485 LINE SMOOTH",
"260 414 OFFCURVE",
"243 377 OFFCURVE",
"208 372 CURVE",
"208 322 LINE",
"235 319 OFFCURVE",
"246 298 OFFCURVE",
"246 251 CURVE SMOOTH",
"246 102 LINE SMOOTH",
"246 75 OFFCURVE",
"238 64 OFFCURVE",
"216 64 CURVE SMOOTH",
"147 64 LINE",
"147 191 LINE SMOOTH",
"147 242 OFFCURVE",
"150 266 OFFCURVE",
"166 305 CURVE SMOOTH",
"188 358 OFFCURVE",
"192 388 OFFCURVE",
"192 443 CURVE SMOOTH",
"192 506 LINE",
"155 506 LINE",
"149 458 OFFCURVE",
"137 430 OFFCURVE",
"115 406 CURVE",
"120 384 LINE",
"129 397 OFFCURVE",
"134 415 OFFCURVE",
"134 435 CURVE SMOOTH",
"134 483 OFFCURVE",
"111 512 OFFCURVE",
"72 512 CURVE SMOOTH",
"33 512 OFFCURVE",
"8 481 OFFCURVE",
"8 428 CURVE SMOOTH",
"8 378 OFFCURVE",
"33 346 OFFCURVE",
"75 346 CURVE SMOOTH",
"98 346 OFFCURVE",
"122 368 OFFCURVE",
"138 403 CURVE",
"139 402 LINE",
"135 369 OFFCURVE",
"132 360 OFFCURVE",
"109 325 CURVE SMOOTH",
"82 283 OFFCURVE",
"70 249 OFFCURVE",
"70 189 CURVE SMOOTH",
"70 63 LINE",
"38 51 LINE",
"38 0 LINE"
);
},
{
closed = 1;
nodes = (
"58 384 OFFCURVE",
"49 400 OFFCURVE",
"49 428 CURVE SMOOTH",
"49 456 OFFCURVE",
"58 473 OFFCURVE",
"74 473 CURVE SMOOTH",
"91 473 OFFCURVE",
"100 456 OFFCURVE",
"100 428 CURVE SMOOTH",
"100 400 OFFCURVE",
"91 384 OFFCURVE",
"74 384 CURVE SMOOTH"
);
}
);
width = 369;
}
);
leftKerningGroup = "khoKhai-thai";
leftMetricsKey = "khoKhuat-thai";
note = "\012uni0E0B\012";
rightMetricsKey = "choChang-thai";
unicode = 0E0B;
},
{
glyphname = "soSo_macronbelowcomb-thai";
lastChange = "2022-10-16 03:44:57 +0000";
layers = (
{
anchors = (
{
name = bottom;
position = "{408, -93}";
}
);
components = (
{
name = "soSo-thai";
}
);
layerId = "90A34054-68E4-499D-AE50-276C7B026D8B";
paths = (
{
closed = 1;
nodes = (
"408 -93 LINE",
"408 -70 LINE",
"72 -70 LINE",
"72 -93 LINE"
);
}
);
width = 487;
},
{
anchors = (
{
name = bottom;
position = "{532, -212}";
}
);
components = (
{
name = "soSo-thai";
}
);
layerId = "EB3A5D6C-8260-43A6-9EF2-63971FC08D48";
paths = (
{
closed = 1;
nodes = (
"532 -212 LINE",
"532 -70 LINE",
"44 -70 LINE",
"44 -212 LINE"
);
}
);
width = 582;
},
{
anchors = (
{
name = bottom;
position = "{459, -140}";
}
);
components = (
{
alignment = -1;
name = "soSo-thai";
}
);
hints = (
{
horizontal = 1;
origin = "{0, 3}";
target = "{0, 2}";
type = Stem;
}
);
layerId = "9148514D-BEB8-4275-B264-8F51401A425F";
paths = (
{
closed = 1;
nodes = (
"459 -140 LINE",
"459 -69 LINE",
"60 -69 LINE",
"60 -140 LINE"
);
}
);
width = 527;
},
{
anchors = (
{
name = bottom;
position = "{263, -93}";
}
);
components = (
{
name = "soSo-thai";
}
);
layerId = "54E3FB14-E6D2-4DF3-BA4A-5621168F9335";
paths = (
{
closed = 1;
nodes = (
"263 -93 LINE",
"263 -70 LINE",
"44 -70 LINE",
"44 -93 LINE"
);
}
);
width = 317;
},
{
anchors = (
{
name = bottom;
position = "{419, -212}";
}
);
components = (
{
name = "soSo-thai";
}
);
layerId = "E703E12A-5DA7-48FA-B69F-BB282FBD8E56";
paths = (
{
closed = 1;
nodes = (
"419 -212 LINE",
"419 -70 LINE",
"33 -70 LINE",
"33 -212 LINE"
);
}
);
width = 455;
},
{
anchors = (
{
name = bottom;
position = "{324, -140}";
}
);
components = (
{
alignment = -1;
name = "soSo-thai";
}
);
layerId = "94F80E8F-7C96-497F-B870-569C37B7A2A5";
paths = (
{
closed = 1;
nodes = (
"324 -140 LINE",
"324 -70 LINE",
"39 -70 LINE",
"39 -140 LINE"
);
}
);
width = 369;
}
);
leftKerningGroup = "khoKhai-thai";
leftMetricsKey = "khoKhuat-thai";
rightMetricsKey = "choChang-thai";
script = thai;
category = Letter;
subCategory = Other;
},
{
glyphname = "choChoe-thai";
lastChange = "2022-10-16 09:21:19 +0000";
layers = (
{
anchors = (
{
name = bottom;
position = "{814, 0}";
},
{
name = top;
position = "{814, 514}";
}
);
layerId = "EB3A5D6C-8260-43A6-9EF2-63971FC08D48";
paths = (
{
closed = 1;
nodes = (
"248 -10 OFFCURVE",
"296 34 OFFCURVE",
"296 101 CURVE SMOOTH",
"296 160 OFFCURVE",
"257 198 OFFCURVE",
"193 198 CURVE SMOOTH",
"126 198 OFFCURVE",
"99 179 OFFCURVE",
"80 117 CURVE",
"107 92 LINE",
"107 134 OFFCURVE",
"160 165 OFFCURVE",
"220 164 CURVE",
"219 169 OFFCURVE",
"219 174 OFFCURVE",
"219 179 CURVE SMOOTH",
"219 181 LINE SMOOTH",
"220 210 OFFCURVE",
"252 227 OFFCURVE",
"288 226 CURVE",
"297 302 LINE",
"128 379 LINE",
"201 299 LINE",
"201 323 LINE SMOOTH",
"201 361 OFFCURVE",
"223 388 OFFCURVE",
"274 388 CURVE SMOOTH",
"327 388 OFFCURVE",
"351 359 OFFCURVE",
"351 294 CURVE SMOOTH",
"351 264 LINE SMOOTH",
"351 244 OFFCURVE",
"352 207 OFFCURVE",
"362 183 CURVE",
"475 136 LINE",
"540 94 OFFCURVE",
"590 52 OFFCURVE",
"633 0 CURVE",
"814 0 LINE",
"814 514 LINE",
"628 514 LINE",
"628 233 LINE SMOOTH",
"628 214 OFFCURVE",
"629 184 OFFCURVE",
"633 145 CURVE",
"629 145 LINE",
"584 189 OFFCURVE",
"537 212 OFFCURVE",
"486 222 CURVE",
"537 187 LINE",
"537 299 LINE SMOOTH",
"537 447 OFFCURVE",
"469 528 OFFCURVE",
"278 528 CURVE SMOOTH",
"120 528 OFFCURVE",
"25 445 OFFCURVE",
"25 325 CURVE SMOOTH",
"25 310 LINE",
"135 269 LINE",
"135 265 LINE",
"72 254 OFFCURVE",
"33 202 OFFCURVE",
"33 126 CURVE SMOOTH",
"33 132 LINE SMOOTH",
"33 31 OFFCURVE",
"96 -10 OFFCURVE",
"175 -10 CURVE SMOOTH"
);
},
{
closed = 1;
nodes = (
"152 61 OFFCURVE",
"138 74 OFFCURVE",
"138 96 CURVE SMOOTH",
"138 117 OFFCURVE",
"152 130 OFFCURVE",
"175 130 CURVE SMOOTH",
"197 130 OFFCURVE",
"212 118 OFFCURVE",
"212 96 CURVE SMOOTH",
"212 74 OFFCURVE",
"198 61 OFFCURVE",
"175 61 CURVE SMOOTH"
);
},
{
closed = 1;
nodes = (
"520 -10 OFFCURVE",
"569 32 OFFCURVE",
"569 103 CURVE SMOOTH",
"569 174 OFFCURVE",
"519 215 OFFCURVE",
"448 215 CURVE SMOOTH",
"370 215 OFFCURVE",
"317 174 OFFCURVE",
"317 103 CURVE SMOOTH",
"317 32 OFFCURVE",
"369 -10 OFFCURVE",
"448 -10 CURVE SMOOTH"
);
},
{
closed = 1;
nodes = (
"418 69 OFFCURVE",
"403 81 OFFCURVE",
"403 103 CURVE SMOOTH",
"403 125 OFFCURVE",
"418 137 OFFCURVE",
"440 137 CURVE SMOOTH",
"463 137 OFFCURVE",
"478 125 OFFCURVE",
"478 103 CURVE SMOOTH",
"478 81 OFFCURVE",
"463 69 OFFCURVE",
"440 69 CURVE SMOOTH"
);
}
);
userData = {
com.schriftgestaltung.Glyphs.glyph.leftMetricsKey = "thoThung-thai";
com.schriftgestaltung.Glyphs.glyph.rightMetricsKey = "boBaimai-thai";
};
width = 879;
},
{
anchors = (
{
name = bottom;
position = "{660, 0}";
},
{
name = top;
position = "{660, 501}";
}
);
layerId = "90A34054-68E4-499D-AE50-276C7B026D8B";
paths = (
{
closed = 1;
nodes = (
"206 -5 OFFCURVE",
"237 25 OFFCURVE",
"237 69 CURVE SMOOTH",
"237 113 OFFCURVE",
"207 142 OFFCURVE",
"163 142 CURVE SMOOTH",
"125 142 OFFCURVE",
"98 119 OFFCURVE",
"97 70 CURVE",
"103 69 LINE",
"103 79 OFFCURVE",
"104 93 OFFCURVE",
"110 103 CURVE",
"113 117 OFFCURVE",
"113 134 OFFCURVE",
"113 151 CURVE SMOOTH",
"113 186 LINE SMOOTH",
"113 256 OFFCURVE",
"140 280 OFFCURVE",
"209 295 CURVE",
"212 315 LINE",
"76 357 LINE",
"87 342 LINE",
"87 349 LINE SMOOTH",
"87 430 OFFCURVE",
"153 485 OFFCURVE",
"251 485 CURVE SMOOTH",
"349 485 OFFCURVE",
"402 436 OFFCURVE",
"402 342 CURVE SMOOTH",
"402 187 LINE SMOOTH",
"402 162 OFFCURVE",
"402 138 OFFCURVE",
"402 119 CURVE",
"426 102 LINE",
"495 86 OFFCURVE",
"580 42 OFFCURVE",
"635 0 CURVE",
"660 0 LINE",
"660 501 LINE",
"635 501 LINE",
"635 215 LINE SMOOTH",
"635 152 OFFCURVE",
"635 88 OFFCURVE",
"636 27 CURVE",
"633 27 LINE",
"571 69 OFFCURVE",
"494 107 OFFCURVE",
"416 126 CURVE",
"427 111 LINE",
"427 347 LINE SMOOTH",
"427 451 OFFCURVE",
"361 508 OFFCURVE",
"251 508 CURVE SMOOTH",
"133 508 OFFCURVE",
"62 439 OFFCURVE",
"62 349 CURVE SMOOTH",
"62 339 LINE",
"178 307 LINE",
"178 304 LINE",
"118 287 OFFCURVE",
"88 257 OFFCURVE",
"88 185 CURVE SMOOTH",
"88 73 LINE SMOOTH",
"88 26 OFFCURVE",
"117 -5 OFFCURVE",
"162 -5 CURVE SMOOTH"
);
},
{
closed = 1;
nodes = (
"131 16 OFFCURVE",
"111 37 OFFCURVE",
"111 69 CURVE SMOOTH",
"111 100 OFFCURVE",
"131 121 OFFCURVE",
"162 121 CURVE SMOOTH",
"194 121 OFFCURVE",
"214 100 OFFCURVE",
"214 69 CURVE SMOOTH",
"214 37 OFFCURVE",
"193 16 OFFCURVE",
"162 16 CURVE SMOOTH"
);
},
{
closed = 1;
nodes = (
"410 -5 OFFCURVE",
"439 26 OFFCURVE",
"439 70 CURVE SMOOTH",
"439 112 OFFCURVE",
"409 142 OFFCURVE",
"365 142 CURVE SMOOTH",
"320 142 OFFCURVE",
"290 112 OFFCURVE",
"290 70 CURVE SMOOTH",
"290 26 OFFCURVE",
"320 -5 OFFCURVE",
"365 -5 CURVE SMOOTH"
);
},
{
closed = 1;
nodes = (
"333 16 OFFCURVE",
"313 38 OFFCURVE",
"313 70 CURVE SMOOTH",
"313 99 OFFCURVE",
"333 121 OFFCURVE",
"365 121 CURVE SMOOTH",
"395 121 OFFCURVE",
"416 99 OFFCURVE",
"416 70 CURVE SMOOTH",
"416 38 OFFCURVE",
"395 16 OFFCURVE",
"365 16 CURVE SMOOTH"
);
}
);
width = 751;
},
{
anchors = (
{
name = bottom;
position = "{722, 0}";
},
{
name = top;
position = "{722, 506}";
}
);
hints = (
{
origin = "{0, 30}";
target = "{0, 50}";
type = Stem;
},
{
origin = "{0, 41}";
target = "{0, 38}";
type = Stem;
},
{
horizontal = 1;
origin = "{0, 53}";
target = "{0, 26}";
type = Stem;
},
{
origin = "{0, 62}";
target = "{0, 16}";
type = Stem;
},
{
horizontal = 1;
origin = "{0, 66}";
target = "{1, 11}";
type = Stem;
},
{
horizontal = 1;
origin = "{0, 40}";
target = down;
type = TopGhost;
},
{
horizontal = 1;
origin = "{0, 37}";
target = up;
type = BottomGhost;
}
);
layerId = "9148514D-BEB8-4275-B264-8F51401A425F";
paths = (
{
closed = 1;
nodes = (
"226 -7 OFFCURVE",
"262 29 OFFCURVE",
"262 82 CURVE SMOOTH",
"262 132 OFFCURVE",
"228 165 OFFCURVE",
"176 165 CURVE SMOOTH",
"126 165 OFFCURVE",
"101 142 OFFCURVE",
"93 88 CURVE",
"106 78 LINE",
"106 100 OFFCURVE",
"123 120 OFFCURVE",
"156 128 CURVE",
"157 138 OFFCURVE",
"157 159 OFFCURVE",
"157 161 CURVE SMOOTH",
"157 183 LINE SMOOTH",
"157 237 OFFCURVE",
"186 259 OFFCURVE",
"241 267 CURVE",
"247 318 LINE",
"91 374 LINE",
"127 325 LINE",
"127 339 LINE SMOOTH",
"127 404 OFFCURVE",
"180 448 OFFCURVE",
"260 448 CURVE SMOOTH",
"340 448 OFFCURVE",
"381 406 OFFCURVE",
"381 323 CURVE SMOOTH",
"381 218 LINE SMOOTH",
"381 185 OFFCURVE",
"383 162 OFFCURVE",
"386 145 CURVE",
"446 116 LINE",
"517 87 OFFCURVE",
"584 46 OFFCURVE",
"635 0 CURVE",
"722 0 LINE",
"722 506 LINE",
"632 506 LINE",
"632 222 LINE SMOOTH",
"632 183 OFFCURVE",
"633 138 OFFCURVE",
"635 75 CURVE",
"632 75 LINE",
"578 116 OFFCURVE",
"513 148 OFFCURVE",
"444 165 CURVE",
"471 142 LINE",
"471 328 LINE SMOOTH",
"471 451 OFFCURVE",
"401 516 OFFCURVE",
"261 516 CURVE SMOOTH",
"129 516 OFFCURVE",
"41 446 OFFCURVE",
"41 339 CURVE SMOOTH",
"41 327 LINE",
"161 292 LINE",
"161 288 LINE",
"97 273 OFFCURVE",
"68 232 OFFCURVE",
"68 161 CURVE SMOOTH",
"68 97 LINE SMOOTH",
"68 31 OFFCURVE",
"107 -7 OFFCURVE",
"169 -7 CURVE SMOOTH"
);
},
{
closed = 1;
nodes = (
"143 41 OFFCURVE",
"128 55 OFFCURVE",
"128 80 CURVE SMOOTH",
"128 104 OFFCURVE",
"143 118 OFFCURVE",
"168 118 CURVE SMOOTH",
"192 118 OFFCURVE",
"207 104 OFFCURVE",
"207 80 CURVE SMOOTH",
"207 55 OFFCURVE",
"192 41 OFFCURVE",
"168 41 CURVE SMOOTH"
);
},
{
closed = 1;
nodes = (
"462 -7 OFFCURVE",
"498 29 OFFCURVE",
"498 82 CURVE SMOOTH",
"498 136 OFFCURVE",
"461 170 OFFCURVE",
"405 170 CURVE SMOOTH",
"347 170 OFFCURVE",
"308 135 OFFCURVE",
"308 82 CURVE SMOOTH",
"308 29 OFFCURVE",
"347 -7 OFFCURVE",
"405 -7 CURVE SMOOTH"
);
},
{
closed = 1;
nodes = (
"378 41 OFFCURVE",
"363 56 OFFCURVE",
"363 80 CURVE SMOOTH",
"363 105 OFFCURVE",
"378 119 OFFCURVE",
"403 119 CURVE SMOOTH",
"428 119 OFFCURVE",
"443 104 OFFCURVE",
"443 80 CURVE SMOOTH",
"443 56 OFFCURVE",
"428 41 OFFCURVE",
"403 41 CURVE SMOOTH"
);
}
);
width = 802;
},
{
anchors = (
{
name = bottom;
position = "{432, 0}";
},
{
name = top;
position = "{432, 501}";
}
);
layerId = "54E3FB14-E6D2-4DF3-BA4A-5621168F9335";
paths = (
{
closed = 1;
nodes = (
"133 -5 OFFCURVE",
"152 22 OFFCURVE",
"152 69 CURVE SMOOTH",
"152 114 OFFCURVE",
"134 142 OFFCURVE",
"102 142 CURVE SMOOTH",
"76 142 OFFCURVE",
"63 115 OFFCURVE",
"63 69 CURVE",
"65 69 LINE",
"65 83 OFFCURVE",
"68 97 OFFCURVE",
"72 106 CURVE",
"74 118 OFFCURVE",
"75 136 OFFCURVE",
"75 152 CURVE SMOOTH",
"75 186 LINE SMOOTH",
"75 245 OFFCURVE",
"87 279 OFFCURVE",
"135 295 CURVE",
"137 315 LINE",
"48 357 LINE",
"58 342 LINE",
"58 349 LINE SMOOTH",
"58 437 OFFCURVE",
"96 486 OFFCURVE",
"162 486 CURVE SMOOTH",
"224 486 OFFCURVE",
"255 436 OFFCURVE",
"255 342 CURVE SMOOTH",
"255 187 LINE SMOOTH",
"255 166 OFFCURVE",
"255 133 OFFCURVE",
"257 119 CURVE",
"276 107 LINE",
"320 83 OFFCURVE",
"374 39 OFFCURVE",
"408 0 CURVE",
"432 0 LINE",
"432 501 LINE",
"407 501 LINE",
"407 215 LINE SMOOTH",
"407 150 OFFCURVE",
"407 87 OFFCURVE",
"407 32 CURVE",
"406 31 LINE",
"374 64 OFFCURVE",
"322 105 OFFCURVE",
"272 131 CURVE",
"280 118 LINE",
"280 347 LINE SMOOTH",
"280 450 OFFCURVE",
"238 508 OFFCURVE",
"162 508 CURVE SMOOTH",
"81 508 OFFCURVE",
"34 450 OFFCURVE",
"34 349 CURVE SMOOTH",
"34 339 LINE",
"108 307 LINE",
"108 304 LINE",
"70 287 OFFCURVE",
"50 256 OFFCURVE",
"50 185 CURVE SMOOTH",
"50 73 LINE SMOOTH",
"50 23 OFFCURVE",
"69 -5 OFFCURVE",
"101 -5 CURVE SMOOTH"
);
},
{
closed = 1;
nodes = (
"84 16 OFFCURVE",
"74 35 OFFCURVE",
"74 69 CURVE SMOOTH",
"74 102 OFFCURVE",
"84 121 OFFCURVE",
"102 121 CURVE SMOOTH",
"120 121 OFFCURVE",
"130 102 OFFCURVE",
"130 69 CURVE SMOOTH",
"130 35 OFFCURVE",
"120 16 OFFCURVE",
"102 16 CURVE SMOOTH"
);
},
{
closed = 1;
nodes = (
"271 -5 OFFCURVE",
"289 22 OFFCURVE",
"289 69 CURVE SMOOTH",
"289 115 OFFCURVE",
"271 142 OFFCURVE",
"240 142 CURVE SMOOTH",
"208 142 OFFCURVE",
"190 115 OFFCURVE",
"190 69 CURVE SMOOTH",
"190 23 OFFCURVE",
"208 -5 OFFCURVE",
"240 -5 CURVE SMOOTH"
);
},
{
closed = 1;
nodes = (
"222 16 OFFCURVE",
"211 35 OFFCURVE",
"211 69 CURVE SMOOTH",
"211 101 OFFCURVE",
"221 121 OFFCURVE",
"240 121 CURVE SMOOTH",
"258 121 OFFCURVE",
"268 101 OFFCURVE",
"268 69 CURVE SMOOTH",
"268 36 OFFCURVE",
"258 16 OFFCURVE",
"240 16 CURVE SMOOTH"
);
}
);
width = 488;
},
{
anchors = (
{
name = bottom;
position = "{643, 0}";
},
{
name = top;
position = "{643, 514}";
}
);
layerId = "E703E12A-5DA7-48FA-B69F-BB282FBD8E56";
paths = (
{
closed = 1;
nodes = (
"201 -10 OFFCURVE",
"240 34 OFFCURVE",
"240 101 CURVE SMOOTH",
"240 161 OFFCURVE",
"209 198 OFFCURVE",
"159 198 CURVE SMOOTH",
"109 198 OFFCURVE",
"85 181 OFFCURVE",
"68 117 CURVE",
"90 93 LINE",
"90 132 OFFCURVE",
"133 162 OFFCURVE",
"186 162 CURVE",
"186 168 OFFCURVE",
"186 172 OFFCURVE",
"186 178 CURVE SMOOTH",
"186 181 LINE SMOOTH",
"186 206 OFFCURVE",
"209 228 OFFCURVE",
"236 226 CURVE",
"244 303 LINE",
"112 380 LINE",
"173 299 LINE",
"173 323 LINE SMOOTH",
"173 359 OFFCURVE",
"194 388 OFFCURVE",
"227 388 CURVE SMOOTH",
"264 388 OFFCURVE",
"274 366 OFFCURVE",
"274 313 CURVE SMOOTH",
"274 232 LINE SMOOTH",
"274 205 OFFCURVE",
"274 192 OFFCURVE",
"282 170 CURVE",
"375 136 LINE",
"427 92 OFFCURVE",
"461 50 OFFCURVE",
"491 0 CURVE",
"643 0 LINE",
"643 514 LINE",
"487 514 LINE",
"487 233 LINE SMOOTH",
"487 203 OFFCURVE",
"489 178 OFFCURVE",
"492 145 CURVE",
"489 145 LINE",
"459 185 OFFCURVE",
"425 210 OFFCURVE",
"385 221 CURVE",
"427 186 LINE",
"427 318 LINE SMOOTH",
"427 447 OFFCURVE",
"384 528 OFFCURVE",
"242 528 CURVE SMOOTH",
"98 528 OFFCURVE",
"26 444 OFFCURVE",
"26 325 CURVE SMOOTH",
"26 310 LINE",
"109 269 LINE",
"109 265 LINE",
"64 255 OFFCURVE",
"30 211 OFFCURVE",
"30 132 CURVE SMOOTH",
"30 126 LINE SMOOTH",
"30 29 OFFCURVE",
"81 -10 OFFCURVE",
"144 -10 CURVE SMOOTH"
);
},
{
closed = 1;
nodes = (
"125 62 OFFCURVE",
"113 74 OFFCURVE",
"113 96 CURVE SMOOTH",
"113 117 OFFCURVE",
"125 129 OFFCURVE",
"142 129 CURVE SMOOTH",
"159 129 OFFCURVE",
"170 117 OFFCURVE",
"170 96 CURVE SMOOTH",
"170 74 OFFCURVE",
"159 62 OFFCURVE",
"142 62 CURVE SMOOTH"
);
},
{
closed = 1;
nodes = (
"418 -10 OFFCURVE",
"453 32 OFFCURVE",
"453 103 CURVE SMOOTH",
"453 173 OFFCURVE",
"418 215 OFFCURVE",
"357 215 CURVE SMOOTH",
"290 215 OFFCURVE",
"251 173 OFFCURVE",
"251 103 CURVE SMOOTH",
"251 32 OFFCURVE",
"290 -10 OFFCURVE",
"357 -10 CURVE SMOOTH"
);
},
{
closed = 1;
nodes = (
"333 62 OFFCURVE",
"322 74 OFFCURVE",
"322 95 CURVE SMOOTH",
"322 116 OFFCURVE",
"333 129 OFFCURVE",
"350 129 CURVE SMOOTH",
"367 129 OFFCURVE",
"379 117 OFFCURVE",
"379 95 CURVE SMOOTH",
"379 75 OFFCURVE",
"368 62 OFFCURVE",
"350 62 CURVE SMOOTH"
);
}
);
userData = {
com.schriftgestaltung.Glyphs.glyph.leftMetricsKey = "thoThung-thai";
com.schriftgestaltung.Glyphs.glyph.rightMetricsKey = "boBaimai-thai";
};
width = 685;
},
{
anchors = (
{
name = bottom;
position = "{515, 0}";
},
{
name = top;
position = "{515, 506}";
}
);
layerId = "94F80E8F-7C96-497F-B870-569C37B7A2A5";
paths = (
{
closed = 1;
nodes = (
"162 -7 OFFCURVE",
"188 27 OFFCURVE",
"188 81 CURVE SMOOTH",
"188 133 OFFCURVE",
"164 165 OFFCURVE",
"126 165 CURVE SMOOTH",
"90 165 OFFCURVE",
"71 140 OFFCURVE",
"67 88 CURVE",
"76 78 LINE",
"76 112 OFFCURVE",
"96 147 OFFCURVE",
"117 147 CURVE",
"119 152 OFFCURVE",
"120 160 OFFCURVE",
"120 170 CURVE SMOOTH",
"120 183 LINE SMOOTH",
"120 230 OFFCURVE",
"134 259 OFFCURVE",
"175 268 CURVE",
"179 310 LINE",
"73 366 LINE",
"103 325 LINE",
"103 339 LINE SMOOTH",
"103 408 OFFCURVE",
"133 449 OFFCURVE",
"185 449 CURVE SMOOTH",
"236 449 OFFCURVE",
"262 406 OFFCURVE",
"262 325 CURVE SMOOTH",
"262 214 LINE SMOOTH",
"262 194 OFFCURVE",
"263 161 OFFCURVE",
"266 143 CURVE",
"315 119 LINE",
"354 97 OFFCURVE",
"400 53 OFFCURVE",
"441 0 CURVE",
"515 0 LINE",
"515 506 LINE",
"438 506 LINE",
"438 222 LINE SMOOTH",
"438 133 OFFCURVE",
"438 107 OFFCURVE",
"440 76 CURVE",
"438 76 LINE",
"401 116 OFFCURVE",
"361 147 OFFCURVE",
"317 166 CURVE",
"339 145 LINE",
"339 329 LINE SMOOTH",
"339 453 OFFCURVE",
"289 516 OFFCURVE",
"188 516 CURVE SMOOTH",
"90 516 OFFCURVE",
"31 449 OFFCURVE",
"31 340 CURVE SMOOTH",
"31 328 LINE",
"108 292 LINE",
"108 289 LINE",
"65 273 OFFCURVE",
"43 233 OFFCURVE",
"43 161 CURVE SMOOTH",
"43 96 LINE SMOOTH",
"43 31 OFFCURVE",
"72 -7 OFFCURVE",
"120 -7 CURVE SMOOTH"
);
},
{
closed = 1;
nodes = (
"102 36 OFFCURVE",
"93 53 OFFCURVE",
"93 80 CURVE SMOOTH",
"93 108 OFFCURVE",
"102 125 OFFCURVE",
"119 125 CURVE SMOOTH",
"135 125 OFFCURVE",
"145 109 OFFCURVE",
"145 80 CURVE SMOOTH",
"145 52 OFFCURVE",
"135 36 OFFCURVE",
"119 36 CURVE SMOOTH"
);
},
{
closed = 1;
nodes = (
"328 -7 OFFCURVE",
"354 27 OFFCURVE",
"354 82 CURVE SMOOTH",
"354 136 OFFCURVE",
"328 171 OFFCURVE",
"286 171 CURVE SMOOTH",
"241 171 OFFCURVE",
"215 137 OFFCURVE",
"215 82 CURVE SMOOTH",
"215 27 OFFCURVE",
"241 -7 OFFCURVE",
"286 -7 CURVE SMOOTH"
);
},
{
closed = 1;
nodes = (
"268 37 OFFCURVE",
"259 53 OFFCURVE",
"259 81 CURVE SMOOTH",
"259 110 OFFCURVE",
"268 126 OFFCURVE",
"284 126 CURVE SMOOTH",
"301 126 OFFCURVE",
"310 109 OFFCURVE",
"310 81 CURVE SMOOTH",
"310 53 OFFCURVE",
"301 37 OFFCURVE",
"284 37 CURVE SMOOTH"
);
}
);
width = 565;
}
);
leftKerningGroup = "thoThung-thai";
leftMetricsKey = "thoThung-thai";
rightMetricsKey = "boBaimai-thai";
unicode = 0E0C;
},
{
glyphname = "choChoe_macronbelowcomb-thai";
lastChange = "2022-10-16 03:44:57 +0000";
layers = (
{
anchors = (
{
name = bottom;
position = "{660, -93}";
}
);
components = (
{
name = "choChoe-thai";
}
);
layerId = "90A34054-68E4-499D-AE50-276C7B026D8B";
paths = (
{
closed = 1;
nodes = (
"660 -93 LINE",
"660 -70 LINE",
"88 -70 LINE",
"88 -93 LINE"
);
}
);
width = 751;
},
{
anchors = (
{
name = bottom;
position = "{814, -212}";
}
);
components = (
{
name = "choChoe-thai";
}
);
layerId = "EB3A5D6C-8260-43A6-9EF2-63971FC08D48";
paths = (
{
closed = 1;
nodes = (
"814 -212 LINE",
"814 -70 LINE",
"33 -70 LINE",
"33 -212 LINE"
);
}
);
width = 879;
},
{
anchors = (
{
name = bottom;
position = "{721, -140}";
}
);
components = (
{
alignment = -1;
name = "choChoe-thai";
}
);
hints = (
{
horizontal = 1;
origin = "{0, 3}";
target = "{0, 2}";
type = Stem;
}
);
layerId = "9148514D-BEB8-4275-B264-8F51401A425F";
paths = (
{
closed = 1;
nodes = (
"721 -140 LINE",
"721 -69 LINE",
"67 -69 LINE",
"67 -140 LINE"
);
}
);
width = 802;
},
{
anchors = (
{
name = bottom;
position = "{432, -93}";
}
);
components = (
{
name = "choChoe-thai";
}
);
layerId = "54E3FB14-E6D2-4DF3-BA4A-5621168F9335";
paths = (
{
closed = 1;
nodes = (
"432 -93 LINE",
"432 -70 LINE",
"51 -70 LINE",
"51 -93 LINE"
);
}
);
width = 488;
},
{
anchors = (
{
name = bottom;
position = "{643, -212}";
}
);
components = (
{
name = "choChoe-thai";
}
);
layerId = "E703E12A-5DA7-48FA-B69F-BB282FBD8E56";
paths = (
{
closed = 1;
nodes = (
"643 -212 LINE",
"643 -70 LINE",
"31 -70 LINE",
"31 -212 LINE"
);
}
);
width = 685;
},
{
anchors = (
{
name = bottom;
position = "{515, -140}";
}
);
components = (
{
alignment = -1;
name = "choChoe-thai";
}
);
layerId = "94F80E8F-7C96-497F-B870-569C37B7A2A5";
paths = (
{
closed = 1;
nodes = (
"515 -140 LINE",
"515 -70 LINE",
"43 -70 LINE",
"43 -140 LINE"
);
}
);
width = 565;
}
);
leftKerningGroup = "thoThung-thai";
leftMetricsKey = "thoThung-thai";
rightMetricsKey = "boBaimai-thai";
script = thai;
category = Letter;
subCategory = Other;
},
{
glyphname = "yoYing-thai";
lastChange = "2022-10-16 03:44:57 +0000";
layers = (
{
anchors = (
{
name = bottom;
position = "{779, -260}";
}
);
components = (
{
name = "yoYing-thai.less";
}
);
layerId = "EB3A5D6C-8260-43A6-9EF2-63971FC08D48";
paths = (
{
closed = 1;
nodes = (
"598 -260 OFFCURVE",
"737 -222 OFFCURVE",
"779 -185 CURVE",
"779 -36 LINE",
"777 -36 LINE",
"720 -90 OFFCURVE",
"611 -148 OFFCURVE",
"569 -148 CURVE SMOOTH",
"559 -148 OFFCURVE",
"549 -148 OFFCURVE",
"538 -144 CURVE",
"556 -190 LINE",
"586 -173 OFFCURVE",
"597 -152 OFFCURVE",
"597 -122 CURVE SMOOTH",
"597 -63 OFFCURVE",
"551 -26 OFFCURVE",
"476 -26 CURVE SMOOTH",
"403 -26 OFFCURVE",
"353 -72 OFFCURVE",
"353 -139 CURVE SMOOTH",
"353 -172 OFFCURVE",
"367 -204 OFFCURVE",
"391 -224 CURVE SMOOTH",
"417 -247 OFFCURVE",
"459 -260 OFFCURVE",
"508 -260 CURVE SMOOTH"
);
},
{
closed = 1;
nodes = (
"453 -172 OFFCURVE",
"438 -160 OFFCURVE",
"438 -138 CURVE SMOOTH",
"438 -116 OFFCURVE",
"453 -104 OFFCURVE",
"476 -104 CURVE SMOOTH",
"498 -104 OFFCURVE",
"513 -116 OFFCURVE",
"513 -138 CURVE SMOOTH",
"513 -160 OFFCURVE",
"498 -172 OFFCURVE",
"476 -172 CURVE SMOOTH"
);
}
);
userData = {
com.schriftgestaltung.Glyphs.glyph.leftMetricsKey = "thoThung-thai";
com.schriftgestaltung.Glyphs.glyph.rightMetricsKey = "noNu-thai";
};
width = 865;
},
{
anchors = (
{
name = bottom;
position = "{664, -197}";
}
);
components = (
{
name = "yoYing-thai.less";
}
);
layerId = "90A34054-68E4-499D-AE50-276C7B026D8B";
paths = (
{
closed = 1;
nodes = (
"543 -197 OFFCURVE",
"618 -161 OFFCURVE",
"664 -105 CURVE",
"664 -68 LINE",
"662 -68 LINE",
"613 -138 OFFCURVE",
"542 -178 OFFCURVE",
"464 -178 CURVE SMOOTH",
"450 -178 OFFCURVE",
"432 -176 OFFCURVE",
"424 -171 CURVE",
"425 -178 LINE",
"471 -181 OFFCURVE",
"500 -155 OFFCURVE",
"500 -115 CURVE SMOOTH",
"500 -73 OFFCURVE",
"472 -44 OFFCURVE",
"429 -44 CURVE SMOOTH",
"386 -44 OFFCURVE",
"357 -73 OFFCURVE",
"357 -115 CURVE SMOOTH",
"357 -139 OFFCURVE",
"368 -160 OFFCURVE",
"387 -174 CURVE SMOOTH",
"408 -189 OFFCURVE",
"435 -197 OFFCURVE",
"470 -197 CURVE SMOOTH"
);
},
{
closed = 1;
nodes = (
"398 -165 OFFCURVE",
"379 -145 OFFCURVE",
"379 -115 CURVE SMOOTH",
"379 -85 OFFCURVE",
"398 -65 OFFCURVE",
"429 -65 CURVE SMOOTH",
"459 -65 OFFCURVE",
"478 -84 OFFCURVE",
"478 -115 CURVE SMOOTH",
"478 -146 OFFCURVE",
"459 -165 OFFCURVE",
"429 -165 CURVE SMOOTH"
);
}
);
width = 760;
},
{
anchors = (
{
name = bottom;
position = "{711, -222}";
}
);
components = (
{
alignment = -1;
name = "yoYing-thai.less";
}
);
hints = (
{
horizontal = 1;
origin = "{0, 26}";
target = "{0, 7}";
type = Stem;
},
{
horizontal = 1;
origin = "{1, 5}";
target = "{0, 17}";
type = Stem;
}
);
layerId = "9148514D-BEB8-4275-B264-8F51401A425F";
paths = (
{
closed = 1;
nodes = (
"567 -222 OFFCURVE",
"663 -187 OFFCURVE",
"711 -143 CURVE",
"711 -57 LINE",
"709 -57 LINE",
"637 -125 OFFCURVE",
"549 -172 OFFCURVE",
"480 -172 CURVE SMOOTH",
"468 -172 OFFCURVE",
"459 -171 OFFCURVE",
"450 -168 CURVE",
"470 -188 LINE",
"513 -180 OFFCURVE",
"539 -158 OFFCURVE",
"539 -118 CURVE SMOOTH",
"539 -69 OFFCURVE",
"504 -37 OFFCURVE",
"448 -37 CURVE SMOOTH",
"392 -37 OFFCURVE",
"355 -73 OFFCURVE",
"355 -125 CURVE SMOOTH",
"355 -154 OFFCURVE",
"367 -177 OFFCURVE",
"390 -195 CURVE SMOOTH",
"413 -213 OFFCURVE",
"446 -222 OFFCURVE",
"485 -222 CURVE SMOOTH"
);
},
{
closed = 1;
nodes = (
"422 -163 OFFCURVE",
"408 -148 OFFCURVE",
"408 -124 CURVE SMOOTH",
"408 -100 OFFCURVE",
"422 -85 OFFCURVE",
"448 -85 CURVE SMOOTH",
"473 -85 OFFCURVE",
"487 -100 OFFCURVE",
"487 -124 CURVE SMOOTH",
"487 -148 OFFCURVE",
"473 -163 OFFCURVE",
"448 -163 CURVE SMOOTH"
);
}
);
width = 802;
},
{
anchors = (
{
name = bottom;
position = "{432, -188}";
}
);
components = (
{
name = "yoYing-thai.less";
}
);
layerId = "54E3FB14-E6D2-4DF3-BA4A-5621168F9335";
paths = (
{
closed = 1;
nodes = (
"351 -188 OFFCURVE",
"406 -155 OFFCURVE",
"432 -117 CURVE",
"432 -78 LINE",
"430 -78 LINE",
"398 -133 OFFCURVE",
"348 -169 OFFCURVE",
"303 -169 CURVE SMOOTH",
"290 -169 OFFCURVE",
"282 -166 OFFCURVE",
"277 -162 CURVE",
"278 -168 LINE",
"309 -173 OFFCURVE",
"327 -149 OFFCURVE",
"327 -106 CURVE SMOOTH",
"327 -61 OFFCURVE",
"309 -35 OFFCURVE",
"278 -35 CURVE SMOOTH",
"247 -35 OFFCURVE",
"228 -61 OFFCURVE",
"228 -106 CURVE SMOOTH",
"228 -133 OFFCURVE",
"234 -151 OFFCURVE",
"247 -164 CURVE SMOOTH",
"262 -179 OFFCURVE",
"281 -188 OFFCURVE",
"307 -188 CURVE SMOOTH"
);
},
{
closed = 1;
nodes = (
"260 -158 OFFCURVE",
"250 -139 OFFCURVE",
"250 -106 CURVE SMOOTH",
"250 -73 OFFCURVE",
"260 -54 OFFCURVE",
"278 -54 CURVE SMOOTH",
"296 -54 OFFCURVE",
"306 -74 OFFCURVE",
"306 -106 CURVE SMOOTH",
"306 -138 OFFCURVE",
"296 -158 OFFCURVE",
"278 -158 CURVE SMOOTH"
);
}
);
width = 488;
},
{
anchors = (
{
name = bottom;
position = "{609, -262}";
}
);
components = (
{
name = "yoYing-thai.less";
}
);
layerId = "E703E12A-5DA7-48FA-B69F-BB282FBD8E56";
paths = (
{
closed = 1;
nodes = (
"472 -262 OFFCURVE",
"577 -222 OFFCURVE",
"609 -185 CURVE",
"609 -35 LINE",
"606 -35 LINE",
"571 -85 OFFCURVE",
"484 -150 OFFCURVE",
"451 -150 CURVE SMOOTH",
"438 -150 OFFCURVE",
"432 -149 OFFCURVE",
"427 -147 CURVE",
"441 -192 LINE",
"460 -176 OFFCURVE",
"469 -153 OFFCURVE",
"469 -123 CURVE SMOOTH",
"469 -64 OFFCURVE",
"431 -27 OFFCURVE",
"372 -27 CURVE SMOOTH",
"314 -27 OFFCURVE",
"274 -73 OFFCURVE",
"274 -140 CURVE SMOOTH",
"274 -180 OFFCURVE",
"288 -210 OFFCURVE",
"313 -232 CURVE SMOOTH",
"336 -252 OFFCURVE",
"369 -262 OFFCURVE",
"405 -262 CURVE SMOOTH"
);
},
{
closed = 1;
nodes = (
"355 -173 OFFCURVE",
"343 -160 OFFCURVE",
"343 -139 CURVE SMOOTH",
"343 -118 OFFCURVE",
"355 -105 OFFCURVE",
"372 -105 CURVE SMOOTH",
"389 -105 OFFCURVE",
"400 -119 OFFCURVE",
"400 -139 CURVE SMOOTH",
"400 -159 OFFCURVE",
"389 -173 OFFCURVE",
"372 -173 CURVE SMOOTH"
);
}
);
userData = {
com.schriftgestaltung.Glyphs.glyph.leftMetricsKey = "thoThung-thai";
com.schriftgestaltung.Glyphs.glyph.rightMetricsKey = "noNu-thai";
};
width = 673;
},
{
anchors = (
{
name = bottom;
position = "{500, -217}";
}
);
components = (
{
alignment = -1;
name = "yoYing-thai.less";
}
);
layerId = "94F80E8F-7C96-497F-B870-569C37B7A2A5";
paths = (
{
closed = 1;
nodes = (
"392 -217 OFFCURVE",
"469 -183 OFFCURVE",
"500 -143 CURVE",
"500 -61 LINE",
"498 -61 LINE",
"466 -113 OFFCURVE",
"400 -162 OFFCURVE",
"359 -162 CURVE SMOOTH",
"355 -162 OFFCURVE",
"352 -162 OFFCURVE",
"348 -162 CURVE",
"352 -171 LINE",
"371 -166 OFFCURVE",
"381 -145 OFFCURVE",
"381 -113 CURVE SMOOTH",
"381 -63 OFFCURVE",
"356 -32 OFFCURVE",
"313 -32 CURVE SMOOTH",
"271 -32 OFFCURVE",
"245 -66 OFFCURVE",
"245 -119 CURVE SMOOTH",
"245 -148 OFFCURVE",
"252 -170 OFFCURVE",
"268 -188 CURVE SMOOTH",
"285 -207 OFFCURVE",
"309 -217 OFFCURVE",
"340 -217 CURVE SMOOTH"
);
},
{
closed = 1;
nodes = (
"296 -164 OFFCURVE",
"287 -146 OFFCURVE",
"287 -119 CURVE SMOOTH",
"287 -92 OFFCURVE",
"296 -74 OFFCURVE",
"313 -74 CURVE SMOOTH",
"329 -74 OFFCURVE",
"339 -90 OFFCURVE",
"339 -119 CURVE SMOOTH",
"339 -148 OFFCURVE",
"329 -164 OFFCURVE",
"313 -164 CURVE SMOOTH"
);
}
);
width = 560;
}
);
leftKerningGroup = "thoThung-thai";
leftMetricsKey = "thoThung-thai";
rightMetricsKey = "boBaimai-thai";
unicode = 0E0D;
},
{
glyphname = "yoYing_macronbelowcomb-thai";
lastChange = "2022-10-16 03:44:57 +0000";
layers = (
{
anchors = (
{
name = bottom;
position = "{669, -93}";
}
);
components = (
{
name = "yoYing-thai.less";
}
);
layerId = "90A34054-68E4-499D-AE50-276C7B026D8B";
paths = (
{
closed = 1;
nodes = (
"669 -93 LINE",
"669 -70 LINE",
"88 -70 LINE",
"88 -93 LINE"
);
}
);
width = 760;
},
{
anchors = (
{
name = bottom;
position = "{800, -212}";
}
);
components = (
{
name = "yoYing-thai.less";
}
);
layerId = "EB3A5D6C-8260-43A6-9EF2-63971FC08D48";
paths = (
{
closed = 1;
nodes = (
"800 -212 LINE",
"800 -70 LINE",
"38 -70 LINE",
"38 -212 LINE"
);
}
);
width = 865;
},
{
anchors = (
{
name = bottom;
position = "{722, -140}";
}
);
components = (
{
alignment = -1;
name = "yoYing-thai.less";
}
);
hints = (
{
horizontal = 1;
origin = "{0, 3}";
target = "{0, 2}";
type = Stem;
}
);
layerId = "9148514D-BEB8-4275-B264-8F51401A425F";
paths = (
{
closed = 1;
nodes = (
"722 -140 LINE",
"722 -69 LINE",
"68 -69 LINE",
"68 -140 LINE"
);
}
);
width = 802;
},
{
anchors = (
{
name = bottom;
position = "{432, -93}";
}
);
components = (
{
name = "yoYing-thai.less";
}
);
layerId = "54E3FB14-E6D2-4DF3-BA4A-5621168F9335";
paths = (
{
closed = 1;
nodes = (
"432 -93 LINE",
"432 -70 LINE",
"51 -70 LINE",
"51 -93 LINE"
);
}
);
width = 488;
},
{
anchors = (
{
name = bottom;
position = "{631, -212}";
}
);
components = (
{
name = "yoYing-thai.less";
}
);
layerId = "E703E12A-5DA7-48FA-B69F-BB282FBD8E56";
paths = (
{
closed = 1;
nodes = (
"631 -212 LINE",
"631 -70 LINE",
"39 -70 LINE",
"39 -212 LINE"
);
}
);
width = 673;
},
{
anchors = (
{
name = bottom;
position = "{510, -140}";
}
);
components = (
{
alignment = -1;
name = "yoYing-thai.less";
}
);
layerId = "94F80E8F-7C96-497F-B870-569C37B7A2A5";
paths = (
{
closed = 1;
nodes = (
"510 -140 LINE",
"510 -70 LINE",
"44 -70 LINE",
"44 -140 LINE"
);
}
);
width = 560;
}
);
leftKerningGroup = "thoThung-thai";
leftMetricsKey = "thoThung-thai";
rightMetricsKey = "boBaimai-thai";
script = thai;
category = Letter;
subCategory = Other;
},
{
glyphname = "yoYing-thai.less";
lastChange = "2022-10-16 03:44:57 +0000";
layers = (
{
anchors = (
{
name = bottom;
position = "{800, 0}";
},
{
name = top;
position = "{800, 514}";
}
);
layerId = "EB3A5D6C-8260-43A6-9EF2-63971FC08D48";
paths = (
{
closed = 1;
nodes = (
"252 -10 OFFCURVE",
"301 34 OFFCURVE",
"301 101 CURVE SMOOTH",
"301 160 OFFCURVE",
"262 197 OFFCURVE",
"198 197 CURVE SMOOTH",
"131 197 OFFCURVE",
"104 180 OFFCURVE",
"84 117 CURVE",
"111 92 LINE",
"111 132 OFFCURVE",
"164 164 OFFCURVE",
"224 163 CURVE",
"224 166 OFFCURVE",
"224 170 OFFCURVE",
"224 173 CURVE SMOOTH",
"224 179 LINE SMOOTH",
"224 208 OFFCURVE",
"253 228 OFFCURVE",
"288 226 CURVE",
"297 302 LINE",
"128 379 LINE",
"201 299 LINE",
"201 323 LINE SMOOTH",
"201 361 OFFCURVE",
"223 388 OFFCURVE",
"274 388 CURVE SMOOTH",
"324 388 OFFCURVE",
"351 359 OFFCURVE",
"351 294 CURVE SMOOTH",
"351 127 LINE",
"323 103 LINE",
"323 0 LINE",
"676 0 LINE SMOOTH",
"756 0 OFFCURVE",
"800 44 OFFCURVE",
"800 123 CURVE SMOOTH",
"800 514 LINE",
"614 514 LINE",
"614 153 LINE SMOOTH",
"614 139 OFFCURVE",
"605 129 OFFCURVE",
"590 129 CURVE SMOOTH",
"537 129 LINE",
"537 299 LINE SMOOTH",
"537 447 OFFCURVE",
"466 528 OFFCURVE",
"278 528 CURVE SMOOTH",
"120 528 OFFCURVE",
"25 445 OFFCURVE",
"25 325 CURVE SMOOTH",
"25 310 LINE",
"135 269 LINE",
"135 265 LINE",
"74 254 OFFCURVE",
"38 202 OFFCURVE",
"38 126 CURVE SMOOTH",
"38 132 LINE SMOOTH",
"38 31 OFFCURVE",
"100 -10 OFFCURVE",
"180 -10 CURVE SMOOTH"
);
},
{
closed = 1;
nodes = (
"157 61 OFFCURVE",
"142 73 OFFCURVE",
"142 96 CURVE SMOOTH",
"142 118 OFFCURVE",
"157 130 OFFCURVE",
"180 130 CURVE SMOOTH",
"202 130 OFFCURVE",
"217 118 OFFCURVE",
"217 96 CURVE SMOOTH",
"217 73 OFFCURVE",
"202 61 OFFCURVE",
"180 61 CURVE SMOOTH"
);
}
);
userData = {
com.schriftgestaltung.Glyphs.glyph.leftMetricsKey = "thoThung-thai";
com.schriftgestaltung.Glyphs.glyph.rightMetricsKey = "boBaimai-thai";
};
width = 865;
},
{
anchors = (
{
name = bottom;
position = "{669, 0}";
},
{
name = top;
position = "{669, 501}";
}
);
layerId = "90A34054-68E4-499D-AE50-276C7B026D8B";
paths = (
{
closed = 1;
nodes = (
"206 -5 OFFCURVE",
"237 25 OFFCURVE",
"237 69 CURVE SMOOTH",
"237 113 OFFCURVE",
"207 142 OFFCURVE",
"163 142 CURVE SMOOTH",
"122 142 OFFCURVE",
"97 115 OFFCURVE",
"97 70 CURVE",
"103 70 LINE",
"103 85 OFFCURVE",
"105 95 OFFCURVE",
"110 103 CURVE",
"113 118 OFFCURVE",
"113 134 OFFCURVE",
"113 152 CURVE SMOOTH",
"113 186 LINE SMOOTH",
"113 256 OFFCURVE",
"140 280 OFFCURVE",
"209 295 CURVE",
"212 315 LINE",
"76 357 LINE",
"87 342 LINE",
"87 349 LINE SMOOTH",
"87 430 OFFCURVE",
"153 485 OFFCURVE",
"251 485 CURVE SMOOTH",
"349 485 OFFCURVE",
"402 436 OFFCURVE",
"402 342 CURVE SMOOTH",
"402 22 LINE",
"346 18 LINE",
"346 0 LINE",
"595 0 LINE SMOOTH",
"645 0 OFFCURVE",
"669 24 OFFCURVE",
"669 75 CURVE SMOOTH",
"669 501 LINE",
"644 501 LINE",
"644 78 LINE SMOOTH",
"644 39 OFFCURVE",
"627 23 OFFCURVE",
"589 23 CURVE SMOOTH",
"427 23 LINE",
"427 347 LINE SMOOTH",
"427 449 OFFCURVE",
"363 508 OFFCURVE",
"251 508 CURVE SMOOTH",
"139 508 OFFCURVE",
"62 443 OFFCURVE",
"62 349 CURVE SMOOTH",
"62 339 LINE",
"178 307 LINE",
"178 304 LINE",
"113 286 OFFCURVE",
"88 252 OFFCURVE",
"88 185 CURVE SMOOTH",
"88 73 LINE SMOOTH",
"88 26 OFFCURVE",
"117 -5 OFFCURVE",
"162 -5 CURVE SMOOTH"
);
},
{
closed = 1;
nodes = (
"131 16 OFFCURVE",
"111 37 OFFCURVE",
"111 69 CURVE SMOOTH",
"111 100 OFFCURVE",
"131 121 OFFCURVE",
"162 121 CURVE SMOOTH",
"194 121 OFFCURVE",
"214 100 OFFCURVE",
"214 69 CURVE SMOOTH",
"214 37 OFFCURVE",
"193 16 OFFCURVE",
"162 16 CURVE SMOOTH"
);
}
);
width = 760;
},
{
anchors = (
{
name = bottom;
position = "{722, 0}";
},
{
name = top;
position = "{722, 506}";
}
);
hints = (
{
origin = "{0, 30}";
target = "{0, 43}";
type = Stem;
},
{
horizontal = 1;
origin = "{0, 32}";
target = "{0, 43}";
type = Stem;
},
{
horizontal = 1;
origin = "{0, 38}";
target = down;
type = TopGhost;
},
{
origin = "{0, 39}";
target = "{0, 36}";
type = Stem;
},
{
horizontal = 1;
origin = "{0, 47}";
target = "{0, 26}";
type = Stem;
},
{
origin = "{0, 57}";
target = "{0, 15}";
type = Stem;
},
{
horizontal = 1;
origin = "{0, 60}";
target = "{1, 11}";
type = Stem;
}
);
layerId = "9148514D-BEB8-4275-B264-8F51401A425F";
paths = (
{
closed = 1;
nodes = (
"225 -7 OFFCURVE",
"262 28 OFFCURVE",
"262 82 CURVE SMOOTH",
"262 133 OFFCURVE",
"225 169 OFFCURVE",
"172 169 CURVE SMOOTH",
"123 169 OFFCURVE",
"95 140 OFFCURVE",
"93 90 CURVE",
"104 88 LINE",
"105 115 OFFCURVE",
"122 132 OFFCURVE",
"152 137 CURVE",
"156 153 OFFCURVE",
"158 166 OFFCURVE",
"158 176 CURVE SMOOTH",
"158 183 LINE SMOOTH",
"158 233 OFFCURVE",
"181 258 OFFCURVE",
"241 267 CURVE",
"247 318 LINE",
"91 374 LINE",
"127 325 LINE",
"127 339 LINE SMOOTH",
"127 404 OFFCURVE",
"180 448 OFFCURVE",
"260 448 CURVE SMOOTH",
"339 448 OFFCURVE",
"381 405 OFFCURVE",
"381 323 CURVE SMOOTH",
"381 64 LINE",
"337 51 LINE",
"337 0 LINE",
"628 0 LINE SMOOTH",
"690 0 OFFCURVE",
"722 32 OFFCURVE",
"722 94 CURVE SMOOTH",
"722 506 LINE",
"632 506 LINE",
"632 108 LINE SMOOTH",
"632 79 OFFCURVE",
"619 65 OFFCURVE",
"589 65 CURVE SMOOTH",
"471 65 LINE",
"471 324 LINE SMOOTH",
"471 450 OFFCURVE",
"400 516 OFFCURVE",
"261 516 CURVE SMOOTH",
"129 516 OFFCURVE",
"41 446 OFFCURVE",
"41 339 CURVE SMOOTH",
"41 327 LINE",
"161 292 LINE",
"161 288 LINE",
"98 273 OFFCURVE",
"68 233 OFFCURVE",
"68 161 CURVE SMOOTH",
"68 95 LINE SMOOTH",
"68 30 OFFCURVE",
"106 -7 OFFCURVE",
"167 -7 CURVE SMOOTH"
);
},
{
closed = 1;
nodes = (
"142 42 OFFCURVE",
"127 56 OFFCURVE",
"127 80 CURVE SMOOTH",
"127 105 OFFCURVE",
"142 119 OFFCURVE",
"167 119 CURVE SMOOTH",
"192 119 OFFCURVE",
"207 105 OFFCURVE",
"207 80 CURVE SMOOTH",
"207 56 OFFCURVE",
"192 42 OFFCURVE",
"167 42 CURVE SMOOTH"
);
}
);
width = 802;
},
{
anchors = (
{
name = bottom;
position = "{432, 0}";
},
{
name = top;
position = "{432, 501}";
}
);
layerId = "54E3FB14-E6D2-4DF3-BA4A-5621168F9335";
paths = (
{
closed = 1;
nodes = (
"133 -5 OFFCURVE",
"152 22 OFFCURVE",
"152 69 CURVE SMOOTH",
"152 114 OFFCURVE",
"134 142 OFFCURVE",
"102 142 CURVE SMOOTH",
"76 142 OFFCURVE",
"63 115 OFFCURVE",
"63 69 CURVE",
"65 69 LINE",
"65 83 OFFCURVE",
"68 97 OFFCURVE",
"72 106 CURVE",
"74 119 OFFCURVE",
"75 138 OFFCURVE",
"75 152 CURVE SMOOTH",
"75 186 LINE SMOOTH",
"75 247 OFFCURVE",
"88 279 OFFCURVE",
"135 295 CURVE",
"137 315 LINE",
"48 357 LINE",
"58 342 LINE",
"58 349 LINE SMOOTH",
"58 437 OFFCURVE",
"94 486 OFFCURVE",
"158 486 CURVE SMOOTH",
"218 486 OFFCURVE",
"251 439 OFFCURVE",
"251 351 CURVE SMOOTH",
"251 22 LINE",
"217 18 LINE",
"217 0 LINE",
"373 0 LINE SMOOTH",
"414 0 OFFCURVE",
"432 20 OFFCURVE",
"432 66 CURVE SMOOTH",
"432 501 LINE",
"407 501 LINE",
"407 69 LINE SMOOTH",
"407 34 OFFCURVE",
"398 22 OFFCURVE",
"368 22 CURVE SMOOTH",
"276 22 LINE",
"276 355 LINE SMOOTH",
"276 453 OFFCURVE",
"233 508 OFFCURVE",
"157 508 CURVE SMOOTH",
"78 508 OFFCURVE",
"34 450 OFFCURVE",
"34 349 CURVE SMOOTH",
"34 339 LINE",
"108 307 LINE",
"108 304 LINE",
"67 285 OFFCURVE",
"50 252 OFFCURVE",
"50 185 CURVE SMOOTH",
"50 73 LINE SMOOTH",
"50 23 OFFCURVE",
"69 -5 OFFCURVE",
"101 -5 CURVE SMOOTH"
);
},
{
closed = 1;
nodes = (
"84 16 OFFCURVE",
"74 35 OFFCURVE",
"74 69 CURVE SMOOTH",
"74 102 OFFCURVE",
"84 121 OFFCURVE",
"102 121 CURVE SMOOTH",
"120 121 OFFCURVE",
"130 102 OFFCURVE",
"130 69 CURVE SMOOTH",
"130 35 OFFCURVE",
"120 16 OFFCURVE",
"102 16 CURVE SMOOTH"
);
}
);
width = 488;
},
{
anchors = (
{
name = bottom;
position = "{631, 0}";
},
{
name = top;
position = "{631, 514}";
}
);
layerId = "E703E12A-5DA7-48FA-B69F-BB282FBD8E56";
paths = (
{
closed = 1;
nodes = (
"205 -10 OFFCURVE",
"244 34 OFFCURVE",
"244 101 CURVE SMOOTH",
"244 159 OFFCURVE",
"214 198 OFFCURVE",
"164 198 CURVE SMOOTH",
"112 198 OFFCURVE",
"90 180 OFFCURVE",
"71 117 CURVE",
"95 93 LINE",
"95 130 OFFCURVE",
"139 162 OFFCURVE",
"191 162 CURVE",
"190 164 OFFCURVE",
"189 170 OFFCURVE",
"189 173 CURVE SMOOTH",
"189 179 LINE SMOOTH",
"189 205 OFFCURVE",
"210 228 OFFCURVE",
"236 226 CURVE",
"244 303 LINE",
"112 380 LINE",
"173 299 LINE",
"173 323 LINE SMOOTH",
"173 365 OFFCURVE",
"190 388 OFFCURVE",
"220 388 CURVE SMOOTH",
"256 388 OFFCURVE",
"272 356 OFFCURVE",
"272 293 CURVE SMOOTH",
"272 127 LINE",
"254 103 LINE",
"254 0 LINE",
"533 0 LINE SMOOTH",
"595 0 OFFCURVE",
"631 44 OFFCURVE",
"631 124 CURVE SMOOTH",
"631 514 LINE",
"475 514 LINE",
"475 154 LINE SMOOTH",
"475 140 OFFCURVE",
"469 129 OFFCURVE",
"461 129 CURVE SMOOTH",
"428 129 LINE",
"428 298 LINE SMOOTH",
"428 457 OFFCURVE",
"364 528 OFFCURVE",
"224 528 CURVE SMOOTH",
"104 528 OFFCURVE",
"26 447 OFFCURVE",
"26 325 CURVE SMOOTH",
"26 310 LINE",
"109 269 LINE",
"109 265 LINE",
"62 254 OFFCURVE",
"33 204 OFFCURVE",
"33 132 CURVE SMOOTH",
"33 126 LINE SMOOTH",
"33 42 OFFCURVE",
"76 -10 OFFCURVE",
"148 -10 CURVE SMOOTH"
);
},
{
closed = 1;
nodes = (
"131 62 OFFCURVE",
"120 75 OFFCURVE",
"120 96 CURVE SMOOTH",
"120 116 OFFCURVE",
"131 129 OFFCURVE",
"148 129 CURVE SMOOTH",
"165 129 OFFCURVE",
"177 116 OFFCURVE",
"177 96 CURVE SMOOTH",
"177 75 OFFCURVE",
"165 62 OFFCURVE",
"148 62 CURVE SMOOTH"
);
}
);
userData = {
com.schriftgestaltung.Glyphs.glyph.leftMetricsKey = "thoThung-thai";
com.schriftgestaltung.Glyphs.glyph.rightMetricsKey = "boBaimai-thai";
};
width = 673;
},
{
anchors = (
{
name = bottom;
position = "{510, 0}";
},
{
name = top;
position = "{510, 506}";
}
);
layerId = "94F80E8F-7C96-497F-B870-569C37B7A2A5";
paths = (
{
closed = 1;
nodes = (
"162 -7 OFFCURVE",
"188 27 OFFCURVE",
"188 81 CURVE SMOOTH",
"188 132 OFFCURVE",
"165 165 OFFCURVE",
"126 165 CURVE SMOOTH",
"91 165 OFFCURVE",
"71 140 OFFCURVE",
"67 88 CURVE",
"77 78 LINE",
"77 112 OFFCURVE",
"97 147 OFFCURVE",
"117 147 CURVE",
"119 151 OFFCURVE",
"120 159 OFFCURVE",
"120 170 CURVE SMOOTH",
"120 183 LINE SMOOTH",
"120 236 OFFCURVE",
"140 260 OFFCURVE",
"175 268 CURVE",
"179 310 LINE",
"73 366 LINE",
"103 325 LINE",
"103 339 LINE SMOOTH",
"103 409 OFFCURVE",
"132 449 OFFCURVE",
"182 449 CURVE SMOOTH",
"233 449 OFFCURVE",
"259 406 OFFCURVE",
"259 328 CURVE SMOOTH",
"259 63 LINE",
"232 51 LINE",
"232 0 LINE",
"436 0 LINE SMOOTH",
"485 0 OFFCURVE",
"510 29 OFFCURVE",
"510 89 CURVE SMOOTH",
"510 506 LINE",
"433 506 LINE",
"433 102 LINE SMOOTH",
"433 75 OFFCURVE",
"424 64 OFFCURVE",
"404 64 CURVE SMOOTH",
"336 64 LINE",
"336 333 LINE SMOOTH",
"336 455 OFFCURVE",
"285 516 OFFCURVE",
"183 516 CURVE SMOOTH",
"88 516 OFFCURVE",
"31 449 OFFCURVE",
"31 340 CURVE SMOOTH",
"31 328 LINE",
"108 292 LINE",
"108 289 LINE",
"65 273 OFFCURVE",
"43 231 OFFCURVE",
"43 161 CURVE SMOOTH",
"43 96 LINE SMOOTH",
"43 31 OFFCURVE",
"72 -7 OFFCURVE",
"120 -7 CURVE SMOOTH"
);
},
{
closed = 1;
nodes = (
"103 36 OFFCURVE",
"94 52 OFFCURVE",
"94 80 CURVE SMOOTH",
"94 109 OFFCURVE",
"103 125 OFFCURVE",
"119 125 CURVE SMOOTH",
"136 125 OFFCURVE",
"145 108 OFFCURVE",
"145 80 CURVE SMOOTH",
"145 53 OFFCURVE",
"136 36 OFFCURVE",
"119 36 CURVE SMOOTH"
);
}
);
width = 560;
}
);
leftKerningGroup = "thoThung-thai";
leftMetricsKey = "thoThung-thai";
rightMetricsKey = "boBaimai-thai";
},
{
glyphname = "doChada-thai";
lastChange = "2022-10-16 03:44:57 +0000";
layers = (
{
anchors = (
{
name = bottom;
position = "{563, -219}";
},
{
name = top;
position = "{553, 514}";
}
);
layerId = "EB3A5D6C-8260-43A6-9EF2-63971FC08D48";
paths = (
{
closed = 1;
nodes = (
"265 -229 OFFCURVE",
"321 -179 OFFCURVE",
"319 -117 CURVE",
"242 -85 LINE",
"242 -122 OFFCURVE",
"220 -153 OFFCURVE",
"194 -153 CURVE SMOOTH",
"176 -153 OFFCURVE",
"161 -140 OFFCURVE",
"161 -122 CURVE SMOOTH",
"161 -102 OFFCURVE",
"177 -88 OFFCURVE",
"201 -88 CURVE SMOOTH",
"230 -88 OFFCURVE",
"267 -106 OFFCURVE",
"312 -139 CURVE SMOOTH",
"343 -162 OFFCURVE",
"364 -183 OFFCURVE",
"396 -219 CURVE",
"563 -219 LINE",
"563 299 LINE SMOOTH",
"563 456 OFFCURVE",
"481 528 OFFCURVE",
"300 528 CURVE SMOOTH",
"143 528 OFFCURVE",
"42 449 OFFCURVE",
"42 325 CURVE SMOOTH",
"42 310 LINE",
"157 280 LINE",
"157 276 LINE",
"124 270 OFFCURVE",
"105 254 OFFCURVE",
"105 233 CURVE SMOOTH",
"105 231 LINE SMOOTH",
"105 223 OFFCURVE",
"109 208 OFFCURVE",
"115 192 CURVE",
"148 201 OFFCURVE",
"186 182 OFFCURVE",
"199 147 CURVE",
"216 147 LINE",
"213 190 OFFCURVE",
"176 218 OFFCURVE",
"120 218 CURVE SMOOTH",
"58 218 OFFCURVE",
"15 176 OFFCURVE",
"15 118 CURVE SMOOTH",
"15 54 OFFCURVE",
"64 13 OFFCURVE",
"140 13 CURVE SMOOTH",
"223 13 OFFCURVE",
"275 62 OFFCURVE",
"275 143 CURVE SMOOTH",
"275 205 LINE SMOOTH",
"275 226 OFFCURVE",
"285 235 OFFCURVE",
"310 237 CURVE",
"320 313 LINE",
"145 379 LINE",
"217 299 LINE",
"217 323 LINE SMOOTH",
"217 364 OFFCURVE",
"246 388 OFFCURVE",
"296 388 CURVE SMOOTH",
"351 388 OFFCURVE",
"377 357 OFFCURVE",
"377 294 CURVE SMOOTH",
"377 28 LINE SMOOTH",
"377 -37 OFFCURVE",
"379 -61 OFFCURVE",
"388 -88 CURVE",
"384 -88 LINE",
"364 -66 OFFCURVE",
"338 -49 OFFCURVE",
"304 -44 CURVE",
"267 -20 OFFCURVE",
"229 -9 OFFCURVE",
"196 -9 CURVE SMOOTH",
"122 -9 OFFCURVE",
"72 -56 OFFCURVE",
"72 -125 CURVE SMOOTH",
"72 -186 OFFCURVE",
"123 -229 OFFCURVE",
"193 -229 CURVE SMOOTH"
);
},
{
closed = 1;
nodes = (
"108 84 OFFCURVE",
"94 96 OFFCURVE",
"94 118 CURVE SMOOTH",
"94 140 OFFCURVE",
"109 152 OFFCURVE",
"131 152 CURVE SMOOTH",
"154 152 OFFCURVE",
"169 140 OFFCURVE",
"169 118 CURVE SMOOTH",
"169 96 OFFCURVE",
"154 84 OFFCURVE",
"131 84 CURVE SMOOTH"
);
},
{
closed = 1;
nodes = (
"339 -44 OFFCURVE",
"342 -26 OFFCURVE",
"343 10 CURVE",
"246 10 LINE",
"246 -14 OFFCURVE",
"244 -37 OFFCURVE",
"241 -62 CURVE",
"329 -84 LINE"
);
}
);
userData = {
com.schriftgestaltung.Glyphs.glyph.leftMetricsKey = "phoSamphao-thai";
com.schriftgestaltung.Glyphs.glyph.rightMetricsKey = "khoKhwai-thai";
};
width = 626;
},
{
anchors = (
{
name = bottom;
position = "{453, -211}";
},
{
name = top;
position = "{443, 501}";
}
);
layerId = "90A34054-68E4-499D-AE50-276C7B026D8B";
paths = (
{
closed = 1;
nodes = (
"240 -216 OFFCURVE",
"280 -172 OFFCURVE",
"293 -94 CURVE",
"269 -86 LINE",
"263 -154 OFFCURVE",
"231 -195 OFFCURVE",
"183 -195 CURVE SMOOTH",
"147 -195 OFFCURVE",
"122 -171 OFFCURVE",
"122 -138 CURVE SMOOTH",
"122 -101 OFFCURVE",
"151 -78 OFFCURVE",
"196 -78 CURVE SMOOTH",
"222 -78 OFFCURVE",
"248 -84 OFFCURVE",
"280 -99 CURVE SMOOTH",
"337 -126 OFFCURVE",
"387 -163 OFFCURVE",
"428 -211 CURVE",
"453 -211 LINE",
"453 347 LINE SMOOTH",
"453 451 OFFCURVE",
"388 508 OFFCURVE",
"271 508 CURVE SMOOTH",
"151 508 OFFCURVE",
"76 447 OFFCURVE",
"76 349 CURVE SMOOTH",
"76 339 LINE",
"202 304 LINE",
"202 302 LINE",
"157 286 OFFCURVE",
"139 256 OFFCURVE",
"139 188 CURVE SMOOTH",
"139 146 LINE SMOOTH",
"139 134 OFFCURVE",
"141 120 OFFCURVE",
"144 109 CURVE",
"150 103 OFFCURVE",
"152 93 OFFCURVE",
"153 88 CURVE",
"157 88 LINE",
"154 120 OFFCURVE",
"126 143 OFFCURVE",
"91 143 CURVE SMOOTH",
"49 143 OFFCURVE",
"19 114 OFFCURVE",
"19 72 CURVE SMOOTH",
"19 30 OFFCURVE",
"49 0 OFFCURVE",
"92 0 CURVE SMOOTH",
"136 0 OFFCURVE",
"164 31 OFFCURVE",
"164 76 CURVE SMOOTH",
"164 188 LINE SMOOTH",
"164 261 OFFCURVE",
"181 279 OFFCURVE",
"233 293 CURVE",
"236 313 LINE",
"90 357 LINE",
"101 342 LINE",
"101 349 LINE SMOOTH",
"101 434 OFFCURVE",
"164 485 OFFCURVE",
"271 485 CURVE SMOOTH",
"374 485 OFFCURVE",
"428 438 OFFCURVE",
"428 342 CURVE SMOOTH",
"428 -12 LINE SMOOTH",
"428 -76 OFFCURVE",
"428 -109 OFFCURVE",
"430 -177 CURVE",
"427 -177 LINE",
"384 -135 OFFCURVE",
"331 -98 OFFCURVE",
"286 -79 CURVE",
"254 -63 OFFCURVE",
"225 -57 OFFCURVE",
"193 -57 CURVE SMOOTH",
"137 -57 OFFCURVE",
"99 -90 OFFCURVE",
"99 -138 CURVE SMOOTH",
"99 -184 OFFCURVE",
"134 -216 OFFCURVE",
"183 -216 CURVE SMOOTH"
);
},
{
closed = 1;
nodes = (
"61 21 OFFCURVE",
"42 41 OFFCURVE",
"42 72 CURVE SMOOTH",
"42 102 OFFCURVE",
"61 122 OFFCURVE",
"92 122 CURVE SMOOTH",
"122 122 OFFCURVE",
"141 102 OFFCURVE",
"141 72 CURVE SMOOTH",
"141 41 OFFCURVE",
"122 21 OFFCURVE",
"92 21 CURVE SMOOTH"
);
},
{
closed = 1;
nodes = (
"298 -49 OFFCURVE",
"299 -26 OFFCURVE",
"299 0 CURVE",
"275 0 LINE",
"275 -37 OFFCURVE",
"274 -61 OFFCURVE",
"271 -79 CURVE",
"294 -87 LINE"
);
}
);
width = 539;
},
{
anchors = (
{
name = bottom;
position = "{500, -214}";
},
{
name = top;
position = "{490, 506}";
}
);
hints = (
{
horizontal = 1;
origin = "{0, 23}";
target = "{0, 63}";
type = Stem;
},
{
origin = "{0, 33}";
target = "{0, 52}";
type = Stem;
},
{
origin = "{0, 67}";
target = "{0, 19}";
type = Stem;
},
{
horizontal = 1;
origin = "{0, 83}";
target = "{0, 6}";
type = Stem;
}
);
layerId = "9148514D-BEB8-4275-B264-8F51401A425F";
paths = (
{
closed = 1;
nodes = (
"252 -221 OFFCURVE",
"300 -177 OFFCURVE",
"307 -103 CURVE",
"253 -86 LINE",
"250 -136 OFFCURVE",
"225 -170 OFFCURVE",
"190 -170 CURVE SMOOTH",
"165 -170 OFFCURVE",
"147 -153 OFFCURVE",
"147 -132 CURVE SMOOTH",
"147 -104 OFFCURVE",
"166 -88 OFFCURVE",
"201 -88 CURVE SMOOTH",
"226 -88 OFFCURVE",
"260 -98 OFFCURVE",
"285 -110 CURVE SMOOTH",
"324 -128 OFFCURVE",
"379 -174 OFFCURVE",
"417 -214 CURVE",
"500 -214 LINE",
"500 328 LINE SMOOTH",
"500 453 OFFCURVE",
"429 516 OFFCURVE",
"285 516 CURVE SMOOTH",
"150 516 OFFCURVE",
"62 448 OFFCURVE",
"62 339 CURVE SMOOTH",
"62 327 LINE",
"186 291 LINE",
"186 288 LINE",
"139 273 OFFCURVE",
"123 249 OFFCURVE",
"123 198 CURVE SMOOTH",
"123 186 LINE SMOOTH",
"123 175 OFFCURVE",
"125 161 OFFCURVE",
"129 145 CURVE",
"155 142 OFFCURVE",
"173 126 OFFCURVE",
"175 106 CURVE",
"185 106 LINE",
"185 148 OFFCURVE",
"154 176 OFFCURVE",
"109 176 CURVE SMOOTH",
"57 176 OFFCURVE",
"20 140 OFFCURVE",
"20 89 CURVE SMOOTH",
"20 35 OFFCURVE",
"57 1 OFFCURVE",
"113 1 CURVE SMOOTH",
"176 1 OFFCURVE",
"211 38 OFFCURVE",
"211 102 CURVE SMOOTH",
"211 195 LINE SMOOTH",
"211 239 OFFCURVE",
"224 257 OFFCURVE",
"265 267 CURVE",
"271 318 LINE",
"112 374 LINE",
"148 325 LINE",
"148 339 LINE SMOOTH",
"148 407 OFFCURVE",
"199 448 OFFCURVE",
"283 448 CURVE SMOOTH",
"367 448 OFFCURVE",
"410 406 OFFCURVE",
"410 323 CURVE SMOOTH",
"410 4 LINE SMOOTH",
"410 -65 OFFCURVE",
"412 -110 OFFCURVE",
"415 -141 CURVE",
"412 -141 LINE",
"374 -103 OFFCURVE",
"334 -77 OFFCURVE",
"296 -62 CURVE",
"263 -45 OFFCURVE",
"228 -37 OFFCURVE",
"196 -37 CURVE SMOOTH",
"133 -37 OFFCURVE",
"89 -76 OFFCURVE",
"89 -132 CURVE SMOOTH",
"89 -183 OFFCURVE",
"132 -221 OFFCURVE",
"189 -221 CURVE SMOOTH"
);
},
{
closed = 1;
nodes = (
"87 49 OFFCURVE",
"73 64 OFFCURVE",
"73 88 CURVE SMOOTH",
"73 112 OFFCURVE",
"88 127 OFFCURVE",
"113 127 CURVE SMOOTH",
"138 127 OFFCURVE",
"153 112 OFFCURVE",
"153 88 CURVE SMOOTH",
"153 64 OFFCURVE",
"138 49 OFFCURVE",
"113 49 CURVE SMOOTH"
);
},
{
closed = 1;
nodes = (
"317 -55 OFFCURVE",
"319 -28 OFFCURVE",
"319 1 CURVE",
"257 1 LINE",
"257 -28 OFFCURVE",
"256 -51 OFFCURVE",
"253 -72 CURVE",
"311 -85 LINE"
);
}
);
width = 577;
},
{
anchors = (
{
name = bottom;
position = "{296, -211}";
},
{
name = top;
position = "{290, 501}";
}
);
layerId = "54E3FB14-E6D2-4DF3-BA4A-5621168F9335";
paths = (
{
closed = 1;
nodes = (
"159 -216 OFFCURVE",
"184 -173 OFFCURVE",
"189 -94 CURVE",
"171 -86 LINE",
"167 -153 OFFCURVE",
"148 -196 OFFCURVE",
"122 -196 CURVE SMOOTH",
"100 -196 OFFCURVE",
"84 -171 OFFCURVE",
"84 -138 CURVE SMOOTH",
"84 -101 OFFCURVE",
"100 -77 OFFCURVE",
"126 -77 CURVE SMOOTH",
"144 -77 OFFCURVE",
"160 -84 OFFCURVE",
"182 -101 CURVE SMOOTH",
"215 -126 OFFCURVE",
"250 -172 OFFCURVE",
"270 -211 CURVE",
"296 -211 LINE",
"296 355 LINE SMOOTH",
"296 452 OFFCURVE",
"251 508 OFFCURVE",
"173 508 CURVE SMOOTH",
"91 508 OFFCURVE",
"45 449 OFFCURVE",
"45 349 CURVE SMOOTH",
"45 339 LINE",
"126 304 LINE",
"126 302 LINE",
"97 286 OFFCURVE",
"87 254 OFFCURVE",
"87 188 CURVE SMOOTH",
"87 146 LINE SMOOTH",
"87 133 OFFCURVE",
"87 119 OFFCURVE",
"90 109 CURVE",
"95 102 OFFCURVE",
"97 96 OFFCURVE",
"98 88 CURVE",
"100 88 LINE",
"99 120 OFFCURVE",
"85 143 OFFCURVE",
"60 143 CURVE SMOOTH",
"30 143 OFFCURVE",
"12 118 OFFCURVE",
"12 72 CURVE SMOOTH",
"12 26 OFFCURVE",
"30 0 OFFCURVE",
"61 0 CURVE SMOOTH",
"93 0 OFFCURVE",
"112 29 OFFCURVE",
"112 76 CURVE SMOOTH",
"112 188 LINE SMOOTH",
"112 256 OFFCURVE",
"119 279 OFFCURVE",
"152 293 CURVE",
"154 313 LINE",
"59 357 LINE",
"70 342 LINE",
"70 349 LINE SMOOTH",
"70 436 OFFCURVE",
"107 486 OFFCURVE",
"173 486 CURVE SMOOTH",
"237 486 OFFCURVE",
"271 438 OFFCURVE",
"271 351 CURVE SMOOTH",
"271 -12 LINE SMOOTH",
"271 -62 OFFCURVE",
"272 -135 OFFCURVE",
"273 -175 CURVE",
"272 -175 LINE",
"245 -134 OFFCURVE",
"215 -101 OFFCURVE",
"184 -78 CURVE",
"161 -63 OFFCURVE",
"144 -57 OFFCURVE",
"124 -57 CURVE SMOOTH",
"88 -57 OFFCURVE",
"62 -89 OFFCURVE",
"62 -138 CURVE SMOOTH",
"62 -183 OFFCURVE",
"87 -216 OFFCURVE",
"120 -216 CURVE SMOOTH"
);
},
{
closed = 1;
nodes = (
"44 21 OFFCURVE",
"34 39 OFFCURVE",
"34 72 CURVE SMOOTH",
"34 104 OFFCURVE",
"44 122 OFFCURVE",
"60 122 CURVE SMOOTH",
"78 122 OFFCURVE",
"88 104 OFFCURVE",
"88 72 CURVE SMOOTH",
"88 39 OFFCURVE",
"78 21 OFFCURVE",
"60 21 CURVE SMOOTH"
);
},
{
closed = 1;
nodes = (
"193 -67 OFFCURVE",
"194 -35 OFFCURVE",
"194 0 CURVE",
"174 0 LINE",
"174 -33 OFFCURVE",
"173 -55 OFFCURVE",
"171 -79 CURVE",
"190 -87 LINE"
);
}
);
width = 350;
},
{
anchors = (
{
name = bottom;
position = "{438, -219}";
},
{
name = top;
position = "{433, 514}";
}
);
layerId = "E703E12A-5DA7-48FA-B69F-BB282FBD8E56";
paths = (
{
closed = 1;
nodes = (
"203 -229 OFFCURVE",
"247 -179 OFFCURVE",
"245 -117 CURVE",
"182 -86 LINE",
"185 -120 OFFCURVE",
"169 -152 OFFCURVE",
"149 -152 CURVE SMOOTH",
"135 -152 OFFCURVE",
"125 -139 OFFCURVE",
"125 -122 CURVE SMOOTH",
"125 -103 OFFCURVE",
"137 -89 OFFCURVE",
"153 -89 CURVE SMOOTH",
"176 -89 OFFCURVE",
"211 -109 OFFCURVE",
"242 -139 CURVE SMOOTH",
"263 -159 OFFCURVE",
"274 -175 OFFCURVE",
"300 -219 CURVE",
"438 -219 LINE",
"438 298 LINE SMOOTH",
"438 458 OFFCURVE",
"375 528 OFFCURVE",
"231 528 CURVE SMOOTH",
"108 528 OFFCURVE",
"29 448 OFFCURVE",
"29 325 CURVE SMOOTH",
"29 310 LINE",
"117 280 LINE",
"117 276 LINE",
"88 263 OFFCURVE",
"77 245 OFFCURVE",
"77 228 CURVE SMOOTH",
"77 223 LINE SMOOTH",
"77 215 OFFCURVE",
"79 204 OFFCURVE",
"85 191 CURVE",
"115 200 OFFCURVE",
"146 178 OFFCURVE",
"156 146 CURVE",
"170 146 LINE",
"168 185 OFFCURVE",
"138 218 OFFCURVE",
"94 218 CURVE SMOOTH",
"46 218 OFFCURVE",
"11 177 OFFCURVE",
"11 118 CURVE SMOOTH",
"11 54 OFFCURVE",
"51 12 OFFCURVE",
"111 12 CURVE SMOOTH",
"177 12 OFFCURVE",
"219 64 OFFCURVE",
"219 143 CURVE SMOOTH",
"219 205 LINE SMOOTH",
"219 226 OFFCURVE",
"229 234 OFFCURVE",
"244 236 CURVE",
"251 313 LINE",
"116 380 LINE",
"177 299 LINE",
"177 325 LINE SMOOTH",
"177 365 OFFCURVE",
"195 388 OFFCURVE",
"228 388 CURVE SMOOTH",
"265 388 OFFCURVE",
"282 359 OFFCURVE",
"282 295 CURVE SMOOTH",
"282 28 LINE SMOOTH",
"282 -29 OFFCURVE",
"284 -55 OFFCURVE",
"292 -88 CURVE",
"290 -88 LINE",
"272 -63 OFFCURVE",
"252 -48 OFFCURVE",
"233 -44 CURVE",
"206 -21 OFFCURVE",
"176 -9 OFFCURVE",
"149 -9 CURVE SMOOTH",
"93 -9 OFFCURVE",
"53 -57 OFFCURVE",
"53 -125 CURVE SMOOTH",
"53 -185 OFFCURVE",
"93 -229 OFFCURVE",
"148 -229 CURVE SMOOTH"
);
},
{
closed = 1;
nodes = (
"86 84 OFFCURVE",
"74 97 OFFCURVE",
"74 118 CURVE SMOOTH",
"74 138 OFFCURVE",
"85 151 OFFCURVE",
"103 151 CURVE SMOOTH",
"120 151 OFFCURVE",
"131 138 OFFCURVE",
"131 118 CURVE SMOOTH",
"131 98 OFFCURVE",
"120 84 OFFCURVE",
"103 84 CURVE SMOOTH"
);
},
{
closed = 1;
nodes = (
"261 -47 OFFCURVE",
"264 -27 OFFCURVE",
"265 10 CURVE",
"186 10 LINE",
"186 -14 OFFCURVE",
"184 -46 OFFCURVE",
"182 -62 CURVE",
"254 -84 LINE"
);
}
);
userData = {
com.schriftgestaltung.Glyphs.glyph.leftMetricsKey = "phoSamphao-thai";
com.schriftgestaltung.Glyphs.glyph.rightMetricsKey = "khoKhwai-thai";
};
width = 478;
},
{
anchors = (
{
name = bottom;
position = "{354, -214}";
},
{
name = top;
position = "{348, 506}";
}
);
layerId = "94F80E8F-7C96-497F-B870-569C37B7A2A5";
paths = (
{
closed = 1;
nodes = (
"179 -221 OFFCURVE",
"211 -176 OFFCURVE",
"213 -103 CURVE",
"177 -83 LINE",
"176 -137 OFFCURVE",
"159 -179 OFFCURVE",
"134 -179 CURVE SMOOTH",
"116 -179 OFFCURVE",
"101 -159 OFFCURVE",
"101 -132 CURVE SMOOTH",
"101 -102 OFFCURVE",
"117 -82 OFFCURVE",
"138 -82 CURVE SMOOTH",
"157 -82 OFFCURVE",
"177 -91 OFFCURVE",
"206 -115 CURVE SMOOTH",
"236 -140 OFFCURVE",
"258 -167 OFFCURVE",
"284 -214 CURVE",
"354 -214 LINE",
"354 333 LINE SMOOTH",
"354 455 OFFCURVE",
"302 516 OFFCURVE",
"198 516 CURVE SMOOTH",
"100 516 OFFCURVE",
"41 450 OFFCURVE",
"41 340 CURVE SMOOTH",
"41 328 LINE",
"124 295 LINE",
"124 292 LINE",
"94 275 OFFCURVE",
"84 253 OFFCURVE",
"84 205 CURVE SMOOTH",
"84 189 LINE SMOOTH",
"84 180 OFFCURVE",
"86 164 OFFCURVE",
"89 156 CURVE",
"104 156 OFFCURVE",
"117 137 OFFCURVE",
"122 111 CURVE",
"129 111 LINE",
"127 148 OFFCURVE",
"106 173 OFFCURVE",
"75 173 CURVE SMOOTH",
"37 173 OFFCURVE",
"13 138 OFFCURVE",
"13 90 CURVE SMOOTH",
"13 37 OFFCURVE",
"40 5 OFFCURVE",
"83 5 CURVE SMOOTH",
"130 5 OFFCURVE",
"160 43 OFFCURVE",
"160 102 CURVE SMOOTH",
"160 196 LINE SMOOTH",
"160 249 OFFCURVE",
"165 262 OFFCURVE",
"190 271 CURVE",
"194 313 LINE",
"83 366 LINE",
"114 325 LINE",
"114 339 LINE SMOOTH",
"114 409 OFFCURVE",
"144 449 OFFCURVE",
"196 449 CURVE SMOOTH",
"249 449 OFFCURVE",
"277 407 OFFCURVE",
"277 329 CURVE SMOOTH",
"277 4 LINE SMOOTH",
"277 -47 OFFCURVE",
"279 -107 OFFCURVE",
"282 -141 CURVE",
"281 -141 LINE",
"258 -107 OFFCURVE",
"234 -81 OFFCURVE",
"205 -65 CURVE",
"182 -46 OFFCURVE",
"158 -38 OFFCURVE",
"136 -38 CURVE SMOOTH",
"91 -38 OFFCURVE",
"60 -77 OFFCURVE",
"60 -133 CURVE SMOOTH",
"60 -184 OFFCURVE",
"91 -221 OFFCURVE",
"133 -221 CURVE SMOOTH"
);
},
{
closed = 1;
nodes = (
"65 45 OFFCURVE",
"56 61 OFFCURVE",
"56 90 CURVE SMOOTH",
"56 118 OFFCURVE",
"65 134 OFFCURVE",
"81 134 CURVE SMOOTH",
"98 134 OFFCURVE",
"107 117 OFFCURVE",
"107 90 CURVE SMOOTH",
"107 62 OFFCURVE",
"98 45 OFFCURVE",
"81 45 CURVE SMOOTH"
);
},
{
closed = 1;
nodes = (
"221 -64 OFFCURVE",
"224 -30 OFFCURVE",
"224 4 CURVE",
"179 4 LINE",
"179 -16 OFFCURVE",
"178 -38 OFFCURVE",
"177 -68 CURVE",
"217 -86 LINE"
);
}
);
width = 404;
}
);
leftKerningGroup = "phoSamphao-thai";
leftMetricsKey = "phoSamphao-thai";
rightKerningGroup = "koKai-thai";
rightMetricsKey = "koKai-thai";
unicode = 0E0E;
},
{
glyphname = "doChada-thai.short";
lastChange = "2022-10-16 03:44:57 +0000";
layers = (
{
anchors = (
{
name = bottom;
position = "{563, -72}";
},
{
name = top;
position = "{553, 514}";
}
);
layerId = "EB3A5D6C-8260-43A6-9EF2-63971FC08D48";
paths = (
{
closed = 1;
nodes = (
"263 -81 OFFCURVE",
"321 -42 OFFCURVE",
"319 6 CURVE",
"242 33 LINE",
"242 4 OFFCURVE",
"219 -21 OFFCURVE",
"192 -21 CURVE SMOOTH",
"174 -21 OFFCURVE",
"161 -12 OFFCURVE",
"161 2 CURVE SMOOTH",
"161 17 OFFCURVE",
"177 28 OFFCURVE",
"199 28 CURVE SMOOTH",
"228 28 OFFCURVE",
"276 11 OFFCURVE",
"312 -12 CURVE SMOOTH",
"369 -48 OFFCURVE",
"379 -56 OFFCURVE",
"396 -72 CURVE",
"563 -72 LINE",
"563 332 LINE SMOOTH",
"563 466 OFFCURVE",
"481 528 OFFCURVE",
"300 528 CURVE SMOOTH",
"143 528 OFFCURVE",
"42 460 OFFCURVE",
"42 354 CURVE SMOOTH",
"42 341 LINE",
"157 316 LINE",
"157 312 LINE",
"120 303 OFFCURVE",
"105 292 OFFCURVE",
"105 277 CURVE SMOOTH",
"105 274 LINE SMOOTH",
"105 270 OFFCURVE",
"109 264 OFFCURVE",
"115 256 CURVE",
"146 263 OFFCURVE",
"186 249 OFFCURVE",
"199 217 CURVE",
"216 217 LINE",
"213 255 OFFCURVE",
"175 278 OFFCURVE",
"120 278 CURVE SMOOTH",
"58 278 OFFCURVE",
"15 242 OFFCURVE",
"15 192 CURVE SMOOTH",
"15 137 OFFCURVE",
"64 103 OFFCURVE",
"140 103 CURVE SMOOTH",
"223 103 OFFCURVE",
"275 144 OFFCURVE",
"275 213 CURVE SMOOTH",
"275 250 LINE SMOOTH",
"275 267 OFFCURVE",
"282 277 OFFCURVE",
"310 278 CURVE",
"320 344 LINE",
"145 400 LINE",
"217 332 LINE",
"217 352 LINE SMOOTH",
"217 388 OFFCURVE",
"246 408 OFFCURVE",
"296 408 CURVE SMOOTH",
"351 408 OFFCURVE",
"377 382 OFFCURVE",
"377 328 CURVE SMOOTH",
"377 113 LINE SMOOTH",
"377 63 OFFCURVE",
"379 49 OFFCURVE",
"388 21 CURVE",
"384 21 LINE",
"362 43 OFFCURVE",
"334 56 OFFCURVE",
"304 59 CURVE",
"266 80 OFFCURVE",
"230 90 OFFCURVE",
"186 90 CURVE SMOOTH",
"120 90 OFFCURVE",
"72 55 OFFCURVE",
"72 4 CURVE SMOOTH",
"72 -46 OFFCURVE",
"121 -81 OFFCURVE",
"191 -81 CURVE SMOOTH"
);
},
{
closed = 1;
nodes = (
"108 164 OFFCURVE",
"94 174 OFFCURVE",
"94 192 CURVE SMOOTH",
"94 211 OFFCURVE",
"108 221 OFFCURVE",
"131 221 CURVE SMOOTH",
"154 221 OFFCURVE",
"169 211 OFFCURVE",
"169 192 CURVE SMOOTH",
"169 174 OFFCURVE",
"154 164 OFFCURVE",
"131 164 CURVE SMOOTH"
);
},
{
closed = 1;
nodes = (
"339 60 OFFCURVE",
"342 77 OFFCURVE",
"343 108 CURVE",
"246 108 LINE",
"246 89 OFFCURVE",
"244 66 OFFCURVE",
"241 44 CURVE",
"329 25 LINE"
);
}
);
userData = {
com.schriftgestaltung.Glyphs.glyph.rightMetricsKey = "khoKhwai-thai";
};
width = 626;
},
{
anchors = (
{
name = bottom;
position = "{453, -72}";
},
{
name = top;
position = "{443, 501}";
}
);
layerId = "90A34054-68E4-499D-AE50-276C7B026D8B";
paths = (
{
closed = 1;
nodes = (
"238 -77 OFFCURVE",
"280 -38 OFFCURVE",
"293 27 CURVE",
"272 34 LINE",
"261 -23 OFFCURVE",
"231 -58 OFFCURVE",
"183 -58 CURVE SMOOTH",
"147 -58 OFFCURVE",
"123 -39 OFFCURVE",
"123 -11 CURVE SMOOTH",
"123 22 OFFCURVE",
"151 41 OFFCURVE",
"196 41 CURVE SMOOTH",
"222 41 OFFCURVE",
"250 35 OFFCURVE",
"281 23 CURVE SMOOTH",
"336 1 OFFCURVE",
"391 -34 OFFCURVE",
"428 -72 CURVE",
"453 -72 LINE",
"453 347 LINE SMOOTH",
"453 451 OFFCURVE",
"388 508 OFFCURVE",
"271 508 CURVE SMOOTH",
"151 508 OFFCURVE",
"76 447 OFFCURVE",
"76 368 CURVE SMOOTH",
"76 358 LINE",
"202 323 LINE",
"202 321 LINE",
"157 305 OFFCURVE",
"139 285 OFFCURVE",
"139 248 CURVE SMOOTH",
"139 228 LINE SMOOTH",
"139 217 OFFCURVE",
"141 203 OFFCURVE",
"144 191 CURVE",
"149 185 OFFCURVE",
"152 176 OFFCURVE",
"153 170 CURVE",
"157 170 LINE",
"153 203 OFFCURVE",
"125 225 OFFCURVE",
"91 225 CURVE SMOOTH",
"49 225 OFFCURVE",
"19 196 OFFCURVE",
"19 153 CURVE SMOOTH",
"19 111 OFFCURVE",
"50 82 OFFCURVE",
"92 82 CURVE SMOOTH",
"136 82 OFFCURVE",
"164 112 OFFCURVE",
"164 157 CURVE SMOOTH",
"164 248 LINE SMOOTH",
"164 288 OFFCURVE",
"180 298 OFFCURVE",
"233 312 CURVE",
"236 332 LINE",
"90 376 LINE",
"101 361 LINE",
"101 368 LINE SMOOTH",
"101 434 OFFCURVE",
"164 485 OFFCURVE",
"271 485 CURVE SMOOTH",
"374 485 OFFCURVE",
"428 438 OFFCURVE",
"428 342 CURVE SMOOTH",
"428 97 LINE SMOOTH",
"428 57 OFFCURVE",
"429 5 OFFCURVE",
"430 -44 CURVE",
"427 -44 LINE",
"383 -7 OFFCURVE",
"332 24 OFFCURVE",
"286 41 CURVE",
"251 53 OFFCURVE",
"219 59 OFFCURVE",
"192 59 CURVE SMOOTH",
"136 59 OFFCURVE",
"99 30 OFFCURVE",
"99 -11 CURVE SMOOTH",
"99 -49 OFFCURVE",
"133 -77 OFFCURVE",
"183 -77 CURVE SMOOTH"
);
},
{
closed = 1;
nodes = (
"61 103 OFFCURVE",
"42 123 OFFCURVE",
"42 153 CURVE SMOOTH",
"42 184 OFFCURVE",
"61 204 OFFCURVE",
"92 204 CURVE SMOOTH",
"122 204 OFFCURVE",
"141 184 OFFCURVE",
"141 153 CURVE SMOOTH",
"141 123 OFFCURVE",
"122 103 OFFCURVE",
"92 103 CURVE SMOOTH"
);
},
{
closed = 1;
nodes = (
"297 56 OFFCURVE",
"299 77 OFFCURVE",
"299 94 CURVE",
"277 94 LINE",
"277 69 OFFCURVE",
"277 53 OFFCURVE",
"274 40 CURVE",
"294 33 LINE"
);
}
);
width = 539;
},
{
anchors = (
{
name = bottom;
position = "{500, -72}";
},
{
name = top;
position = "{490, 506}";
}
);
hints = (
{
horizontal = 1;
origin = "{0, 23}";
target = "{0, 63}";
type = Stem;
},
{
origin = "{0, 33}";
target = "{0, 52}";
type = Stem;
},
{
origin = "{0, 67}";
target = "{0, 19}";
type = Stem;
},
{
horizontal = 1;
origin = "{0, 83}";
target = "{0, 6}";
type = Stem;
}
);
layerId = "9148514D-BEB8-4275-B264-8F51401A425F";
paths = (
{
closed = 1;
nodes = (
"253 -78 OFFCURVE",
"300 -42 OFFCURVE",
"307 17 CURVE",
"253 31 LINE",
"250 -8 OFFCURVE",
"226 -37 OFFCURVE",
"190 -37 CURVE SMOOTH",
"165 -37 OFFCURVE",
"147 -24 OFFCURVE",
"147 -7 CURVE SMOOTH",
"147 17 OFFCURVE",
"167 29 OFFCURVE",
"200 29 CURVE SMOOTH",
"224 29 OFFCURVE",
"255 23 OFFCURVE",
"283 12 CURVE SMOOTH",
"325 -4 OFFCURVE",
"370 -33 OFFCURVE",
"417 -72 CURVE",
"500 -72 LINE",
"500 355 LINE SMOOTH",
"500 453 OFFCURVE",
"429 516 OFFCURVE",
"285 516 CURVE SMOOTH",
"150 516 OFFCURVE",
"62 448 OFFCURVE",
"62 370 CURVE SMOOTH",
"62 358 LINE",
"186 321 LINE",
"186 318 LINE",
"144 304 OFFCURVE",
"123 280 OFFCURVE",
"123 259 CURVE SMOOTH",
"123 256 LINE SMOOTH",
"123 241 OFFCURVE",
"125 229 OFFCURVE",
"129 213 CURVE",
"155 211 OFFCURVE",
"173 196 OFFCURVE",
"175 177 CURVE",
"185 177 LINE",
"185 216 OFFCURVE",
"154 243 OFFCURVE",
"109 243 CURVE SMOOTH",
"57 243 OFFCURVE",
"20 209 OFFCURVE",
"20 161 CURVE SMOOTH",
"20 110 OFFCURVE",
"57 78 OFFCURVE",
"113 78 CURVE SMOOTH",
"176 78 OFFCURVE",
"211 113 OFFCURVE",
"211 173 CURVE SMOOTH",
"211 255 LINE SMOOTH",
"211 272 OFFCURVE",
"227 286 OFFCURVE",
"265 296 CURVE",
"271 349 LINE",
"112 406 LINE",
"148 356 LINE",
"148 370 LINE SMOOTH",
"148 407 OFFCURVE",
"199 448 OFFCURVE",
"283 448 CURVE SMOOTH",
"367 448 OFFCURVE",
"410 406 OFFCURVE",
"410 354 CURVE SMOOTH",
"410 103 LINE SMOOTH",
"410 51 OFFCURVE",
"412 14 OFFCURVE",
"415 -15 CURVE",
"412 -15 LINE",
"377 14 OFFCURVE",
"336 37 OFFCURVE",
"296 49 CURVE",
"263 63 OFFCURVE",
"230 70 OFFCURVE",
"195 70 CURVE SMOOTH",
"132 70 OFFCURVE",
"89 39 OFFCURVE",
"89 -6 CURVE SMOOTH",
"89 -47 OFFCURVE",
"132 -78 OFFCURVE",
"189 -78 CURVE SMOOTH"
);
},
{
closed = 1;
nodes = (
"88 124 OFFCURVE",
"73 136 OFFCURVE",
"73 160 CURVE SMOOTH",
"73 182 OFFCURVE",
"88 197 OFFCURVE",
"113 197 CURVE SMOOTH",
"138 197 OFFCURVE",
"153 182 OFFCURVE",
"153 160 CURVE SMOOTH",
"153 137 OFFCURVE",
"138 124 OFFCURVE",
"113 124 CURVE SMOOTH"
);
},
{
closed = 1;
nodes = (
"317 48 OFFCURVE",
"319 64 OFFCURVE",
"319 87 CURVE",
"257 87 LINE",
"257 66 OFFCURVE",
"256 53 OFFCURVE",
"253 40 CURVE",
"311 29 LINE"
);
}
);
width = 577;
},
{
anchors = (
{
name = bottom;
position = "{296, -72}";
},
{
name = top;
position = "{290, 501}";
}
);
layerId = "54E3FB14-E6D2-4DF3-BA4A-5621168F9335";
paths = (
{
closed = 1;
nodes = (
"160 -76 OFFCURVE",
"184 -39 OFFCURVE",
"189 29 CURVE",
"171 36 LINE",
"167 -21 OFFCURVE",
"148 -59 OFFCURVE",
"122 -59 CURVE SMOOTH",
"100 -59 OFFCURVE",
"84 -37 OFFCURVE",
"84 -9 CURVE SMOOTH",
"84 23 OFFCURVE",
"100 43 OFFCURVE",
"126 43 CURVE SMOOTH",
"144 43 OFFCURVE",
"160 37 OFFCURVE",
"181 24 CURVE SMOOTH",
"214 2 OFFCURVE",
"248 -36 OFFCURVE",
"270 -72 CURVE",
"296 -72 LINE",
"296 360 LINE SMOOTH",
"296 459 OFFCURVE",
"254 508 OFFCURVE",
"175 508 CURVE SMOOTH",
"93 508 OFFCURVE",
"45 445 OFFCURVE",
"45 369 CURVE SMOOTH",
"45 359 LINE",
"126 324 LINE",
"126 322 LINE",
"97 306 OFFCURVE",
"87 274 OFFCURVE",
"87 249 CURVE SMOOTH",
"87 229 LINE SMOOTH",
"87 214 OFFCURVE",
"87 201 OFFCURVE",
"90 192 CURVE",
"94 186 OFFCURVE",
"97 180 OFFCURVE",
"98 171 CURVE",
"100 171 LINE",
"99 203 OFFCURVE",
"85 226 OFFCURVE",
"60 226 CURVE SMOOTH",
"30 226 OFFCURVE",
"12 200 OFFCURVE",
"12 154 CURVE SMOOTH",
"12 108 OFFCURVE",
"30 83 OFFCURVE",
"61 83 CURVE SMOOTH",
"93 83 OFFCURVE",
"112 112 OFFCURVE",
"112 158 CURVE SMOOTH",
"112 248 LINE SMOOTH",
"112 276 OFFCURVE",
"119 299 OFFCURVE",
"152 313 CURVE",
"154 333 LINE",
"59 377 LINE",
"70 362 LINE",
"70 369 LINE SMOOTH",
"70 432 OFFCURVE",
"109 486 OFFCURVE",
"175 486 CURVE SMOOTH",
"239 486 OFFCURVE",
"271 443 OFFCURVE",
"271 356 CURVE SMOOTH",
"271 99 LINE SMOOTH",
"271 59 OFFCURVE",
"272 -3 OFFCURVE",
"273 -41 CURVE",
"272 -41 LINE",
"246 -7 OFFCURVE",
"218 21 OFFCURVE",
"184 43 CURVE",
"161 55 OFFCURVE",
"143 61 OFFCURVE",
"124 61 CURVE SMOOTH",
"88 61 OFFCURVE",
"62 33 OFFCURVE",
"62 -9 CURVE SMOOTH",
"62 -48 OFFCURVE",
"87 -76 OFFCURVE",
"121 -76 CURVE SMOOTH"
);
},
{
closed = 1;
nodes = (
"44 104 OFFCURVE",
"34 122 OFFCURVE",
"34 154 CURVE SMOOTH",
"34 187 OFFCURVE",
"44 205 OFFCURVE",
"61 205 CURVE SMOOTH",
"78 205 OFFCURVE",
"88 187 OFFCURVE",
"88 154 CURVE SMOOTH",
"88 122 OFFCURVE",
"78 104 OFFCURVE",
"61 104 CURVE SMOOTH"
);
},
{
closed = 1;
nodes = (
"193 49 OFFCURVE",
"194 65 OFFCURVE",
"194 97 CURVE",
"174 97 LINE",
"174 66 OFFCURVE",
"173 55 OFFCURVE",
"171 42 CURVE",
"190 35 LINE"
);
}
);
width = 350;
},
{
anchors = (
{
name = bottom;
position = "{438, -72}";
},
{
name = top;
position = "{433, 514}";
}
);
layerId = "E703E12A-5DA7-48FA-B69F-BB282FBD8E56";
paths = (
{
closed = 1;
nodes = (
"202 -81 OFFCURVE",
"247 -42 OFFCURVE",
"245 6 CURVE",
"182 34 LINE",
"184 6 OFFCURVE",
"167 -20 OFFCURVE",
"146 -20 CURVE SMOOTH",
"134 -20 OFFCURVE",
"125 -11 OFFCURVE",
"125 2 CURVE SMOOTH",
"125 17 OFFCURVE",
"136 28 OFFCURVE",
"151 28 CURVE SMOOTH",
"175 28 OFFCURVE",
"215 10 OFFCURVE",
"243 -12 CURVE SMOOTH",
"269 -33 OFFCURVE",
"291 -58 OFFCURVE",
"300 -72 CURVE",
"438 -72 LINE",
"438 331 LINE SMOOTH",
"438 468 OFFCURVE",
"375 528 OFFCURVE",
"231 528 CURVE SMOOTH",
"108 528 OFFCURVE",
"29 459 OFFCURVE",
"29 354 CURVE SMOOTH",
"29 341 LINE",
"117 316 LINE",
"117 312 LINE",
"91 303 OFFCURVE",
"77 289 OFFCURVE",
"77 273 CURVE SMOOTH",
"77 270 LINE SMOOTH",
"77 264 OFFCURVE",
"80 258 OFFCURVE",
"85 256 CURVE",
"112 262 OFFCURVE",
"145 247 OFFCURVE",
"156 217 CURVE",
"170 217 LINE",
"167 254 OFFCURVE",
"135 279 OFFCURVE",
"94 279 CURVE SMOOTH",
"46 279 OFFCURVE",
"11 243 OFFCURVE",
"11 192 CURVE SMOOTH",
"11 138 OFFCURVE",
"51 102 OFFCURVE",
"111 102 CURVE SMOOTH",
"177 102 OFFCURVE",
"219 147 OFFCURVE",
"219 214 CURVE SMOOTH",
"219 251 LINE SMOOTH",
"219 267 OFFCURVE",
"227 276 OFFCURVE",
"244 278 CURVE",
"251 344 LINE",
"116 401 LINE",
"177 332 LINE",
"177 354 LINE SMOOTH",
"177 388 OFFCURVE",
"195 408 OFFCURVE",
"228 408 CURVE SMOOTH",
"265 408 OFFCURVE",
"282 383 OFFCURVE",
"282 328 CURVE SMOOTH",
"282 113 LINE SMOOTH",
"282 82 OFFCURVE",
"284 57 OFFCURVE",
"292 23 CURVE",
"290 23 LINE",
"270 46 OFFCURVE",
"251 57 OFFCURVE",
"233 60 CURVE",
"204 81 OFFCURVE",
"175 90 OFFCURVE",
"140 90 CURVE SMOOTH",
"90 90 OFFCURVE",
"53 55 OFFCURVE",
"53 5 CURVE SMOOTH",
"53 -46 OFFCURVE",
"91 -81 OFFCURVE",
"146 -81 CURVE SMOOTH"
);
},
{
closed = 1;
nodes = (
"85 164 OFFCURVE",
"74 175 OFFCURVE",
"74 192 CURVE SMOOTH",
"74 210 OFFCURVE",
"86 221 OFFCURVE",
"103 221 CURVE SMOOTH",
"120 221 OFFCURVE",
"131 209 OFFCURVE",
"131 192 CURVE SMOOTH",
"131 175 OFFCURVE",
"120 164 OFFCURVE",
"103 164 CURVE SMOOTH"
);
},
{
closed = 1;
nodes = (
"261 58 OFFCURVE",
"264 75 OFFCURVE",
"265 108 CURVE",
"186 108 LINE",
"186 89 OFFCURVE",
"184 63 OFFCURVE",
"182 45 CURVE",
"254 26 LINE"
);
}
);
userData = {
com.schriftgestaltung.Glyphs.glyph.rightMetricsKey = "khoKhwai-thai";
};
width = 478;
},
{
anchors = (
{
name = bottom;
position = "{354, -72}";
},
{
name = top;
position = "{347, 506}";
}
);
layerId = "94F80E8F-7C96-497F-B870-569C37B7A2A5";
paths = (
{
closed = 1;
nodes = (
"180 -79 OFFCURVE",
"212 -41 OFFCURVE",
"214 20 CURVE",
"177 33 LINE",
"176 -13 OFFCURVE",
"157 -44 OFFCURVE",
"133 -44 CURVE SMOOTH",
"115 -44 OFFCURVE",
"101 -28 OFFCURVE",
"101 -6 CURVE SMOOTH",
"101 18 OFFCURVE",
"116 35 OFFCURVE",
"138 35 CURVE SMOOTH",
"158 35 OFFCURVE",
"185 24 OFFCURVE",
"207 8 CURVE SMOOTH",
"233 -11 OFFCURVE",
"263 -41 OFFCURVE",
"284 -72 CURVE",
"354 -72 LINE",
"354 347 LINE SMOOTH",
"354 464 OFFCURVE",
"299 516 OFFCURVE",
"203 516 CURVE SMOOTH",
"109 516 OFFCURVE",
"41 455 OFFCURVE",
"41 370 CURVE SMOOTH",
"41 358 LINE",
"124 325 LINE",
"124 322 LINE",
"93 306 OFFCURVE",
"85 282 OFFCURVE",
"85 268 CURVE SMOOTH",
"85 264 LINE SMOOTH",
"85 256 OFFCURVE",
"87 242 OFFCURVE",
"89 236 CURVE",
"103 237 OFFCURVE",
"116 220 OFFCURVE",
"122 192 CURVE",
"129 192 LINE",
"127 230 OFFCURVE",
"105 254 OFFCURVE",
"75 254 CURVE SMOOTH",
"37 254 OFFCURVE",
"13 219 OFFCURVE",
"13 170 CURVE SMOOTH",
"13 117 OFFCURVE",
"40 86 OFFCURVE",
"83 86 CURVE SMOOTH",
"130 86 OFFCURVE",
"160 124 OFFCURVE",
"160 182 CURVE SMOOTH",
"160 255 LINE SMOOTH",
"160 279 OFFCURVE",
"165 292 OFFCURVE",
"190 301 CURVE",
"194 343 LINE",
"83 396 LINE",
"114 355 LINE",
"114 369 LINE SMOOTH",
"114 420 OFFCURVE",
"144 449 OFFCURVE",
"196 449 CURVE SMOOTH",
"249 449 OFFCURVE",
"277 421 OFFCURVE",
"277 343 CURVE SMOOTH",
"277 102 LINE SMOOTH",
"277 62 OFFCURVE",
"279 20 OFFCURVE",
"282 -17 CURVE",
"281 -17 LINE",
"258 12 OFFCURVE",
"234 34 OFFCURVE",
"205 48 CURVE",
"178 62 OFFCURVE",
"155 70 OFFCURVE",
"132 70 CURVE SMOOTH",
"90 70 OFFCURVE",
"60 39 OFFCURVE",
"60 -5 CURVE SMOOTH",
"60 -48 OFFCURVE",
"90 -79 OFFCURVE",
"133 -79 CURVE SMOOTH"
);
},
{
closed = 1;
nodes = (
"65 126 OFFCURVE",
"56 142 OFFCURVE",
"56 170 CURVE SMOOTH",
"56 199 OFFCURVE",
"65 215 OFFCURVE",
"81 215 CURVE SMOOTH",
"98 215 OFFCURVE",
"107 198 OFFCURVE",
"107 170 CURVE SMOOTH",
"107 143 OFFCURVE",
"98 126 OFFCURVE",
"81 126 CURVE SMOOTH"
);
},
{
closed = 1;
nodes = (
"221 54 OFFCURVE",
"223 71 OFFCURVE",
"224 99 CURVE",
"181 99 LINE",
"181 70 OFFCURVE",
"180 53 OFFCURVE",
"177 41 CURVE",
"217 29 LINE"
);
}
);
width = 404;
}
);
leftKerningGroup = "phoSamphao-thai";
leftMetricsKey = "phoSamphao-thai";
rightKerningGroup = "koKai-thai";
rightMetricsKey = "koKai-thai";
},
{
glyphname = "toPatak-thai";
lastChange = "2022-10-16 03:44:57 +0000";
layers = (
{
anchors = (
{
name = bottom;
position = "{563, -219}";
},
{
name = top;
position = "{553, 514}";
}
);
layerId = "EB3A5D6C-8260-43A6-9EF2-63971FC08D48";
paths = (
{
closed = 1;
nodes = (
"199 -229 OFFCURVE",
"240 -184 OFFCURVE",
"253 -117 CURVE",
"177 -81 LINE",
"166 -130 OFFCURVE",
"151 -150 OFFCURVE",
"127 -150 CURVE SMOOTH",
"110 -150 OFFCURVE",
"98 -139 OFFCURVE",
"98 -123 CURVE SMOOTH",
"98 -103 OFFCURVE",
"113 -92 OFFCURVE",
"138 -92 CURVE SMOOTH",
"192 -92 OFFCURVE",
"248 -136 OFFCURVE",
"276 -219 CURVE",
"320 -219 LINE",
"341 -169 LINE",
"345 -169 LINE",
"393 -219 LINE",
"563 -219 LINE",
"563 299 LINE SMOOTH",
"563 456 OFFCURVE",
"481 528 OFFCURVE",
"300 528 CURVE SMOOTH",
"143 528 OFFCURVE",
"42 449 OFFCURVE",
"42 325 CURVE SMOOTH",
"42 310 LINE",
"157 280 LINE",
"157 276 LINE",
"124 270 OFFCURVE",
"105 254 OFFCURVE",
"105 233 CURVE SMOOTH",
"105 231 LINE SMOOTH",
"105 222 OFFCURVE",
"109 207 OFFCURVE",
"115 192 CURVE",
"148 201 OFFCURVE",
"186 182 OFFCURVE",
"199 147 CURVE",
"216 147 LINE",
"213 190 OFFCURVE",
"176 218 OFFCURVE",
"120 218 CURVE SMOOTH",
"58 218 OFFCURVE",
"15 176 OFFCURVE",
"15 118 CURVE SMOOTH",
"15 54 OFFCURVE",
"64 13 OFFCURVE",
"140 13 CURVE SMOOTH",
"223 13 OFFCURVE",
"275 62 OFFCURVE",
"275 143 CURVE SMOOTH",
"275 205 LINE SMOOTH",
"275 226 OFFCURVE",
"285 235 OFFCURVE",
"310 237 CURVE",
"320 313 LINE",
"145 379 LINE",
"217 299 LINE",
"217 323 LINE SMOOTH",
"217 364 OFFCURVE",
"246 388 OFFCURVE",
"296 388 CURVE SMOOTH",
"351 388 OFFCURVE",
"377 357 OFFCURVE",
"377 294 CURVE SMOOTH",
"377 22 LINE SMOOTH",
"377 -51 OFFCURVE",
"379 -73 OFFCURVE",
"387 -106 CURVE",
"384 -106 LINE",
"347 -68 LINE",
"299 -68 LINE",
"285 -107 LINE",
"281 -107 LINE",
"247 -46 OFFCURVE",
"201 -19 OFFCURVE",
"136 -19 CURVE SMOOTH",
"63 -19 OFFCURVE",
"18 -59 OFFCURVE",
"18 -122 CURVE SMOOTH",
"18 -185 OFFCURVE",
"65 -229 OFFCURVE",
"132 -229 CURVE SMOOTH"
);
},
{
closed = 1;
nodes = (
"108 84 OFFCURVE",
"94 96 OFFCURVE",
"94 118 CURVE SMOOTH",
"94 140 OFFCURVE",
"109 152 OFFCURVE",
"131 152 CURVE SMOOTH",
"154 152 OFFCURVE",
"169 140 OFFCURVE",
"169 118 CURVE SMOOTH",
"169 96 OFFCURVE",
"154 84 OFFCURVE",
"131 84 CURVE SMOOTH"
);
},
{
closed = 1;
nodes = (
"271 -65 OFFCURVE",
"279 -27 OFFCURVE",
"281 0 CURVE",
"187 0 LINE",
"186 -12 OFFCURVE",
"181 -37 OFFCURVE",
"176 -57 CURVE",
"262 -95 LINE"
);
}
);
userData = {
com.schriftgestaltung.Glyphs.glyph.leftMetricsKey = "phoSamphao-thai";
com.schriftgestaltung.Glyphs.glyph.rightMetricsKey = "khoKhwai-thai";
};
width = 626;
},
{
anchors = (
{
name = bottom;
position = "{453, -211}";
},
{
name = top;
position = "{443, 501}";
}
);
layerId = "90A34054-68E4-499D-AE50-276C7B026D8B";
paths = (
{
closed = 1;
nodes = (
"214 -216 OFFCURVE",
"251 -180 OFFCURVE",
"266 -114 CURVE",
"248 -101 LINE",
"235 -160 OFFCURVE",
"207 -195 OFFCURVE",
"164 -195 CURVE SMOOTH",
"128 -195 OFFCURVE",
"103 -172 OFFCURVE",
"103 -138 CURVE SMOOTH",
"103 -103 OFFCURVE",
"130 -78 OFFCURVE",
"170 -78 CURVE SMOOTH",
"230 -78 OFFCURVE",
"281 -128 OFFCURVE",
"303 -211 CURVE",
"328 -211 LINE",
"362 -113 LINE",
"365 -113 LINE",
"418 -211 LINE",
"453 -211 LINE",
"453 347 LINE SMOOTH",
"453 451 OFFCURVE",
"388 508 OFFCURVE",
"271 508 CURVE SMOOTH",
"151 508 OFFCURVE",
"76 447 OFFCURVE",
"76 349 CURVE SMOOTH",
"76 339 LINE",
"202 304 LINE",
"202 302 LINE",
"160 287 OFFCURVE",
"139 261 OFFCURVE",
"139 188 CURVE SMOOTH",
"139 146 LINE SMOOTH",
"139 134 OFFCURVE",
"141 120 OFFCURVE",
"144 109 CURVE",
"150 103 OFFCURVE",
"152 93 OFFCURVE",
"153 88 CURVE",
"157 88 LINE",
"154 120 OFFCURVE",
"126 143 OFFCURVE",
"91 143 CURVE SMOOTH",
"49 143 OFFCURVE",
"19 114 OFFCURVE",
"19 72 CURVE SMOOTH",
"19 30 OFFCURVE",
"49 0 OFFCURVE",
"92 0 CURVE SMOOTH",
"136 0 OFFCURVE",
"164 31 OFFCURVE",
"164 76 CURVE SMOOTH",
"164 188 LINE SMOOTH",
"164 261 OFFCURVE",
"181 279 OFFCURVE",
"233 293 CURVE",
"236 313 LINE",
"90 357 LINE",
"101 342 LINE",
"101 349 LINE SMOOTH",
"101 434 OFFCURVE",
"164 485 OFFCURVE",
"271 485 CURVE SMOOTH",
"374 485 OFFCURVE",
"428 438 OFFCURVE",
"428 342 CURVE SMOOTH",
"428 -54 LINE SMOOTH",
"428 -100 OFFCURVE",
"429 -128 OFFCURVE",
"431 -189 CURVE",
"427 -189 LINE",
"373 -88 LINE",
"350 -88 LINE",
"318 -185 LINE",
"314 -185 LINE",
"293 -108 OFFCURVE",
"235 -57 OFFCURVE",
"170 -57 CURVE SMOOTH",
"116 -57 OFFCURVE",
"80 -90 OFFCURVE",
"80 -138 CURVE SMOOTH",
"80 -184 OFFCURVE",
"115 -216 OFFCURVE",
"164 -216 CURVE SMOOTH"
);
},
{
closed = 1;
nodes = (
"61 21 OFFCURVE",
"42 41 OFFCURVE",
"42 72 CURVE SMOOTH",
"42 102 OFFCURVE",
"61 122 OFFCURVE",
"92 122 CURVE SMOOTH",
"122 122 OFFCURVE",
"141 102 OFFCURVE",
"141 72 CURVE SMOOTH",
"141 41 OFFCURVE",
"122 21 OFFCURVE",
"92 21 CURVE SMOOTH"
);
},
{
closed = 1;
nodes = (
"279 -71 OFFCURVE",
"284 -44 OFFCURVE",
"283 0 CURVE",
"259 0 LINE",
"260 -42 OFFCURVE",
"258 -67 OFFCURVE",
"250 -94 CURVE",
"270 -108 LINE"
);
}
);
width = 539;
},
{
anchors = (
{
name = bottom;
position = "{500, -214}";
},
{
name = top;
position = "{490, 506}";
}
);
hints = (
{
horizontal = 1;
origin = "{0, 23}";
target = "{0, 63}";
type = Stem;
},
{
origin = "{0, 34}";
target = "{0, 53}";
type = Stem;
},
{
origin = "{0, 68}";
target = "{0, 20}";
type = Stem;
},
{
horizontal = 1;
origin = "{0, 85}";
target = "{0, 6}";
type = Stem;
}
);
layerId = "9148514D-BEB8-4275-B264-8F51401A425F";
paths = (
{
closed = 1;
nodes = (
"210 -221 OFFCURVE",
"249 -182 OFFCURVE",
"263 -115 CURVE",
"219 -93 LINE",
"206 -147 OFFCURVE",
"183 -170 OFFCURVE",
"151 -170 CURVE SMOOTH",
"128 -170 OFFCURVE",
"111 -153 OFFCURVE",
"111 -132 CURVE SMOOTH",
"111 -108 OFFCURVE",
"130 -91 OFFCURVE",
"159 -91 CURVE SMOOTH",
"216 -91 OFFCURVE",
"269 -138 OFFCURVE",
"293 -214 CURVE",
"330 -214 LINE",
"355 -140 LINE",
"359 -140 LINE",
"414 -214 LINE",
"500 -214 LINE",
"500 324 LINE SMOOTH",
"500 453 OFFCURVE",
"429 516 OFFCURVE",
"285 516 CURVE SMOOTH",
"150 516 OFFCURVE",
"62 448 OFFCURVE",
"62 339 CURVE SMOOTH",
"62 327 LINE",
"186 291 LINE",
"186 288 LINE",
"138 274 OFFCURVE",
"123 251 OFFCURVE",
"123 198 CURVE SMOOTH",
"123 186 LINE SMOOTH",
"123 175 OFFCURVE",
"125 161 OFFCURVE",
"129 145 CURVE",
"155 142 OFFCURVE",
"173 126 OFFCURVE",
"175 106 CURVE",
"185 106 LINE",
"185 148 OFFCURVE",
"154 176 OFFCURVE",
"109 176 CURVE SMOOTH",
"57 176 OFFCURVE",
"20 140 OFFCURVE",
"20 89 CURVE SMOOTH",
"20 35 OFFCURVE",
"57 1 OFFCURVE",
"113 1 CURVE SMOOTH",
"176 1 OFFCURVE",
"211 38 OFFCURVE",
"211 102 CURVE SMOOTH",
"211 195 LINE SMOOTH",
"211 239 OFFCURVE",
"224 257 OFFCURVE",
"265 267 CURVE",
"271 318 LINE",
"112 374 LINE",
"148 325 LINE",
"148 339 LINE SMOOTH",
"148 407 OFFCURVE",
"199 448 OFFCURVE",
"283 448 CURVE SMOOTH",
"367 448 OFFCURVE",
"410 406 OFFCURVE",
"410 323 CURVE SMOOTH",
"410 2 LINE SMOOTH",
"410 -83 OFFCURVE",
"412 -108 OFFCURVE",
"420 -147 CURVE",
"416 -147 LINE",
"366 -71 LINE",
"331 -71 LINE",
"307 -135 LINE",
"303 -135 LINE",
"274 -78 OFFCURVE",
"219 -41 OFFCURVE",
"159 -41 CURVE SMOOTH",
"98 -41 OFFCURVE",
"57 -77 OFFCURVE",
"57 -131 CURVE SMOOTH",
"57 -184 OFFCURVE",
"97 -221 OFFCURVE",
"153 -221 CURVE SMOOTH"
);
},
{
closed = 1;
nodes = (
"87 49 OFFCURVE",
"73 64 OFFCURVE",
"73 88 CURVE SMOOTH",
"73 112 OFFCURVE",
"88 127 OFFCURVE",
"113 127 CURVE SMOOTH",
"138 127 OFFCURVE",
"153 112 OFFCURVE",
"153 88 CURVE SMOOTH",
"153 64 OFFCURVE",
"138 49 OFFCURVE",
"113 49 CURVE SMOOTH"
);
},
{
closed = 1;
nodes = (
"279 -68 OFFCURVE",
"284 -34 OFFCURVE",
"285 0 CURVE",
"229 0 LINE",
"229 -32 OFFCURVE",
"226 -55 OFFCURVE",
"220 -79 CURVE",
"269 -102 LINE"
);
}
);
width = 577;
},
{
anchors = (
{
name = bottom;
position = "{296, -211}";
},
{
name = top;
position = "{290, 501}";
}
);
layerId = "54E3FB14-E6D2-4DF3-BA4A-5621168F9335";
paths = (
{
closed = 1;
nodes = (
"138 -216 OFFCURVE",
"162 -176 OFFCURVE",
"171 -114 CURVE",
"155 -101 LINE",
"146 -167 OFFCURVE",
"128 -195 OFFCURVE",
"103 -195 CURVE SMOOTH",
"83 -195 OFFCURVE",
"69 -171 OFFCURVE",
"69 -138 CURVE SMOOTH",
"69 -103 OFFCURVE",
"85 -78 OFFCURVE",
"108 -78 CURVE SMOOTH",
"146 -78 OFFCURVE",
"178 -133 OFFCURVE",
"190 -211 CURVE",
"211 -211 LINE",
"231 -114 LINE",
"233 -114 LINE",
"271 -211 LINE",
"296 -211 LINE",
"296 355 LINE SMOOTH",
"296 452 OFFCURVE",
"251 508 OFFCURVE",
"173 508 CURVE SMOOTH",
"91 508 OFFCURVE",
"45 449 OFFCURVE",
"45 349 CURVE SMOOTH",
"45 339 LINE",
"126 304 LINE",
"126 302 LINE",
"97 286 OFFCURVE",
"87 254 OFFCURVE",
"87 188 CURVE SMOOTH",
"87 146 LINE SMOOTH",
"87 131 OFFCURVE",
"87 118 OFFCURVE",
"90 109 CURVE",
"95 102 OFFCURVE",
"97 96 OFFCURVE",
"98 88 CURVE",
"100 88 LINE",
"99 120 OFFCURVE",
"85 143 OFFCURVE",
"60 143 CURVE SMOOTH",
"30 143 OFFCURVE",
"12 118 OFFCURVE",
"12 72 CURVE SMOOTH",
"12 26 OFFCURVE",
"30 0 OFFCURVE",
"61 0 CURVE SMOOTH",
"93 0 OFFCURVE",
"112 29 OFFCURVE",
"112 76 CURVE SMOOTH",
"112 188 LINE SMOOTH",
"112 256 OFFCURVE",
"119 279 OFFCURVE",
"152 293 CURVE",
"154 313 LINE",
"59 357 LINE",
"70 342 LINE",
"70 349 LINE SMOOTH",
"70 436 OFFCURVE",
"107 486 OFFCURVE",
"173 486 CURVE SMOOTH",
"237 486 OFFCURVE",
"271 438 OFFCURVE",
"271 351 CURVE SMOOTH",
"271 -55 LINE SMOOTH",
"271 -110 OFFCURVE",
"272 -144 OFFCURVE",
"274 -172 CURVE",
"273 -172 LINE",
"239 -88 LINE",
"221 -88 LINE",
"202 -178 LINE",
"200 -178 LINE",
"186 -108 OFFCURVE",
"148 -57 OFFCURVE",
"107 -57 CURVE SMOOTH",
"72 -57 OFFCURVE",
"48 -90 OFFCURVE",
"48 -138 CURVE SMOOTH",
"48 -183 OFFCURVE",
"72 -216 OFFCURVE",
"104 -216 CURVE SMOOTH"
);
},
{
closed = 1;
nodes = (
"44 21 OFFCURVE",
"34 39 OFFCURVE",
"34 72 CURVE SMOOTH",
"34 104 OFFCURVE",
"44 122 OFFCURVE",
"61 122 CURVE SMOOTH",
"78 122 OFFCURVE",
"88 104 OFFCURVE",
"88 72 CURVE SMOOTH",
"88 39 OFFCURVE",
"78 21 OFFCURVE",
"61 21 CURVE SMOOTH"
);
},
{
closed = 1;
nodes = (
"179 -69 OFFCURVE",
"182 -37 OFFCURVE",
"182 0 CURVE",
"162 0 LINE",
"163 -36 OFFCURVE",
"160 -69 OFFCURVE",
"156 -94 CURVE",
"173 -110 LINE"
);
}
);
width = 350;
},
{
anchors = (
{
name = bottom;
position = "{440, -219}";
},
{
name = top;
position = "{435, 514}";
}
);
layerId = "E703E12A-5DA7-48FA-B69F-BB282FBD8E56";
paths = (
{
closed = 1;
nodes = (
"149 -229 OFFCURVE",
"184 -189 OFFCURVE",
"194 -117 CURVE",
"131 -81 LINE",
"122 -133 OFFCURVE",
"112 -149 OFFCURVE",
"96 -149 CURVE SMOOTH",
"83 -149 OFFCURVE",
"74 -138 OFFCURVE",
"74 -123 CURVE SMOOTH",
"74 -104 OFFCURVE",
"86 -93 OFFCURVE",
"105 -93 CURVE SMOOTH",
"142 -93 OFFCURVE",
"189 -148 OFFCURVE",
"211 -219 CURVE",
"245 -219 LINE",
"260 -169 LINE",
"263 -169 LINE",
"299 -219 LINE",
"440 -219 LINE",
"440 298 LINE SMOOTH",
"440 458 OFFCURVE",
"377 528 OFFCURVE",
"233 528 CURVE SMOOTH",
"110 528 OFFCURVE",
"32 448 OFFCURVE",
"32 325 CURVE SMOOTH",
"32 310 LINE",
"119 280 LINE",
"119 276 LINE",
"90 263 OFFCURVE",
"79 245 OFFCURVE",
"79 228 CURVE SMOOTH",
"79 223 LINE SMOOTH",
"79 215 OFFCURVE",
"81 204 OFFCURVE",
"87 191 CURVE",
"115 200 OFFCURVE",
"147 180 OFFCURVE",
"159 146 CURVE",
"172 146 LINE",
"170 188 OFFCURVE",
"137 218 OFFCURVE",
"96 218 CURVE SMOOTH",
"48 218 OFFCURVE",
"13 176 OFFCURVE",
"13 118 CURVE SMOOTH",
"13 54 OFFCURVE",
"53 12 OFFCURVE",
"113 12 CURVE SMOOTH",
"179 12 OFFCURVE",
"222 64 OFFCURVE",
"222 143 CURVE SMOOTH",
"222 205 LINE SMOOTH",
"222 223 OFFCURVE",
"229 234 OFFCURVE",
"246 236 CURVE",
"254 313 LINE",
"118 380 LINE",
"179 299 LINE",
"179 325 LINE SMOOTH",
"179 365 OFFCURVE",
"197 388 OFFCURVE",
"230 388 CURVE SMOOTH",
"267 388 OFFCURVE",
"285 360 OFFCURVE",
"285 295 CURVE SMOOTH",
"285 25 LINE SMOOTH",
"285 -50 OFFCURVE",
"287 -72 OFFCURVE",
"293 -108 CURVE",
"291 -108 LINE",
"264 -67 LINE",
"225 -67 LINE",
"216 -107 LINE",
"214 -107 LINE",
"185 -45 OFFCURVE",
"151 -19 OFFCURVE",
"103 -19 CURVE SMOOTH",
"46 -19 OFFCURVE",
"11 -58 OFFCURVE",
"11 -122 CURVE SMOOTH",
"11 -184 OFFCURVE",
"48 -229 OFFCURVE",
"100 -229 CURVE SMOOTH"
);
},
{
closed = 1;
nodes = (
"88 84 OFFCURVE",
"76 97 OFFCURVE",
"76 118 CURVE SMOOTH",
"76 137 OFFCURVE",
"87 151 OFFCURVE",
"105 151 CURVE SMOOTH",
"122 151 OFFCURVE",
"133 138 OFFCURVE",
"133 118 CURVE SMOOTH",
"133 97 OFFCURVE",
"122 84 OFFCURVE",
"105 84 CURVE SMOOTH"
);
},
{
closed = 1;
nodes = (
"210 -56 OFFCURVE",
"214 -24 OFFCURVE",
"216 0 CURVE",
"139 0 LINE",
"137 -17 OFFCURVE",
"134 -37 OFFCURVE",
"130 -57 CURVE",
"202 -95 LINE"
);
}
);
userData = {
com.schriftgestaltung.Glyphs.glyph.leftMetricsKey = "phoSamphao-thai";
com.schriftgestaltung.Glyphs.glyph.rightMetricsKey = "khoKhwai-thai";
};
width = 480;
},
{
anchors = (
{
name = bottom;
position = "{354, -214}";
},
{
name = top;
position = "{347, 506}";
}
);
layerId = "94F80E8F-7C96-497F-B870-569C37B7A2A5";
paths = (
{
closed = 1;
nodes = (
"144 -221 OFFCURVE",
"171 -181 OFFCURVE",
"181 -115 CURVE",
"146 -93 LINE",
"138 -150 OFFCURVE",
"125 -177 OFFCURVE",
"101 -177 CURVE SMOOTH",
"84 -177 OFFCURVE",
"72 -158 OFFCURVE",
"72 -132 CURVE SMOOTH",
"72 -103 OFFCURVE",
"87 -84 OFFCURVE",
"107 -84 CURVE SMOOTH",
"145 -84 OFFCURVE",
"181 -138 OFFCURVE",
"195 -214 CURVE",
"225 -214 LINE",
"243 -144 LINE",
"246 -144 LINE",
"283 -214 LINE",
"354 -214 LINE",
"354 333 LINE SMOOTH",
"354 455 OFFCURVE",
"302 516 OFFCURVE",
"198 516 CURVE SMOOTH",
"100 516 OFFCURVE",
"41 450 OFFCURVE",
"41 340 CURVE SMOOTH",
"41 328 LINE",
"124 295 LINE",
"124 292 LINE",
"94 276 OFFCURVE",
"84 252 OFFCURVE",
"84 205 CURVE SMOOTH",
"84 189 LINE SMOOTH",
"84 181 OFFCURVE",
"86 162 OFFCURVE",
"89 156 CURVE",
"104 156 OFFCURVE",
"117 137 OFFCURVE",
"122 111 CURVE",
"129 111 LINE",
"127 148 OFFCURVE",
"106 173 OFFCURVE",
"75 173 CURVE SMOOTH",
"37 173 OFFCURVE",
"13 138 OFFCURVE",
"13 90 CURVE SMOOTH",
"13 37 OFFCURVE",
"40 5 OFFCURVE",
"83 5 CURVE SMOOTH",
"130 5 OFFCURVE",
"160 43 OFFCURVE",
"160 102 CURVE SMOOTH",
"160 196 LINE SMOOTH",
"160 249 OFFCURVE",
"165 262 OFFCURVE",
"190 271 CURVE",
"194 313 LINE",
"83 366 LINE",
"114 325 LINE",
"114 339 LINE SMOOTH",
"114 409 OFFCURVE",
"144 449 OFFCURVE",
"196 449 CURVE SMOOTH",
"249 449 OFFCURVE",
"277 407 OFFCURVE",
"277 329 CURVE SMOOTH",
"277 -23 LINE SMOOTH",
"277 -92 OFFCURVE",
"279 -114 OFFCURVE",
"283 -139 CURVE",
"280 -139 LINE",
"250 -80 LINE",
"224 -80 LINE",
"209 -144 LINE",
"207 -144 LINE",
"186 -78 OFFCURVE",
"151 -42 OFFCURVE",
"106 -42 CURVE SMOOTH",
"63 -42 OFFCURVE",
"34 -77 OFFCURVE",
"34 -132 CURVE SMOOTH",
"34 -183 OFFCURVE",
"64 -221 OFFCURVE",
"103 -221 CURVE SMOOTH"
);
},
{
closed = 1;
nodes = (
"65 45 OFFCURVE",
"56 61 OFFCURVE",
"56 90 CURVE SMOOTH",
"56 118 OFFCURVE",
"65 134 OFFCURVE",
"81 134 CURVE SMOOTH",
"98 134 OFFCURVE",
"107 117 OFFCURVE",
"107 90 CURVE SMOOTH",
"107 62 OFFCURVE",
"98 45 OFFCURVE",
"81 45 CURVE SMOOTH"
);
},
{
closed = 1;
nodes = (
"193 -60 OFFCURVE",
"196 -27 OFFCURVE",
"196 0 CURVE",
"154 0 LINE",
"154 -24 OFFCURVE",
"151 -55 OFFCURVE",
"147 -79 CURVE",
"185 -104 LINE"
);
}
);
width = 404;
}
);
leftKerningGroup = "phoSamphao-thai";
leftMetricsKey = "phoSamphao-thai";
rightKerningGroup = "koKai-thai";
rightMetricsKey = "koKai-thai";
unicode = 0E0F;
},
